<svg height="511pt" viewBox="1 -14 511.999 511" width="511pt" xmlns="http://www.w3.org/2000/svg"><path d="m496.640625.5h-103.695313c-4.144531 0-7.503906 3.359375-7.503906 7.503906 0 4.144532 3.363282 7.503906 7.503906 7.503906h103.695313c.191406 0 .351563.15625.351563.355469v39.5c0 .191407-.160157.351563-.351563.351563h-481.28125c-.191406 0-.351563-.15625-.351563-.351563v-39.5c0-.195312.160157-.355469.351563-.355469h342.742187c4.144532 0 7.503907-3.359374 7.503907-7.503906 0-4.144531-3.359375-7.503906-7.503907-7.503906h-342.742187c-8.46875 0-15.359375 6.890625-15.359375 15.363281v39.5c0 8.46875 6.890625 15.359375 15.359375 15.359375h10.539063v362.171875c0 9.535157 7.757812 17.296875 17.292968 17.296875h5.253906v16.742188c0 9.171875 7.464844 16.636718 16.636719 16.636718h39.421875c9.171875 0 16.636719-7.464843 16.636719-16.636718v-16.742188h269.71875v16.742188c0 9.171875 7.460937 16.636718 16.632813 16.636718h39.425781c9.171875 0 16.632812-7.464843 16.632812-16.636718v-16.742188h5.257813c9.535156 0 17.292968-7.761718 17.292968-17.296875v-110.53125c0-4.144531-3.359374-7.503906-7.503906-7.503906-4.144531 0-7.503906 3.359375-7.503906 7.503906v17.777344h-430.1875v-80.03125h430.1875v27.359375c0 4.148438 3.359375 7.503906 7.503906 7.503906 4.144532 0 7.503906-3.355468 7.503906-7.503906v-216.746094h10.535157c8.472656 0 15.363281-6.890625 15.363281-15.359375v-39.5c0-8.472656-6.890625-15.363281-15.359375-15.363281zm-390.507813 466.433594c0 .898437-.730468 1.628906-1.628906 1.628906h-39.421875c-.898437 0-1.628906-.730469-1.628906-1.628906v-16.742188h42.679687zm342.414063 0c0 .898437-.730469 1.628906-1.628906 1.628906h-39.421875c-.898438 0-1.628906-.730469-1.628906-1.628906v-16.742188h42.679687zm22.546875-111.785156v77.746093c0 1.261719-1.023438 2.285157-2.285156 2.285157h-425.617188c-1.261718 0-2.285156-1.023438-2.285156-2.285157v-77.746093zm0-110.046876h-430.1875v-79.339843h430.1875zm0-95.042968h-430.1875v-79.335938h430.1875zm0 0"/><path d="m137.292969 136.476562c14.195312 0 25.742187-11.546874 25.742187-25.738281 0-14.191406-11.546875-25.738281-25.742187-25.738281-14.191407 0-25.738281 11.546875-25.738281 25.738281 0 14.191407 11.546874 25.738281 25.738281 25.738281zm0-36.46875c5.917969 0 10.730469 4.816407 10.730469 10.730469 0 5.917969-4.8125 10.730469-10.730469 10.730469-5.914063 0-10.730469-4.8125-10.730469-10.730469 0-5.914062 4.816406-10.730469 10.730469-10.730469zm0 0"/><path d="m374.707031 136.476562c14.191407 0 25.738281-11.546874 25.738281-25.738281 0-14.191406-11.546874-25.738281-25.738281-25.738281-14.195312 0-25.742187 11.546875-25.742187 25.738281 0 14.191407 11.546875 25.738281 25.742187 25.738281zm0-36.46875c5.914063 0 10.730469 4.816407 10.730469 10.730469 0 5.917969-4.816406 10.730469-10.730469 10.730469-5.917969 0-10.730469-4.8125-10.730469-10.730469 0-5.914062 4.8125-10.730469 10.730469-10.730469zm0 0"/><path d="m137.292969 230.824219c14.195312 0 25.742187-11.546875 25.742187-25.742188 0-14.191406-11.546875-25.738281-25.742187-25.738281-14.191407 0-25.738281 11.546875-25.738281 25.738281 0 14.195313 11.546874 25.742188 25.738281 25.742188zm0-36.46875c5.917969 0 10.730469 4.8125 10.730469 10.730469 0 5.914062-4.8125 10.730468-10.730469 10.730468-5.914063 0-10.730469-4.816406-10.730469-10.730468 0-5.917969 4.816406-10.730469 10.730469-10.730469zm0 0"/><path d="m374.707031 230.824219c14.191407 0 25.738281-11.546875 25.738281-25.742188 0-14.191406-11.546874-25.738281-25.738281-25.738281-14.195312 0-25.742187 11.546875-25.742187 25.738281 0 14.195313 11.546875 25.742188 25.742187 25.742188zm0-36.46875c5.914063 0 10.730469 4.8125 10.730469 10.730469 0 5.914062-4.816406 10.730468-10.730469 10.730468-5.917969 0-10.730469-4.816406-10.730469-10.730468 0-5.917969 4.8125-10.730469 10.730469-10.730469zm0 0"/><path d="m111.554688 300.125c0 14.191406 11.546874 25.738281 25.738281 25.738281 14.195312 0 25.742187-11.546875 25.742187-25.738281s-11.546875-25.738281-25.742187-25.738281c-14.191407 0-25.738281 11.546875-25.738281 25.738281zm36.46875 0c0 5.917969-4.8125 10.730469-10.730469 10.730469s-10.730469-4.8125-10.730469-10.730469 4.8125-10.730469 10.730469-10.730469 10.730469 4.8125 10.730469 10.730469zm0 0"/><path d="m348.964844 300.125c0 14.191406 11.546875 25.738281 25.742187 25.738281 14.191407 0 25.738281-11.546875 25.738281-25.738281s-11.546874-25.738281-25.738281-25.738281c-14.195312 0-25.742187 11.546875-25.742187 25.738281zm36.46875 0c0 5.917969-4.8125 10.730469-10.730469 10.730469-5.914063 0-10.730469-4.8125-10.730469-10.730469s4.816406-10.730469 10.730469-10.730469c5.917969 0 10.730469 4.8125 10.730469 10.730469zm0 0"/><path d="m137.292969 420.902344c14.195312 0 25.742187-11.542969 25.742187-25.738282 0-14.191406-11.546875-25.738281-25.742187-25.738281-14.191407 0-25.738281 11.546875-25.738281 25.738281 0 14.195313 11.546874 25.738282 25.738281 25.738282zm0-36.46875c5.917969 0 10.730469 4.816406 10.730469 10.730468 0 5.917969-4.8125 10.730469-10.730469 10.730469-5.914063 0-10.730469-4.8125-10.730469-10.730469 0-5.914062 4.816406-10.730468 10.730469-10.730468zm0 0"/><path d="m374.707031 420.902344c14.191407 0 25.738281-11.542969 25.738281-25.738282 0-14.191406-11.546874-25.738281-25.738281-25.738281-14.195312 0-25.742187 11.546875-25.742187 25.738281 0 14.195313 11.546875 25.738282 25.742187 25.738282zm0-36.46875c5.914063 0 10.730469 4.816406 10.730469 10.730468 0 5.917969-4.816406 10.730469-10.730469 10.730469-5.917969 0-10.730469-4.8125-10.730469-10.730469 0-5.914062 4.8125-10.730468 10.730469-10.730468zm0 0"/></svg>