<svg height="512pt" viewBox="-96 0 512 512" width="512pt" xmlns="http://www.w3.org/2000/svg"><path d="m280 0h-240c-22.058594 0-40 17.941406-40 40v392c0 22.058594 17.941406 40 40 40h10v10c0 16.539062 13.460938 30 30 30h10c11.03125 0 20-8.96875 20-20v-20h100v20c0 11.03125 8.96875 20 20 20h10c16.539062 0 30-13.460938 30-30v-10h10c22.058594 0 40-17.941406 40-40v-392c0-22.058594-17.941406-40-40-40zm-190 492h-10c-5.511719 0-10-4.488281-10-10v-10h20l.011719 20s0 0-.011719 0zm160-10c0 5.511719-4.488281 10-10 10h-10v-20h20zm50-50c0 11.03125-8.96875 20-20 20h-240c-11.03125 0-20-8.96875-20-20v-240h280zm0-260h-280v-132c0-11.03125 8.96875-20 20-20h240c11.03125 0 20 8.96875 20 20zm0 0"/><path d="m130.179688 152h-70c-11.027344 0-20-8.972656-20-20v-10c0-16.542969 13.457031-30 30-30h50c16.542968 0 30 13.457031 30 30v10c0 11.027344-8.972657 20-20 20zm-60-40c-5.515626 0-10 4.484375-10 10v10h70.003906l-.003906-10c0-5.515625-4.484376-10-10-10zm0 0"/><path d="m120.179688 272h-50c-16.542969 0-30-13.457031-30-30v-10c0-11.027344 8.972656-20 20-20h70c11.027343 0 20 8.972656 20 20v10c0 16.542969-13.457032 30-30 30zm-60-40v10c0 5.515625 4.484374 10 10 10h50c5.515624 0 10-4.484375 10-10v-10zm0 0"/><path d="m270 432c-5.523438 0-10-4.476562-10-10v-80c0-5.523438 4.476562-10 10-10s10 4.476562 10 10v80c0 5.523438-4.476562 10-10 10zm0 0"/><path d="m270.019531 312c-5.523437 0-10.003906-4.476562-10.003906-10s4.472656-10 9.996094-10h.007812c5.523438 0 10 4.476562 10 10s-4.476562 10-10 10zm0 0"/></svg>