<svg height="512pt" viewBox="-53 0 512 512.00115" width="512pt" xmlns="http://www.w3.org/2000/svg"><path d="m273.574219 228.03125c.953125.324219 1.9375.476562 2.890625.476562 3.757812 0 7.261718-2.359374 8.53125-6.117187 2.820312-8.273437 11.839844-12.714844 20.109375-9.914063 17.679687 5.984376 36.96875-3.503906 42.960937-21.191406 1.605469-4.703125-.917968-9.828125-5.628906-11.433594-4.730469-1.59375-9.832031.929688-11.433594 5.640626-2.8125 8.28125-11.832031 12.722656-20.113281 9.914062-17.648437-5.957031-36.960937 3.511719-42.960937 21.191406-1.59375 4.703125.929687 9.828125 5.644531 11.433594zm0 0"/><path d="m294.890625 165.246094c.957031.324218 1.9375.476562 2.890625.476562 3.757812 0 7.261719-2.359375 8.53125-6.117187 1.363281-4.011719 4.199219-7.253907 8.003906-9.128907 3.800782-1.871093 8.097656-2.140624 12.109375-.78125 17.675781 5.984376 36.960938-3.503906 42.960938-21.203124 1.601562-4.703126-.929688-9.828126-5.632813-11.433594-4.710937-1.621094-9.832031.929687-11.425781 5.640625-2.808594 8.289062-11.8125 12.734375-20.109375 9.921875-8.578125-2.914063-17.761719-2.316406-25.871094 1.691406-8.109375 4-14.179687 10.929688-17.089844 19.5-1.613281 4.710938.917969 9.832031 5.632813 11.433594zm0 0"/><path d="m316.191406 102.464844c.960938.324218 1.9375.476562 2.902344.476562 3.757812 0 7.261719-2.363281 8.53125-6.121094 2.070312-6.109374 8.75-9.398437 14.847656-7.324218 7.523438 2.550781 15.589844 2.027344 22.714844-1.476563 7.121094-3.515625 12.445312-9.585937 15.003906-17.113281 1.601563-4.703125-.921875-9.828125-5.632812-11.429688-4.730469-1.613281-9.832032.925782-11.433594 5.636719-1.011719 2.964844-3.109375 5.363281-5.914062 6.742188-2.800782 1.375-5.972657 1.585937-8.945313.566406-15.515625-5.234375-32.445313 3.089844-37.707031 18.597656-1.59375 4.722657.917968 9.839844 5.632812 11.445313zm0 0"/><path d="m381.460938 227.363281c-1.566407-1.070312-3.332032-1.683593-5.136719-1.917969 17.902343-58.179687 27.726562-115.175781 29.132812-169.464843.441407-17.074219-7.902343-39.871094-24.726562-50.421875-8.070313-5.070313-21.300781-9.25-38.472657-.414063-26.914062 13.886719-46.160156 54.730469-61.621093 87.5625-.890625 1.890625-1.765625 3.738281-2.628907 5.566407-3.417968-15.703126-13.796874-29.136719-28.554687-36.148438-3.476563-16.722656-16.742187-29.824219-33.410156-33.21875-.179688-.9375-.40625-1.859375-.683594-2.785156-3.433594-11.730469-13.785156-20.5625-25.761719-21.984375-6.746094-.800781-13.433594.59375-19.144531 3.9375-4.867187-2.710938-10.328125-4.152344-15.933594-4.152344-15.667969 0-28.832031 10.929687-32.265625 25.554687-17.128906 4.664063-29.691406 20.382813-29.824218 38.65625-19.542969 5.046876-33.78125 22.707032-33.78125 43.710938 0 5.570312 1.046874 11.082031 3.054687 16.28125-5.070313 6.261719-7.882813 14.101562-7.882813 22.328125 0 4.9375 1.015626 9.695313 2.9375 14.089844-9-9.820313-21.667968-17.847657-35.894531-17.324219-4.976562.160156-8.886719 4.316406-8.734375 9.289062.152344 4.875 4.15625 8.730469 9.003906 8.730469.304688.011719.582032-.015625.871094-.015625 8.445313 0 16.292969 5.585938 22.003906 12.070313-14.289062 4.121093-31.519531 10.820312-39.554687 25.980469-4.839844 9.144531-5.40625 20.359374-2.179687 33.210937-1.558594 2.605469-2.414063 5.632813-2.2539068 8.855469l15.3359378 217.933594c1.398437 27.328124 23.921875 48.726562 51.277343 48.726562h252.929688c27.355469 0 49.878906-21.398438 51.265625-48.5625l15.722656-225.511719c0-.050781.011719-.105469.011719-.160156.25-4.15625-1.667969-8.039063-5.101562-10.402344zm-96.105469-103.320312c3.570312-6.65625 7.460937-14.914063 11.578125-23.660157 13.542968-28.761718 32.105468-68.144531 53.578125-79.226562 7.835937-4.039062 14.585937-4.121094 20.640625-.34375 10.441406 6.558594 16.589844 23.109375 16.289062 34.699219-1.378906 53.269531-11.109375 109.328125-28.929687 166.636719-.585938 1.882812-1.882813 5.683593-3.730469 10.902343l-15.355469 6.820313c-.332031.152344-.65625.316406-.972656.511718-4.433594 2.660157-9.40625 3.972657-14.382813 4.027344-4.972656-.054687-9.9375-1.367187-14.371093-4.027344l-6.421875-3.855468c-7.390625-4.433594-15.671875-6.648438-23.953125-6.648438-.097657 0-.195313.015625-.304688.015625-8.378906-.054687-16.777343 2.136719-24.257812 6.632813l-6.414063 3.855468c-3.578125 2.144532-7.53125 3.191407-11.535156 3.640626.226562-.78125.488281-1.550782.722656-2.324219 2.46875-8.386719 5.117188-16.660157 7.890625-24.867188 1.054688-3.121093 2.15625-6.21875 3.253907-9.308593 2.316406-6.515626 4.738281-12.945313 7.246093-19.335938 1.117188-2.855469 2.207031-5.738281 3.359375-8.566406 7.863282-19.167969 16.53125-37.753906 26.070313-55.578125zm-114.859375 21.371093c1.050781-1.351562 2.078125-2.664062 3.054687-3.945312 0-.015625.007813-.027344.015625-.035156.710938-.945313 1.332032-1.929688 1.855469-2.914063 2.21875-4.167969 2.738281-8.855469 1.710937-13.433593l37.609376-8.222657c.253906 1.152344.523437 2.296875.957031 3.359375 1.683593 4.125 4.695312 7.558594 8.882812 9.957032 1.371094.757812 2.804688 1.511718 4.28125 2.296874 1.214844.640626 2.433594 1.304688 3.65625 1.972657.585938.316406 1.179688.628906 1.765625.957031 1.074219.601562 2.109375 1.269531 3.152344 1.925781.894531.550781 1.777344 1.117188 2.640625 1.722657 1 .691406 1.957031 1.457031 2.910156 2.234374.839844.683594 1.640625 1.433594 2.433594 2.199219.855469.835938 1.703125 1.691407 2.488281 2.628907 1.386719 1.65625 2.71875 3.378906 3.808594 5.441406-3.820312 8.433594-7.414062 17.039062-10.890625 25.714844-.542969 1.34375-1.117187 2.652343-1.648437 3.992187-9.875 2.503906-19.417969 7.191406-31.203126 15.578125-14.851562 10.550781-25.90625 13.355469-44.125 10.714844l-5.46875-25.039063c-3.710937-16.929687 4.335938-27.183593 12.113282-37.105469zm44.679687-54.71875c.234375-.042968.46875-.070312.703125-.070312 1.703125 0 3.296875 1.21875 3.667969 2.929688.289063 1.296874-.199219 2.316406-.523437 2.808593-.316407.488281-1.027344 1.34375-2.316407 1.621094l-49.773437 10.894531c-1.980469.433594-4-.882812-4.433594-2.847656-.429688-1.972656.875-4 2.847656-4.433594l26.445313-5.785156zm-29.121093 139.363282c-.683594.046875-1.378907.0625-2.0625.136718-4.914063.496094-9.761719 1.738282-14.363282 3.808594l-1.722656-7.882812c2.597656.214844 5.183594.433594 7.605469.433594 15.714843 0 28.367187-4.679688 42.90625-15.023438 4.578125-3.261719 8.632812-5.730469 12.488281-7.773438-.828125 2.351563-1.648438 4.691407-2.449219 7.054688-.578125 1.691406-1.199219 3.359375-1.757812 5.0625-2.648438 8.019531-5.171875 16.101562-7.523438 24.257812l-5.992187-3.585937c-7.386719-4.433594-15.667969-6.652344-23.949219-6.652344-.109375 0-.222656.019531-.332031.019531-.953125-.019531-1.902344.089844-2.847656.144532zm-107.773438-93.175782 5.902344-4.863281-3.828125-6.605469c-2.398438-4.144531-3.667969-8.832031-3.667969-13.570312 0-14.597656 11.433594-26.5 26.03125-27.109375l10.9375-.460937-2.550781-10.652344c-.429688-1.78125-.648438-3.539063-.648438-5.207032 0-11.605468 9.066407-21.378906 20.632813-22.261718l8.328125-.632813v-8.964843c.261719-8.097657 6.9375-14.613282 15.109375-14.613282 4.703125 0 8.074218 2.144532 10.066406 3.945313l6.316406 5.703125 6.054688-5.980469c2.773437-2.738281 6.585937-4.019531 10.515625-3.570313 4.828125.570313 9.1875 4.335938 10.59375 9.175782.476562 1.621094.613281 3.1875.425781 4.785156l-1.054688 10.0625h10.144532c12.949218 0 23.777344 10.121094 24.671875 23.039062l.40625 5.921876 5.59375 1.960937c14.082031 4.949219 23.347656 18.273437 23.03125 33.1875-.136719 6.371094-2.191407 12.503906-5.914063 17.882813-6.027344-5.117188-12.523437-8.566407-17.984375-11.441407-1.414062-.75-2.78125-1.46875-4.160156-2.234375-.390625-.21875-.859375-.59375-1.019531-1.542968-.214844-1.296876.269531-2.855469 1.253906-4 3.925781-4.558594 5.503906-10.773438 4.234375-16.640626l-1.089844-4.964843c-1.089843-5.011719-4.082031-9.289063-8.40625-12.066407-4.316406-2.765624-9.453125-3.691406-14.453125-2.59375l-2.417968.53125c-.027344.007813-.050782 0-.078126.007813l-26.445312 5.785156-25.804688 5.632813c-5 1.09375-9.28125 4.074218-12.054687 8.40625-2.777344 4.316406-3.695313 9.460937-2.605469 14.460937l.539063 2.449219v.027344c0 .011718.011719.019531.011719.039062l.53125 2.441406c1.304687 6 5.476562 11.054688 11.144531 13.488282 1.40625.601562 2.578125 1.746094 2.984375 2.910156.234375.667969.097656 1.007812-.425782 1.875v.007812c-.890624 1.199219-1.855468 2.414063-2.835937 3.667969-.992187 1.261719-2.019531 2.585938-3.066406 3.957031-.351563.457032-.683594.933594-1.035157 1.402344-.75 1.019532-1.496093 2.054688-2.234374 3.136719-.40625.585937-.792969 1.191406-1.191407 1.804687-.683593 1.054688-1.34375 2.140626-1.992187 3.261719-.375.648438-.746094 1.289063-1.105469 1.960938-.679687 1.261719-1.289063 2.585937-1.894531 3.941406-.261719.574219-.539063 1.125-.773438 1.730469-.792968 1.960937-1.496094 4.015625-2.054687 6.179687-.089844.34375-.125.710938-.207031 1.0625-.433594 1.839844-.785157 3.738281-1.011719 5.722657-.085938.792968-.105469 1.621093-.160157 2.441406-.074218 1.0625-.207031 2.074218-.207031 3.179687-.039062-.042969-.074219-.089843-.109375-.132812-.125-.164063-.253906-.308594-.371094-.46875-1.566406-2.066407-3.136718-3.964844-4.710937-5.769531-.496094-.566407-1-1.113282-1.503906-1.65625-1.324219-1.429688-2.648438-2.773438-3.984375-4.035157-.429688-.40625-.863282-.847656-1.304688-1.246093-1.683594-1.503907-3.378906-2.882813-5.082031-4.109376-.476563-.339843-.964844-.628906-1.441406-.953124-1.28125-.859376-2.558594-1.652344-3.859375-2.351563-.628906-.34375-1.25-.675781-1.890625-.984375-1.34375-.65625-2.695313-1.214844-4.054688-1.703125-.449219-.160156-.902343-.378906-1.351562-.523437-1.476563-.46875-2.960938-.847657-4.457031-1.125-.171876-.035157-.34375-.019532-.515626-.042969-.304687-.054688-.601562-.171875-.910156-.21875-1.046875-.152344-2.039062-.089844-3.066406-.164063-.71875-.042968-1.429688-.195312-2.152344-.195312-.214844 0-.441406.054687-.664062.054687-1.398438.015625-2.75.179688-4.109375.347657-.675781.089843-1.351563.144531-2.027344.269531-1.777344.324219-3.496094.777343-5.199219 1.316406-.261718.082031-.515625.144531-.777344.234375-4.484374 1.523438-8.738281 3.679688-12.71875 6.28125-.820312-2.027344-1.253906-4.207031-1.253906-6.453125.011719-5.273437 2.355469-10.21875 6.433594-13.570313zm-57.890625 74.8125c3.8125-7.179687 13.066406-12.660156 29.132813-17.253906 7.515624-2.144531 14.488281-6.15625 20.148437-11.5625 2.566406-2.457031 4.972656-4.539062 7.296875-6.429687 7.261719-5.902344 13.523438-9.113281 19.191406-9.84375.128906-.015625.253906-.035157.378906-.042969 1.792969-.199219 3.53125-.144531 5.21875.152344.441407.082031.890626.234375 1.34375.351562.835938.207032 1.664063.414063 2.503907.75.539062.207032 1.078125.523438 1.628906.773438.78125.378906 1.558594.722656 2.34375 1.199218.613281.367188 1.222656.847657 1.835937 1.269532.730469.511718 1.460938.980468 2.199219 1.578125.683594.546875 1.371094 1.214843 2.054688 1.835937.683593.621094 1.371093 1.191406 2.054687 1.882813.757813.765625 1.523438 1.65625 2.289063 2.515625.621093.691406 1.242187 1.332031 1.875 2.082031.855469 1.027344 1.71875 2.195313 2.582031 3.332031.550781.722656 1.09375 1.371094 1.640625 2.136719.984375 1.371094 1.972656 2.890625 2.964844 4.40625.433593.664063.875 1.261719 1.304687 1.945313 1.433594 2.261718 2.875 4.667968 4.324219 7.226562 6.632813 11.703125 8.832031 28.992188 5.949219 44.050781-.480469-.046875-.949219-.117187-1.425782-.191406-3.433593-.585937-6.738281-1.683594-9.75-3.488281l-6.425781-3.855469c-7.386719-4.433594-15.667969-6.648437-23.949219-6.648437-.097656 0-.195312.015624-.304687.015624-8.378906-.054687-16.777344 2.136719-24.257813 6.632813l-3.125 1.875c-5.453124 3.269531-11.558593 4.917969-17.667968 4.972656-6.121094-.054687-12.21875-1.695312-17.667969-4.972656l-12.121094-7.28125s-.007812 0-.007812-.007813c-1.597657-.945312-3.316407-1.597656-5.082031-1.917968-1.414063-7.128906-.910157-12.894532 1.523437-17.488282zm332.488281 250.648438c-.910156 17.730469-15.53125 31.625-33.28125 31.625h-252.9375c-17.761718 0-32.375-13.894531-33.292968-31.796875l-14.996094-213.023437 7.839844 4.707031c8.496093 5.097656 18.039062 7.605469 27.554687 7.550781 9.523437.054688 19.054687-2.449219 27.550781-7.550781l3.128906-1.875c4.429688-2.667969 9.398438-3.984375 14.371094-4.039063 4.972656.054688 9.9375 1.371094 14.378906 4.039063l6.425782 3.855469c8.128906 4.875 17.335937 6.964843 26.4375 6.46875.808594-.035157 1.621094-.035157 2.441406-.105469.097656-.011719.191406-.066407.296875-.074219 6.152344-.691406 12.191406-2.628906 17.757813-5.800781.523437-.191407 1.082031-.199219 1.570312-.488281l6.425781-3.855469c4.429688-2.667969 9.394531-3.984375 14.371094-4.039063 4.972656.054688 9.9375 1.371094 14.378906 4.039063l6.425781 3.855469c6.820313 4.082031 14.410157 6.199218 22.039063 6.515624.152344.007813.316406.027344.46875.027344 2.628906.082032 5.261719 0 7.875-.371094 1.496094-.191406 2.945313-.566406 4.414063-.902343.710937-.167969 1.425781-.324219 2.128906-.53125 4-1.105469 7.917968-2.558594 11.566406-4.746094l6.425781-3.859375c4.433594-2.664062 9.398438-3.980469 14.371094-4.035156 4.972656.054687 9.941406 1.371094 14.382813 4.035156l6.425781 3.859375c7.441406 4.457031 15.792969 6.648437 24.136719 6.613281.136718 0 .277343.027344.414062.027344 8.09375 0 16.191406-2.109375 23.453125-6.34375l17.679687-7.859375c.378907-.167969.648438-.496094 1-.710937l1.378907-.613282zm0 0"/><path d="m54.070312 387.476562h63.074219c4.972657 0 9.011719-4.027343 9.011719-9.011718 0-4.980469-4.039062-9.011719-9.011719-9.011719h-63.074219c-4.972656 0-9.007812 4.03125-9.007812 9.011719 0 4.984375 4.035156 9.011718 9.007812 9.011718zm0 0"/><path d="m54.070312 423.519531h81.09375c4.976563 0 9.011719-4.027343 9.011719-9.011719 0-4.984374-4.035156-9.011718-9.011719-9.011718h-81.09375c-4.972656 0-9.007812 4.027344-9.007812 9.011718 0 4.984376 4.035156 9.011719 9.007812 9.011719zm0 0"/><path d="m153.183594 441.539062h-99.113282c-4.972656 0-9.007812 4.027344-9.007812 9.011719 0 4.980469 4.035156 9.007813 9.007812 9.007813h99.113282c4.972656 0 9.011718-4.027344 9.011718-9.007813 0-4.984375-4.039062-9.011719-9.011718-9.011719zm0 0"/><path d="m207.246094 441.539062h-18.019532c-4.976562 0-9.011718 4.027344-9.011718 9.011719 0 4.980469 4.035156 9.007813 9.011718 9.007813h18.019532c4.972656 0 9.011718-4.027344 9.011718-9.007813 0-4.984375-4.035156-9.011719-9.011718-9.011719zm0 0"/></svg>