<svg id="icons" enable-background="new 0 0 64 64" height="512" viewBox="0 0 64 64" width="512" xmlns="http://www.w3.org/2000/svg"><path d="m34.492 50.998v-5.996-35.007-4.995c0-2.757-2.243-5-5-5h-10c-2.757 0-5 2.243-5 5v4.995 35.007 5.996c0 2.757 2.243 5 5 5h4.433c1.304 4.61 5.54 8.002 10.561 8.002.004 0 .008-.002.012-.002s.008.002.012.002c6.057 0 10.984-4.928 10.984-10.984 0-.087-.028-.164-.049-.244.025-.088.055-.176.055-.272l-.004-37.614c2.227-.454 3.906-2.397 3.98-4.738.009-.053.031-.1.031-.155v-3.008c0-.553-.447-1-1-1h-1.006v-2.001c0-.553-.447-1-1-1s-1 .447-1 1v2.001h-2.001v-2.001c0-.553-.447-1-1-1s-1 .447-1 1v2.001h-1c-.553 0-1 .447-1 1v3.006c0 .007.004.013.004.02.01 2.402 1.723 4.411 3.992 4.874l.004 37.614c0 .087.028.164.049.243-.025.089-.055.177-.055.273 0 4.954-4.03 8.984-8.984 8.984-.004 0-.008.002-.012.002s-.008-.001-.012-.001c-3.907 0-7.23-2.512-8.465-6.002h3.471c2.757 0 5-2.243 5-5zm7.01-41.007c0-.003-.002-.006-.002-.01v-1.996h6.008v1.929c-.002.026-.016.05-.016.077 0 1.651-1.344 2.995-2.996 2.995-1.651 0-2.994-1.343-2.994-2.995zm-25.01-4.991c0-1.654 1.346-3 3-3h10c1.654 0 3 1.346 3 3v4.995 35.007c0 1.654-1.346 3-3 3h-10c-1.654 0-3-1.346-3-3v-35.007zm9.01 48.016c0-.553-.447-1-1-1s-1 .447-1 1c0 .332.021.658.05.982h-4.06c-1.654 0-3-1.346-3-3v-2.021c.838.635 1.87 1.025 3 1.025h10c1.13 0 2.162-.391 3-1.025v2.021c0 1.654-1.346 3-3 3h-3.934c-.035-.323-.056-.65-.056-.982z"/><path d="m24.492 17c3.859 0 7-3.141 7-7s-3.141-7-7-7-7 3.141-7 7 3.141 7 7 7zm0-12c2.757 0 5 2.243 5 5s-2.243 5-5 5-5-2.243-5-5 2.243-5 5-5z"/><path d="m22.522 11c.552 0 1-.447 1-1s-.448-1-1-1h-.011c-.552 0-.994.447-.994 1s.453 1 1.005 1z"/><path d="m26.522 11c.552 0 1-.447 1-1s-.448-1-1-1h-.011c-.552 0-.994.447-.994 1s.453 1 1.005 1z"/><path d="m24.492 31.998c3.859 0 7-3.141 7-7s-3.141-7-7-7-7 3.141-7 7 3.141 7 7 7zm0-12c2.757 0 5 2.243 5 5s-2.243 5-5 5-5-2.243-5-5 2.243-5 5-5z"/><path d="m22.522 25.998c.552 0 1-.447 1-1s-.448-1-1-1h-.011c-.552 0-.994.447-.994 1s.453 1 1.005 1z"/><path d="m26.522 25.998c.552 0 1-.447 1-1s-.448-1-1-1h-.011c-.552 0-.994.447-.994 1s.453 1 1.005 1z"/><path d="m24.492 46.996c3.859 0 7-3.141 7-7s-3.141-7-7-7-7 3.141-7 7 3.141 7 7 7zm0-12c2.757 0 5 2.243 5 5s-2.243 5-5 5-5-2.243-5-5 2.243-5 5-5z"/><path d="m22.522 40.996c.552 0 1-.447 1-1s-.448-1-1-1h-.011c-.552 0-.994.447-.994 1s.453 1 1.005 1z"/><path d="m26.522 40.996c.552 0 1-.447 1-1s-.448-1-1-1h-.011c-.552 0-.994.447-.994 1s.453 1 1.005 1z"/></svg>