<?xml version="1.0" encoding="UTF-8"?>
<svg xmlns="http://www.w3.org/2000/svg" xmlns:xlink="http://www.w3.org/1999/xlink" width="512" height="512" viewBox="0 0 60 43" version="1.1"><!-- Generator: Sketch 51.3 (57544) - http://www.bohemiancoding.com/sketch --><title>023 - Packing Furniture</title><desc>Created with Sketch.</desc><defs/><g id="Page-1" stroke="none" stroke-width="1" fill="none" fill-rule="evenodd"><g id="023---Packing-Furniture" fill="#000000" fill-rule="nonzero"><path d="M22,25 C21.4477153,25 21,25.4477153 21,26 L21,27 C21,27.5522847 21.4477153,28 22,28 C22.5522847,28 23,27.5522847 23,27 L23,26 C23,25.4477153 22.5522847,25 22,25 Z" id="Shape"/><path d="M55,27 L55,26 C55,25.4477153 54.5522847,25 54,25 C53.4477153,25 53,25.4477153 53,26 L53,27 C53,27.5522847 53.4477153,28 54,28 C54.5522847,28 55,27.5522847 55,27 Z" id="Shape"/><path d="M30,19 C30.5522847,19 31,18.5522847 31,18 L31,17 C31,16.4477153 30.5522847,16 30,16 C29.4477153,16 29,16.4477153 29,17 L29,18 C29,18.5522847 29.4477153,19 30,19 Z" id="Shape"/><path d="M46,19 C46.5522847,19 47,18.5522847 47,18 L47,17 C47,16.4477153 46.5522847,16 46,16 C45.4477153,16 45,16.4477153 45,17 L45,18 C45,18.5522847 45.4477153,19 46,19 Z" id="Shape"/><path d="M59,41 L56,41 L56,31.661 C58.7706494,30.6858555 60.426497,27.8466548 59.911,24.955 C59.4950333,22.5555404 57.6644684,20.6486196 55.284,20.135 C55.19,20.115 55.095,20.107 55,20.091 L55,17 C54.9950401,12.5837781 51.4162219,9.00495988 47,9 L29,9 C24.5837781,9.00495988 21.0049599,12.5837781 21,17 L21,20.093 C18.4781533,20.5082105 16.5026166,22.4865642 16.091,25.009 C16.06,25.009 16.031,25 16,25 L15,25 L15,23 C15,21.8954305 14.1045695,21 13,21 L10,21 L10,14 L12,14 L12,17 C12,17.5522847 12.4477153,18 13,18 C13.5522847,18 14,17.5522847 14,17 L14,14 L15.41,14 C15.8509082,13.999846 16.2694194,13.8057174 16.5543069,13.4692072 C16.8391945,13.132697 16.9616029,12.6878895 16.889,12.253 L15.056,1.253 C14.9353147,0.530097962 14.3099067,0.000255992201 13.577,0 L4.423,0 C3.6900933,0.000255992201 3.06468527,0.530097962 2.944,1.253 L1.111,12.253 C1.03839709,12.6878895 1.1608055,13.132697 1.44569307,13.4692072 C1.73058064,13.8057174 2.14909183,13.999846 2.59,14 L8,14 L8,21 L5,21 C3.8954305,21 3,21.8954305 3,23 L3,25 L2,25 C0.8954305,25 1.3527075e-16,25.8954305 0,27 L0,41 C1.3527075e-16,42.1045695 0.8954305,43 2,43 L31,43 C31.5522847,43 32,42.5522847 32,42 C32,41.4477153 31.5522847,41 31,41 L28,41 L28,39 L48,39 L48,41 L45,41 C44.4477153,41 44,41.4477153 44,42 C44,42.5522847 44.4477153,43 45,43 L59,43 C59.5522847,43 60,42.5522847 60,42 C60,41.4477153 59.5522847,41 59,41 Z M4.847,2 L13.153,2 L14.819,12 L3.181,12 L4.847,2 Z M29,11 L37,11 L37,19 C37,19.5522847 37.4477153,20 38,20 C38.5522847,20 39,19.5522847 39,19 L39,11 L47,11 C50.3123376,11.0033074 52.9966926,13.6876624 53,17 L53,20.094 C50.1112198,20.5713678 47.9941513,23.0720491 48,26 L48,27 L42,27 C40.4200479,27.0044337 38.9358543,27.758033 38,29.031 C37.0641457,27.758033 35.5799521,27.0044337 34,27 L28,27 L28,26.217 C28.0253159,23.2372109 25.924257,20.6621531 23,20.089 L23,17 C23.0033074,13.6876624 25.6876624,11.0033074 29,11 Z M28,33 L28,29 L34,29 C35.6568542,29 37,30.3431458 37,32 L37,33 L28,33 Z M39,32 C39,30.3431458 40.3431458,29 42,29 L48,29 L48,33 L39,33 L39,32 Z M5,23 L13,23 L13,25 L5,25 L5,23 Z M7,27 L11,27 L11,30.131 L9.555,29.168 C9.21896313,28.9438005 8.78103687,28.9438005 8.445,29.168 L7,30.131 L7,27 Z M15,41 L2,41 L2,27 L5,27 L5,32 C4.99994479,32.3688869 5.20297845,32.707846 5.52823496,32.881874 C5.85349147,33.0559019 6.24814134,33.0367322 6.555,32.832 L9,31.2 L11.445,32.83 C11.7515602,33.034534 12.14577,33.0538804 12.4708844,32.8803466 C12.7959988,32.7068129 12.9993185,32.368528 13,32 L13,27 L16,27 L16,41 L15,41 Z M18,41 L18,30.447 C18.5797991,30.9794956 19.2596298,31.3914731 20,31.659 L20,41 L18,41 Z M22,41 L22,30.9 C22.0005727,30.4243558 21.6660347,30.0141286 21.2,29.919 C19.7242127,29.6166261 18.5434657,28.5107497 18.1451999,27.0579033 C17.7469342,25.605057 18.198701,24.0516629 19.314,23.039 C20.0469903,22.3674931 21.0059253,21.9965573 22,22 C22.133589,21.9997637 22.2671008,22.0064393 22.4,22.02 C24.494147,22.2995405 26.0440295,24.1077368 26,26.22 L26,41 L22,41 Z M28,37 L28,35 L48,35 L48,37 L28,37 Z M49.9999968,41 L50,26 C49.998485,24.7939588 50.5429698,23.6520481 51.481,22.894 C52.188459,22.3135567 53.0759009,21.9974718 53.991,22 L54,22 C54.2937108,22.0007369 54.5865733,22.0315645 54.874,22.092 C56.7201011,22.4996736 58.028684,24.1441924 58.0112935,26.0346909 C57.9939029,27.9251894 56.6552884,29.5453568 54.802,29.919 C54.3359653,30.0141286 54.0014273,30.4243558 54.002,30.9 L54.002,41 L49.9999968,41 Z" id="Shape"/></g></g></svg>
