<?xml version="1.0" encoding="iso-8859-1"?>
<!-- Generator: Adobe Illustrator 19.0.0, SVG Export Plug-In . SVG Version: 6.00 Build 0)  -->
<svg version="1.1" id="Capa_1" xmlns="http://www.w3.org/2000/svg" xmlns:xlink="http://www.w3.org/1999/xlink" x="0px" y="0px"
	 viewBox="0 0 512.001 512.001" style="enable-background:new 0 0 512.001 512.001;" xml:space="preserve">
<g>
	<g>
		<path d="M155.932,428.893c-1.87-1.86-4.44-2.93-7.07-2.93c-2.64,0-5.22,1.07-7.08,2.93s-2.93,4.44-2.93,7.07s1.07,5.21,2.93,7.07
			c1.87,1.859,4.44,2.93,7.08,2.93c2.63,0,5.2-1.07,7.07-2.93c1.86-1.86,2.92-4.44,2.92-7.07S157.792,430.753,155.932,428.893z"/>
	</g>
</g>
<g>
	<g>
		<path d="M498.816,128.154c-1.121-2.024-2.845-3.498-4.821-4.341L272.857,1.253c-3.016-1.671-6.68-1.671-9.695,0L69.55,108.557
			c-6.121-5.917-14.445-9.569-23.611-9.569c-18.748,0-34,15.252-34,34c0,15.315,10.181,28.294,24.129,32.534v180.861
			c-13.948,4.24-24.129,17.218-24.129,32.534c0,18.748,15.252,34,34,34c9.134,0,17.432-3.627,23.547-9.509l38.465,21.318
			c1.536,0.852,3.199,1.256,4.839,1.256c3.517,0,6.929-1.86,8.755-5.154c2.677-4.831,0.932-10.917-3.899-13.594L79.208,385.93
			c0.477-2.264,0.731-4.609,0.731-7.013c0-15.222-10.055-28.138-23.871-32.459V165.446c5.111-1.598,9.701-4.379,13.463-8.011
			l188.537,104.581V379c0,0.021,0,0.042,0,0.062v61.41c0,0.021,0,0.042,0,0.062v44.508l-69.944-38.84
			c-4.831-2.685-10.917-0.941-13.598,3.888c-2.681,4.828-0.94,10.916,3.888,13.597l84.739,47.056
			c1.509,0.839,3.182,1.258,4.854,1.258c1.67,0,3.34-0.418,4.848-1.254l221.933-123c3.18-1.762,5.152-5.11,5.152-8.746V134.528
			C500.271,132.41,499.935,130.173,498.816,128.154z M59.94,378.916c0,7.72-6.281,14-14,14c-7.72,0-14-6.28-14-14
			c0-7.72,6.28-14,14-14C53.66,364.916,59.94,371.196,59.94,378.916z M45.94,146.987c-7.72,0-14-6.28-14-14c0-7.72,6.28-14,14-14
			c7.72,0,14,6.28,14,14C59.94,140.707,53.66,146.987,45.94,146.987z M258.068,30.102v43.47c0,0.021,0,0.042,0,0.062v49.749
			c-1.467,0.882-2.731,2.143-3.613,3.752c-2.587,4.721-0.957,10.606,3.613,13.359v98.649L79.222,139.939
			c0.468-2.245,0.717-4.57,0.717-6.952c0.001-2.373-0.246-4.69-0.711-6.928l179.574-99.524
			C258.333,27.637,258.068,28.84,258.068,30.102z M469.374,133.034L278.069,239.027v-37.963l157.051-87.015L469.374,133.034z
			 M414.489,102.615L278.069,178.2v-37.932l102.756-56.31L414.489,102.615z M360.134,72.49l-82.065,44.971V79.408l47.281-26.196
			L360.134,72.49z M304.719,41.778l-26.65,14.766V30.102c0-1.231-0.254-2.403-0.701-3.483L304.719,41.778z M479.942,373.11
			L278.069,484.992v-38.684l201.873-111.849V373.11z M479.942,311.595L278.069,423.444v-38.609l201.873-111.848V311.595z
			 M278.069,361.971v-38.604l140.004-77.407c4.833-2.672,6.585-8.757,3.913-13.59c-2.672-4.834-8.757-6.584-13.59-3.913
			l-130.328,72.057v-38.622l201.873-111.849v100.08h0.001L278.069,361.971z"/>
	</g>
</g>
<g>
	<g>
		<path d="M457.732,209.233c-1.86-1.86-4.43-2.93-7.07-2.93c-2.63,0-5.21,1.07-7.07,2.93c-1.86,1.86-2.93,4.44-2.93,7.07
			s1.07,5.21,2.93,7.07s4.44,2.93,7.07,2.93c2.64,0,5.21-1.07,7.07-2.93c1.87-1.86,2.93-4.44,2.93-7.07
			S459.602,211.093,457.732,209.233z"/>
	</g>
</g>
<g>
	<g>
		<path d="M128,290.159l-4.374-2.424c-4.832-2.676-10.917-0.93-13.594,3.899c-2.677,4.831-0.932,10.917,3.899,13.595l4.374,2.424
			c1.536,0.851,3.198,1.255,4.838,1.255c3.518,0,6.93-1.86,8.756-5.154C134.577,298.923,132.831,292.837,128,290.159z"/>
	</g>
</g>
<g>
	<g>
		<path d="M167.363,311.968l-4.374-2.424c-4.829-2.674-10.917-0.93-13.594,3.9c-2.677,4.83-0.931,10.917,3.899,13.594l4.374,2.424
			c1.536,0.851,3.198,1.255,4.838,1.255c3.518,0,6.93-1.86,8.755-5.155C173.939,320.732,172.193,314.645,167.363,311.968z"/>
	</g>
</g>
<g>
	<g>
		<path d="M88.638,268.351l-4.374-2.423c-4.831-2.678-10.917-0.931-13.594,3.898c-2.677,4.831-0.932,10.917,3.899,13.595
			l4.374,2.424c1.536,0.851,3.198,1.255,4.838,1.255c3.518,0,6.93-1.86,8.756-5.154C95.214,277.115,93.469,271.029,88.638,268.351z"
			/>
	</g>
</g>
<g>
	<g>
		<path d="M206.723,333.777l-4.374-2.423c-4.832-2.68-10.917-0.93-13.593,3.901s-0.929,10.917,3.902,13.593l4.374,2.423
			c1.536,0.851,3.197,1.255,4.836,1.255c3.519,0,6.931-1.86,8.757-5.156C213.301,342.539,211.554,336.453,206.723,333.777z"/>
	</g>
</g>
<g>
	<g>
		<path d="M246.085,355.585l-4.374-2.423c-4.832-2.681-10.917-0.93-13.593,3.901c-2.676,4.831-0.929,10.917,3.902,13.593
			l4.374,2.423c1.536,0.851,3.197,1.255,4.836,1.255c3.519,0,6.931-1.86,8.757-5.156
			C252.663,364.347,250.916,358.261,246.085,355.585z"/>
	</g>
</g>
<g>
	<g>
		<path d="M232.953,103.95l-4.385-2.403c-4.841-2.653-10.92-0.88-13.575,3.964c-2.654,4.843-0.879,10.92,3.964,13.575l4.385,2.403
			c1.525,0.836,3.172,1.232,4.797,1.232c3.534,0,6.96-1.878,8.778-5.196C239.571,112.682,237.796,106.604,232.953,103.95z"/>
	</g>
</g>
<g>
	<g>
		<path d="M193.49,82.324l-4.385-2.403c-4.842-2.654-10.921-0.879-13.575,3.964c-2.654,4.843-0.879,10.92,3.964,13.575l4.385,2.403
			c1.525,0.836,3.172,1.232,4.797,1.232c3.534,0,6.96-1.878,8.778-5.196C200.108,91.056,198.333,84.978,193.49,82.324z"/>
	</g>
</g>
<g>
</g>
<g>
</g>
<g>
</g>
<g>
</g>
<g>
</g>
<g>
</g>
<g>
</g>
<g>
</g>
<g>
</g>
<g>
</g>
<g>
</g>
<g>
</g>
<g>
</g>
<g>
</g>
<g>
</g>
</svg>
