<?xml version="1.0" encoding="iso-8859-1"?>
<!-- Generator: Adobe Illustrator 19.0.0, SVG Export Plug-In . SVG Version: 6.00 Build 0)  -->
<svg version="1.1" id="Capa_1" xmlns="http://www.w3.org/2000/svg" xmlns:xlink="http://www.w3.org/1999/xlink" x="0px" y="0px"
	 viewBox="0 0 512 512" style="enable-background:new 0 0 512 512;" xml:space="preserve">
<g>
	<g>
		<path d="M65.998,0.007H10c-5.522,0-10,4.477-10,10v55.998c0,5.523,4.478,10,10,10h55.998c5.522,0,10-4.477,10-10V10.006
			C75.998,4.483,71.52,0.007,65.998,0.007z M55.998,56.005H19.999V20.006h35.999V56.005z"/>
	</g>
</g>
<g>
	<g>
		<path d="M502,0.007h-55.998c-5.522,0-10,4.477-10,10v55.998c0,5.523,4.478,10,10,10H502c5.522,0,10-4.477,10-10V10.006
			C512,4.483,507.522,0.007,502,0.007z M492.001,56.005h-35.999V20.006h35.999V56.005z"/>
	</g>
</g>
<g>
	<g>
		<path d="M65.998,435.995H10c-5.522,0-10,4.478-10,10v55.998c0,5.522,4.478,10,10,10h55.998c5.522,0,10-4.478,10-10v-55.998
			C75.998,440.472,71.52,435.995,65.998,435.995z M55.998,491.993H19.999v-35.999h35.999V491.993z"/>
	</g>
</g>
<g>
	<g>
		<path d="M502,435.995h-55.998c-5.522,0-10,4.478-10,10v18.508H362.99c-5.522,0-10,4.478-10,10s4.478,10,10,10h73.012v17.491
			c0,5.522,4.478,10,10,10H502c5.522,0,10-4.478,10-10v-55.998C512,440.472,507.522,435.995,502,435.995z M492.001,491.993h-35.999
			v-35.999h35.999V491.993z"/>
	</g>
</g>
<g>
	<g>
		<path d="M279.66,28.006H106.997c-5.522,0-10,4.477-10,10c0,5.523,4.478,10,10,10H279.66c5.522,0,10-4.477,10-10
			C289.66,32.483,285.182,28.006,279.66,28.006z"/>
	</g>
</g>
<g>
	<g>
		<path d="M331.05,30.936c-1.859-1.86-4.439-2.93-7.08-2.93c-2.63,0-5.21,1.07-7.069,2.93c-1.86,1.86-2.92,4.44-2.92,7.07
			c0,2.63,1.06,5.21,2.92,7.07c1.86,1.86,4.44,2.93,7.069,2.93c2.641,0,5.221-1.07,7.08-2.93c1.86-1.86,2.92-4.44,2.92-7.07
			C333.97,35.376,332.91,32.796,331.05,30.936z"/>
	</g>
</g>
<g>
	<g>
		<path d="M389.989,28.006h-30.332c-5.522,0-10,4.477-10,10c0,5.523,4.478,10,10,10h30.332c5.522,0,10-4.477,10-10
			C399.989,32.483,395.511,28.006,389.989,28.006z"/>
	</g>
</g>
<g>
	<g>
		<path d="M162.829,464.503h-51.165c-5.522,0-10,4.478-10,10s4.478,10,10,10h51.165c5.522,0,10-4.478,10-10
			S168.35,464.503,162.829,464.503z"/>
	</g>
</g>
<g>
	<g>
		<path d="M481.067,101.774c-1.86-1.87-4.431-2.93-7.07-2.93c-2.63,0-5.2,1.06-7.07,2.93c-1.859,1.86-2.93,4.43-2.93,7.07
			c0,2.63,1.07,5.21,2.93,7.07c1.87,1.86,4.44,2.93,7.07,2.93c2.64,0,5.21-1.07,7.07-2.93c1.87-1.87,2.939-4.44,2.939-7.07
			C484.006,106.214,482.937,103.634,481.067,101.774z"/>
	</g>
</g>
<g>
	<g>
		<path d="M474.001,137.617c-5.522,0-10,4.477-10,10v193.955c0,5.522,4.478,10,10,10c5.522,0,10-4.478,10-10V147.616
			C484.001,142.094,479.523,137.617,474.001,137.617z"/>
	</g>
</g>
<g>
	<g>
		<path d="M474.001,373.996c-5.522,0-10,4.478-10,10v21.999c0,5.522,4.478,10,10,10c5.522,0,10-4.478,10-10v-21.999
			C484.001,378.473,479.523,373.996,474.001,373.996z"/>
	</g>
</g>
<g>
	<g>
		<path d="M45.068,101.774c-1.859-1.86-4.439-2.93-7.069-2.93s-5.21,1.07-7.07,2.93c-1.86,1.86-2.93,4.43-2.93,7.07
			c0,2.63,1.069,5.21,2.93,7.07c1.86,1.86,4.44,2.93,7.07,2.93s5.21-1.07,7.069-2.93c1.86-1.86,2.931-4.44,2.931-7.07
			C47.999,106.204,46.929,103.634,45.068,101.774z"/>
	</g>
</g>
<g>
	<g>
		<path d="M37.999,137.617c-5.522,0-10,4.477-10,10v193.955c0,5.522,4.478,10,10,10s10-4.478,10-10V147.616
			C47.999,142.094,43.521,137.617,37.999,137.617z"/>
	</g>
</g>
<g>
	<g>
		<path d="M37.999,373.996c-5.522,0-10,4.478-10,10v21.999c0,5.522,4.478,10,10,10s10-4.478,10-10v-21.999
			C47.999,378.474,43.521,373.996,37.999,373.996z"/>
	</g>
</g>
<g>
	<g>
		<path d="M380.006,121.988H188.011c-2.652,0-5.195,1.054-7.071,2.929l-56.029,56.029c-0.192,0.192-0.351,0.37-0.492,0.542
			c-1.515,1.753-2.437,4.031-2.437,6.53v191.995c0,5.522,4.478,10,10,10h59.513c5.522,0,10-4.478,10-10s-4.478-10-10-10H141.98
			V198.018h171.995v171.995h-37.767l-11.556-20.016c-1.786-3.094-5.088-5-8.66-5c-3.572,0-6.874,1.906-8.66,5l-57.875,100.243
			c-1.786,3.094-1.786,6.906,0,10c1.786,3.094,5.088,5,8.66,5h24.162v36.753c0,5.522,4.478,10,10,10h47.396c5.522,0,10-4.478,10-10
			v-36.753h24.192c3.572,0,6.874-1.906,8.66-5c1.786-3.094,1.786-6.906,0-10l-34.773-60.228h36.22c2.759,0,5.256-1.117,7.065-2.924
			c0.002-0.002,0.004-0.003,0.006-0.005l56.031-56.03c1.875-1.876,2.929-4.419,2.929-7.071V131.988
			C390.005,126.465,385.527,121.988,380.006,121.988z M296.549,445.24h-16.873c-5.522,0-10,4.478-10,10v36.753H242.28V455.24
			c0-5.522-4.478-10-10-10h-16.843l40.555-70.244L296.549,445.24z M319.832,178.018H156.123l36.03-36.031h163.711L319.832,178.018z
			 M370.005,319.839l-36.03,36.031V192.159l36.03-36.031V319.839z"/>
	</g>
</g>
<g>
	<g>
		<path d="M195.795,264.756l11.673-11.672c2.859-2.86,3.716-7.161,2.168-10.898c-1.548-3.737-5.194-6.173-9.239-6.173h-32.831
			c-5.522,0-10,4.477-10,10s4.478,10,10,10h8.689l-10.934,10.933c-2.859,2.86-3.716,7.161-2.168,10.898
			c1.548,3.736,5.194,6.173,9.239,6.173h16.333c7.719,0,13.999,6.28,13.999,13.999c0,7.719-6.279,13.999-13.998,13.999
			s-13.999-6.28-13.999-13.999c0-5.522-4.478-10-10-10s-10,4.478-10,10c0,18.747,15.252,33.998,33.998,33.998
			s33.998-15.252,33.998-33.998C222.723,281.693,211.16,268.019,195.795,264.756z"/>
	</g>
</g>
<g>
	<g>
		<path d="M253.234,236.015l-10.002-0.001h-0.001c-2.651,0-5.195,1.054-7.07,2.929c-1.876,1.875-2.93,4.419-2.93,7.071v76
			c0,5.522,4.478,10,10,10h9.998c26.466,0,47.999-21.531,47.999-47.999C301.228,257.551,279.698,236.018,253.234,236.015z
			 M253.231,312.014v-55.999c15.438,0.002,27.997,12.563,27.997,28S268.668,312.012,253.231,312.014z"/>
	</g>
</g>
<g>
</g>
<g>
</g>
<g>
</g>
<g>
</g>
<g>
</g>
<g>
</g>
<g>
</g>
<g>
</g>
<g>
</g>
<g>
</g>
<g>
</g>
<g>
</g>
<g>
</g>
<g>
</g>
<g>
</g>
</svg>
