<?xml version="1.0" encoding="iso-8859-1"?>
<!-- Generator: Adobe Illustrator 19.0.0, SVG Export Plug-In . SVG Version: 6.00 Build 0)  -->
<svg version="1.1" id="Capa_1" xmlns="http://www.w3.org/2000/svg" xmlns:xlink="http://www.w3.org/1999/xlink" x="0px" y="0px"
	 viewBox="0 0 512 512" style="enable-background:new 0 0 512 512;" xml:space="preserve">
<g>
	<g>
		<path d="M368,340c-5.523,0-10,4.477-10,10v0.131c0,5.523,4.477,10,10,10s10-4.477,10-10V350C378,344.477,373.523,340,368,340z"/>
	</g>
</g>
<g>
	<g>
		<path d="M292,32h-72c-5.523,0-10,4.477-10,10s4.477,10,10,10h72c5.523,0,10-4.477,10-10S297.523,32,292,32z"/>
	</g>
</g>
<g>
	<g>
		<path d="M263.07,456.69c-1.86-1.86-4.44-2.93-7.07-2.93s-5.21,1.07-7.07,2.93s-2.93,4.43-2.93,7.07c0,2.63,1.07,5.21,2.93,7.07
			c1.86,1.86,4.44,2.93,7.07,2.93s5.21-1.07,7.07-2.93s2.93-4.44,2.93-7.07C266,461.12,264.93,458.55,263.07,456.69z"/>
	</g>
</g>
<g>
	<g>
		<path d="M111.07,197.58c-1.86-1.86-4.44-2.93-7.07-2.93s-5.21,1.07-7.07,2.93c-1.86,1.86-2.93,4.44-2.93,7.07s1.07,5.21,2.93,7.07
			c1.86,1.86,4.44,2.93,7.07,2.93s5.21-1.07,7.07-2.93s2.93-4.44,2.93-7.07S112.93,199.44,111.07,197.58z"/>
	</g>
</g>
<g>
	<g>
		<path d="M378.739,0H133.261C111.612,0,94,17.612,94,39.261V158c0,5.523,4.477,10,10,10s10-4.477,10-10V84h284v333.917h-20v-30.455
			c0-5.523-4.477-10-10-10s-10,4.477-10,10v30.455H114V245c0-5.523-4.477-10-10-10s-10,4.477-10,10v227.739
			C94,494.388,111.612,512,133.261,512H378.74c21.648,0,39.26-17.612,39.26-39.261V39.261C418,17.612,400.388,0,378.739,0z
			 M398,472.739C398,483.36,389.36,492,378.739,492H133.261C122.64,492,114,483.36,114,472.739v-34.823h284V472.739z M398,64H114
			V39.261C114,28.64,122.64,20,133.261,20H378.74C389.36,20,398,28.64,398,39.261V64z"/>
	</g>
</g>
<g>
	<g>
		<path d="M353,194.224l-92-53.116c-3.094-1.786-6.906-1.786-10,0l-92,53.116c-3.094,1.786-5,5.087-5,8.66v106.232
			c0,3.573,1.906,6.874,5,8.66l92,53.116c1.547,0.893,3.273,1.34,5,1.34s3.453-0.447,5-1.34l92-53.116c3.094-1.786,5-5.087,5-8.66
			V202.884C358,199.311,356.094,196.01,353,194.224z M246,344.912l-62-35.796l19.528-11.274c4.782-2.761,6.421-8.878,3.659-13.66
			c-2.761-4.784-8.878-6.422-13.66-3.66L174,291.796v-71.591L236,256l-11.645,6.723c-4.783,2.761-6.422,8.877-3.66,13.66
			c1.852,3.208,5.213,5.001,8.669,5.001c1.696,0,3.416-0.432,4.991-1.341L246,273.32V344.912z M256,215.489c-5.523,0-10,4.477-10,10
			v13.192l-62-35.796l62-35.796v19.399c0,5.522,4.477,9.999,10,9.999s10-4.477,10-10v-19.399l62,35.796l-62,35.796v-13.191
			C266,219.966,261.523,215.489,256,215.489z M338,291.796l-14.32-8.268c-4.782-2.761-10.898-1.123-13.66,3.66
			c-2.762,4.783-1.123,10.899,3.66,13.66l14.32,8.268l-62,35.796v-71.591l16.148,9.323c1.575,0.909,3.294,1.341,4.991,1.341
			c3.456,0,6.817-1.793,8.669-5.001c2.762-4.783,1.123-10.899-3.66-13.66L276,256l62-35.796V291.796z"/>
	</g>
</g>
<g>
</g>
<g>
</g>
<g>
</g>
<g>
</g>
<g>
</g>
<g>
</g>
<g>
</g>
<g>
</g>
<g>
</g>
<g>
</g>
<g>
</g>
<g>
</g>
<g>
</g>
<g>
</g>
<g>
</g>
</svg>
