<svg height="512pt" viewBox="0 0 512 512" width="512pt" xmlns="http://www.w3.org/2000/svg"><path d="m216 309c5.519531 0 10-4.480469 10-10s-4.480469-10-10-10-10 4.480469-10 10 4.480469 10 10 10zm0 0"/><path d="m156 309c5.519531 0 10-4.480469 10-10s-4.480469-10-10-10-10 4.480469-10 10 4.480469 10 10 10zm0 0"/><path d="m96 309c5.519531 0 10-4.480469 10-10s-4.480469-10-10-10-10 4.480469-10 10 4.480469 10 10 10zm0 0"/><path d="m30 269c5.519531 0 10-4.480469 10-10s-4.480469-10-10-10-10 4.480469-10 10 4.480469 10 10 10zm0 0"/><path d="m40 472h26c0 22.054688 17.945312 40 40 40s40-17.945312 40-40h180c0 22.054688 17.945312 40 40 40s40-17.945312 40-40h26c22.054688 0 40-17.945312 40-40 0-14.4375-7.804688-27.585938-20-34.640625v-131.359375h30c16.542969 0 30-13.457031 30-30s-13.457031-30-30-30h-30v-10c0-27.570312-22.429688-50-50-50h-16v-71.355469c12.199219-7.054687 20-20.207031 20-34.644531 0-22.054688-17.945312-40-40-40-7.667969 0-248.007812 0-260 0-22.054688 0-40 17.945312-40 40 0 14.4375 7.800781 27.589844 20 34.644531v71.355469h-16c-27.570312 0-50 22.429688-50 50v23c0 5.523438 4.476562 10 10 10s10-4.476562 10-10v-23c0-16.542969 13.457031-30 30-30h332c16.542969 0 30 13.457031 30 30v196h-392v-93c0-5.523438-4.476562-10-10-10s-10 4.476562-10 10v98.363281c-12.195312 7.050781-20 20.199219-20 34.636719 0 22.054688 17.945312 40 40 40zm346-432c0 8.460938-5.359375 16.042969-13.335938 18.863281-3.992187 1.410157-6.664062 5.1875-6.664062 9.425781v77.710938h-60v-71.355469c12.199219-7.054687 20-20.207031 20-34.644531 0-7.28125-1.964844-14.113281-5.382812-20h45.382812c11.027344 0 20 8.972656 20 20zm-286.664062 18.863281c-7.976563-2.820312-13.335938-10.402343-13.335938-18.863281 0-11.027344 8.972656-20 20-20h180c11.027344 0 20 8.972656 20 20 0 8.460938-5.359375 16.042969-13.335938 18.863281-3.992187 1.410157-6.664062 5.1875-6.664062 9.425781v77.710938h-77.574219l37.074219-37.066406c3.90625-3.90625 3.90625-10.238282 0-14.144532-3.902344-3.90625-10.234375-3.90625-14.140625 0l-51.222656 51.210938h-74.136719v-77.710938c0-4.234374-2.671875-8.015624-6.664062-9.425781zm6.664062 433.136719c-11.027344 0-20-8.980469-20-20.011719h40c0 11.03125-8.972656 20.011719-20 20.011719zm260 0c-11.027344 0-20-8.980469-20-20.011719h40c0 11.03125-8.972656 20.011719-20 20.011719zm116-266c5.515625 0 10 4.484375 10 10s-4.484375 10-10 10h-30v-20zm-442 186h392c11.125 0 20 9.046875 20 20 0 11.027344-8.972656 20-20 20h-392c-11.027344 0-20-8.972656-20-20 0-10.925781 8.847656-20 20-20zm0 0"/><path d="m356 266c16.542969 0 30-13.457031 30-30s-13.457031-30-30-30-30 13.457031-30 30 13.457031 30 30 30zm0-40c5.515625 0 10 4.484375 10 10s-4.484375 10-10 10-10-4.484375-10-10 4.484375-10 10-10zm0 0"/><path d="m356 369c16.542969 0 30-13.457031 30-30s-13.457031-30-30-30-30 13.457031-30 30 13.457031 30 30 30zm0-40c5.515625 0 10 4.484375 10 10s-4.484375 10-10 10-10-4.484375-10-10 4.484375-10 10-10zm0 0"/><path d="m86 359c0 5.523438 4.476562 10 10 10s10-4.476562 10-10v-20c0-5.523438-4.476562-10-10-10s-10 4.476562-10 10zm0 0"/><path d="m146 359c0 5.523438 4.476562 10 10 10s10-4.476562 10-10v-20c0-5.523438-4.476562-10-10-10s-10 4.476562-10 10zm0 0"/><path d="m206 359c0 5.523438 4.476562 10 10 10s10-4.476562 10-10v-20c0-5.523438-4.476562-10-10-10s-10 4.476562-10 10zm0 0"/><path d="m174.792969 123.070312 42.417969-42.429687c3.90625-3.90625 3.90625-10.238281 0-14.144531-3.90625-3.902344-10.234376-3.902344-14.140626.003906l-42.421874 42.429688c-3.90625 3.90625-3.902344 10.234374 0 14.140624 3.90625 3.90625 10.238281 3.90625 14.144531 0zm0 0"/></svg>