<svg id="icons" enable-background="new 0 0 64 64" height="512" viewBox="0 0 64 64" width="512" xmlns="http://www.w3.org/2000/svg"><path d="m18.5 63.993c2.826 0 5.349-1.312 7-3.355v.373c0 .001.001.003.001.004.004 1.65 1.348 2.992 2.999 2.992.002 0 .003-.001.005-.001h23.495c1.379 0 2.5-1.121 2.5-2.5 0-1.208-.86-2.217-2-2.449v-14.062-15.002-14.999c0-.552-.447-1-1-1h-8.994c-.002 0-.003-.001-.005-.001s-.003.001-.005.001h-11.997v-11.496c0-.002.001-.003.001-.005 0-1.378-1.121-2.5-2.5-2.5s-2.5 1.122-2.5 2.5v5.964l-7.734-7.732c-.975-.975-2.561-.975-3.535 0-.473.472-.732 1.1-.732 1.768s.26 1.295.732 1.768l3.562 3.56h.001l7.707 7.705v23.053l-7.437 7.437c-4.76.229-8.563 4.162-8.563 8.978-.001 4.962 4.036 8.999 8.999 8.999zm21.001-47.999h2v1.999h-1.001-.999zm-9.002 0h7.002v2.999c0 .552.447 1 1 1h1.999 2.001c.553 0 1-.448 1-1v-2.999h6.999v12.999h-20.001zm11.002 14.999v2h-1.001-.999v-2zm-11.002 0h7.002v2.999c0 .553.447 1 1 1l1.998.001h.001s0 0 .001 0l2-.001c.553 0 1-.447 1-1v-2.999h6.999v13.002h-7.989c-.004 0-.007-.002-.01-.002s-.006.002-.01.002h-3.985c-.002 0-.003-.001-.005-.001s-.003.001-.005.001h-7.997zm11.002 15.002v1.997l-1.001.001-.999-.001v-1.997zm-11.002 0h7.002v2.997c0 .553.447 1 1 1l1.998.001h.001s0 0 .001 0l2-.001c.553 0 1-.447 1-1v-2.997h6.999v12.998h-20.001zm-2.999-43.502c0-.276.225-.5.5-.5.274 0 .498.223.5.498 0 .001-.001.001-.001.002v12.501 14.999 15.002 14.998c0 .427.269.784.645.929.122.054.257.085.399.085h22.457c.001 0 .002-.001.002-.001.274.002.498.226.498.5 0 .275-.225.5-.5.5h-23.5c-.001 0-.002 0-.002 0-.551-.001-.998-.448-.998-.999zm-9.001 3.207-2.854-2.854c-.194-.195-.194-.512 0-.707.195-.194.512-.194.707 0l2.854 2.854zm1.414 1.414.707-.707 4.88 4.878v1.414zm5.587 34.293v7.941c-1.219-1.509-2.914-2.609-4.855-3.086zm-7 6.586c3.859 0 7 3.141 7 7s-3.141 7-7 7-7-3.141-7-7 3.141-7 7-7z"/><path d="m18.5 58.993c2.206 0 4-1.794 4-4s-1.794-4-4-4-4 1.794-4 4 1.794 4 4 4zm0-6c1.103 0 2 .897 2 2s-.897 2-2 2-2-.897-2-2 .897-2 2-2z"/></svg>