<svg viewBox="0 -52 511.9993 511" xmlns="http://www.w3.org/2000/svg"><path d="m7.65625 319.957031 35.503906 8.554688c.769532.183593 1.554688.277343 2.34375.277343h202.664063c5.523437 0 10-4.480468 10-10v-269.289062c0-5.519531-4.476563-10-10-10-5.523438 0-10 4.480469-10 10v156.269531h-9.601563c-19.277344 0-38.507812-4.296875-55.976562-12.445312l-8.511719-144.410157c-.328125-5.511718-5.074219-9.726562-10.574219-9.394531-5.511718.324219-9.71875 5.058594-9.390625 10.570313l8.4375 143.121094-69.15625 28.5625c-1.949219.804687-3.957031 1.40625-6 1.804687-.03125.007813-.058593.011719-.089843.015625-1.945313.375-3.929688.566406-5.9375.566406-.015626 0-.03125 0-.046876 0l-15.328124-.019531c-.023438 0-.046876 0-.074219 0-21.976563 0-41.640625 13.917969-48.941407 34.65625l-6.410156 18.210937c-.378906 1.078126-.5546872 2.199219-.5546872 3.320313-.0039063 0-.00781255 0-.0117188 0v29.910156c0 4.621094 3.164062 8.636719 7.65625 9.71875zm39.035156-11.167969-26.691406-6.429687v-9.097656l22.246094 5.789062c.820312.214844 1.667968.320313 2.519531.320313h193.402344v9.417968zm-20.851562-43.351562c4.488281-12.746094 16.570312-21.300781 30.078125-21.300781h.046875l15.328125.023437h.074219c1.441406 0 2.871093-.074218 4.296874-.191406l15.574219 15.578125c1.953125 1.949219 4.511719 2.925781 7.070313 2.925781s5.121094-.976562 7.070312-2.925781c3.90625-3.90625 3.90625-10.238281 0-14.144531l-7.832031-7.835938 12.484375-5.15625 15.691406 15.691406c1.953125 1.953126 4.511719 2.929688 7.070313 2.929688 2.558593 0 5.117187-.976562 7.070312-2.929688 3.90625-3.902343 3.90625-10.234374 0-14.140624l-9.816406-9.816407 9.390625-3.878906 15.515625 15.515625c1.953125 1.953125 4.511719 2.929688 7.070313 2.929688 2.558593 0 5.117187-.976563 7.070312-2.929688 3.90625-3.902344 3.90625-10.234375 0-14.140625l-9.640625-9.640625 3.105469-1.285156c20.519531 9.859375 43.238281 15.054687 66.007812 15.054687h9.601563v53.601563h-192.125l-23-5.984375zm0 0"/><path d="m272.53125 322.492188c.210938 1.121093.617188 2.183593 1.175781 3.152343 0 0-.003906.003907-.007812.003907l14.957031 25.902343c1.820312 3.15625 5.15625 5.003907 8.660156 5.003907.941406 0 1.894532-.136719 2.832032-.410157l35.023437-10.347656c.753906-.222656 1.484375-.535156 2.164063-.929687l161.644531-93.328126c6.019531-3.472656 10.324219-9.082031 12.121093-15.792968 1.796876-6.710938.875-13.722656-2.597656-19.738282l-6.703125-11.609374-36.382812-63.011719-50.054688-134.375c-1.925781-5.175781-7.683593-7.808594-12.859375-5.878907-5.175781 1.925782-7.808594 7.683594-5.882812 12.859376l47.398437 127.234374-9.652343 5.570313c-16.367188 9.449219-34.757813 15.300781-53.5625 17.105469l-52.808594-118.472656c-2.25-5.042969-8.160156-7.3125-13.203125-5.0625s-7.3125 8.160156-5.0625 13.207031l53.234375 119.429687-46.320313 60.242188c-1.277343 1.65625-2.699219 3.171875-4.253906 4.53125-.042969.03125-.082031.0625-.121094.097656-1.507812 1.300781-3.136719 2.464844-4.886719 3.46875l-13.285156 7.648438c-19.074218 10.976562-29.171875 32.890624-25.117187 54.523437zm219.253906-91.921876c-.417968 1.550782-1.410156 2.847657-2.804687 3.652344l-160.613281 92.730469-26.332032 7.777344-4.546875-7.878907 22.15625-6.109374c.820313-.230469 1.609375-.558594 2.34375-.980469l167.492188-96.703125 1.703125 2.949218c.804687 1.390626 1.015625 3.011719.601562 4.5625zm-187.714844 35.757813 13.285157-7.648437c1.273437-.730469 2.5-1.519532 3.695312-2.347657l21.273438 5.699219c.867187.234375 1.738281.34375 2.59375.34375 4.417969 0 8.457031-2.945312 9.65625-7.414062 1.429687-5.332032-1.738281-10.816407-7.074219-12.246094l-10.703125-2.867188 8.238281-10.710937 21.433594 5.742187c.867188.234375 1.738281.347656 2.59375.347656 4.414062 0 8.457031-2.949218 9.652344-7.417968 1.429687-5.332032-1.734375-10.816406-7.070313-12.246094l-13.410156-3.59375 6.195313-8.050781 21.195312 5.679687c.867188.230469 1.738281.34375 2.59375.34375 4.414062 0 8.457031-2.949218 9.652344-7.417968 1.429687-5.332032-1.734375-10.816407-7.070313-12.246094l-13.171875-3.527344 2.050782-2.664062c22.699218-1.71875 44.96875-8.582032 64.691406-19.96875l8.3125-4.800782 26.800781 46.421875-166.386719 96.0625-22.90625 6.316407-1.554687-8.285157c-2.492188-13.296875 3.710937-26.757812 15.433593-33.503906zm0 0"/><path d="m108.664062 370.398438h-98.664062c-5.523438 0-10 4.480468-10 10 0 5.523437 4.476562 10 10 10h98.664062c5.523438 0 10-4.476563 10-10 0-5.519532-4.476562-10-10-10zm0 0"/><path d="m158.996094 370.398438c-2.628906 0-5.207032 1.070312-7.070313 2.929687-1.859375 1.859375-2.929687 4.4375-2.929687 7.070313 0 2.628906 1.070312 5.210937 2.929687 7.070312 1.863281 1.859375 4.441407 2.929688 7.070313 2.929688 2.632812 0 5.210937-1.070313 7.070312-2.929688s2.929688-4.441406 2.929688-7.070312c0-2.632813-1.070313-5.210938-2.929688-7.070313s-4.4375-2.929687-7.070312-2.929687zm0 0"/><path d="m501.953125 347.335938h-98.664063c-5.523437 0-10 4.480468-10 10 0 5.523437 4.476563 10 10 10h98.664063c5.523437 0 10-4.476563 10-10 0-5.519532-4.476563-10-10-10zm0 0"/><path d="m354.660156 387.398438h-98.664062c-5.523438 0-10 4.480468-10 10 0 5.523437 4.476562 10 10 10h98.664062c5.523438 0 10-4.476563 10-10 0-5.519532-4.476562-10-10-10zm0 0"/></svg>