<?xml version="1.0"?>
<svg xmlns="http://www.w3.org/2000/svg" xmlns:xlink="http://www.w3.org/1999/xlink" version="1.1" id="Capa_1" x="0px" y="0px" viewBox="0 0 512 512" style="enable-background:new 0 0 512 512;" xml:space="preserve" width="512px" height="512px"><g><g>
	<g>
		<path d="M502,0H10C4.478,0,0,4.477,0,10v368c0,5.523,4.478,10,10,10h48.621c5.522,0,10-4.477,10-10s-4.478-10-10-10H20v-51.833    h472V368H132.899c-5.522,0-10,4.477-10,10s4.478,10,10,10H197v63.938h-42.333c-5.522,0-10,4.477-10,10V502c0,5.523,4.478,10,10,10    h202.666c5.522,0,10-4.477,10-10v-40.063c0-5.523-4.478-10-10-10H313V388h189c5.522,0,10-4.477,10-10V10    C512,4.477,507.522,0,502,0z M217,388h76v63.938h-76V388z M347.333,471.937V492H164.667v-20.063H347.333z M492,296.167H20V20h472    V296.167z" data-original="#000000" class="active-path" data-old_color="#000000" fill="#2978CC"/>
	</g>
</g><g>
	<g>
		<path d="M102.83,370.93c-1.86-1.86-4.44-2.93-7.07-2.93s-5.21,1.07-7.07,2.93c-1.859,1.86-2.93,4.44-2.93,7.07    s1.07,5.21,2.93,7.07c1.86,1.86,4.44,2.93,7.07,2.93s5.21-1.07,7.07-2.93c1.859-1.86,2.93-4.44,2.93-7.07    S104.69,372.79,102.83,370.93z" data-original="#000000" class="active-path" data-old_color="#000000" fill="#2978CC"/>
	</g>
</g><g>
	<g>
		<path d="M263.069,335.08c-1.859-1.86-4.439-2.93-7.069-2.93s-5.21,1.07-7.07,2.93s-2.93,4.44-2.93,7.07    c0,2.64,1.069,5.21,2.93,7.08c1.86,1.86,4.44,2.93,7.07,2.93s5.21-1.07,7.069-2.93c1.86-1.87,2.931-4.44,2.931-7.08    C266,339.52,264.93,336.94,263.069,335.08z" data-original="#000000" class="active-path" data-old_color="#000000" fill="#2978CC"/>
	</g>
</g><g>
	<g>
		<path d="M146,84.062c-5.522,0-10,4.477-10,10v12.542c0,5.522,4.478,10,10,10c5.522,0,10-4.477,10-10V94.062    C156,88.539,151.522,84.062,146,84.062z" data-original="#000000" class="active-path" data-old_color="#000000" fill="#2978CC"/>
	</g>
</g><g>
	<g>
		<path d="M247,93.998l-96-55.426c-3.094-1.786-6.906-1.786-10,0L45,93.998c-3.094,1.786-5,5.087-5,8.66v110.851    c0,3.573,1.906,6.874,5,8.66l96,55.426c1.547,0.893,3.273,1.34,5,1.34s3.453-0.447,5-1.34l96-55.426c3.094-1.786,5-5.087,5-8.66    V102.658C252,99.085,250.094,95.784,247,93.998z M136,251.614l-66.058-38.139c4.086-2.971,5.352-8.607,2.77-13.079    c-2.581-4.472-8.096-6.194-12.712-4.141v-76.27l65.957,38.123l-3.488,2.014c-4.783,2.761-6.422,8.877-3.66,13.66    c1.852,3.208,5.213,5.001,8.67,5.001c1.696,0,3.415-0.432,4.99-1.341l3.531-2.039V251.614z M146,126.946c-5.522,0-10,4.477-10,10    v3.867l-66.007-38.152l66.048-38.133c0.413,5.144,4.71,9.191,9.959,9.191c5.249,0,9.546-4.047,9.959-9.19l66.048,38.133    L156,140.813v-3.867C156,131.423,151.522,126.946,146,126.946z M232,196.255c-4.617-2.052-10.13-0.331-12.712,4.141    c-2.582,4.472-1.316,10.108,2.77,13.08L156,251.614v-76.21l3.531,2.039c1.575,0.91,3.294,1.341,4.99,1.341    c3.456,0,6.818-1.793,8.67-5.001c2.762-4.783,1.123-10.899-3.66-13.66l-3.488-2.014L232,119.985V196.255z" data-original="#000000" class="active-path" data-old_color="#000000" fill="#2978CC"/>
	</g>
</g><g>
	<g>
		<path d="M206.67,181.564l-10.861-6.271c-4.784-2.762-10.898-1.122-13.66,3.66c-2.762,4.783-1.123,10.899,3.66,13.66l10.861,6.271    c1.575,0.909,3.294,1.341,4.99,1.341c3.456,0,6.817-1.793,8.67-5.001C213.092,190.442,211.453,184.326,206.67,181.564z" data-original="#000000" class="active-path" data-old_color="#000000" fill="#2978CC"/>
	</g>
</g><g>
	<g>
		<path d="M109.851,178.954c-2.761-4.782-8.877-6.421-13.66-3.66l-10.861,6.271c-4.783,2.761-6.422,8.877-3.66,13.66    c1.852,3.208,5.213,5.001,8.67,5.001c1.696,0,3.416-0.432,4.99-1.341l10.861-6.271    C110.974,189.853,112.613,183.737,109.851,178.954z" data-original="#000000" class="active-path" data-old_color="#000000" fill="#2978CC"/>
	</g>
</g><g>
	<g>
		<path d="M310,73c-5.522,0-10,4.477-10,10v192.181c0,5.523,4.478,10,10,10c5.522,0,10-4.477,10-10V83C320,77.477,315.522,73,310,73    z" data-original="#000000" class="active-path" data-old_color="#000000" fill="#2978CC"/>
	</g>
</g><g>
	<g>
		<path d="M317.069,41.21c-1.859-1.86-4.439-2.92-7.069-2.92s-5.21,1.06-7.07,2.92c-1.86,1.86-2.93,4.44-2.93,7.08    c0,2.63,1.069,5.21,2.93,7.07c1.861,1.86,4.44,2.93,7.07,2.93s5.21-1.07,7.069-2.93c1.86-1.86,2.931-4.44,2.931-7.07    C320,45.65,318.93,43.08,317.069,41.21z" data-original="#000000" class="active-path" data-old_color="#000000" fill="#2978CC"/>
	</g>
</g><g>
	<g>
		<path d="M452.847,195.609l-42-23.271c-3.016-1.671-6.678-1.671-9.693,0l-42,23.271c-3.18,1.762-5.153,5.111-5.153,8.747v46.541    c0,3.636,1.974,6.985,5.153,8.747l42,23.27c1.508,0.835,3.178,1.253,4.847,1.253c1.669,0,3.339-0.417,4.847-1.253l42-23.27    c3.18-1.762,5.153-5.111,5.153-8.747v-46.541C458,200.72,456.026,197.371,452.847,195.609z M374,210.247l22-12.189v23.676    l-22,12.189V210.247z M406,262.734l-21.366-11.838L406,239.058l21.366,11.838L406,262.734z M438,233.923l-22-12.189v-23.676    l22,12.189V233.923z" data-original="#000000" class="active-path" data-old_color="#000000" fill="#2978CC"/>
	</g>
</g><g>
	<g>
		<path d="M452.847,70.528l-42-23.271c-3.016-1.671-6.678-1.671-9.693,0l-42,23.271c-3.18,1.762-5.153,5.111-5.153,8.747v46.541    c0,3.636,1.974,6.985,5.153,8.747l42,23.27c1.508,0.835,3.178,1.253,4.847,1.253c1.669,0,3.339-0.417,4.847-1.253l42-23.27    c3.18-1.762,5.153-5.111,5.153-8.747V79.275C458,75.639,456.026,72.29,452.847,70.528z M396,132.113l-22-12.189V96.248l22,12.189    V132.113z M406,91.113l-21.366-11.838L406,67.437l21.366,11.838L406,91.113z M438,119.924l-22,12.189v-23.676l22-12.189V119.924z" data-original="#000000" class="active-path" data-old_color="#000000" fill="#2978CC"/>
	</g>
</g></g> </svg>
