<?xml version="1.0"?>
<svg xmlns="http://www.w3.org/2000/svg" id="Layer_3" enable-background="new 0 0 64 64" height="512px" viewBox="0 0 64 64" width="512px" class=""><g><g><g><circle cx="54" cy="10" fill="#3d98f7" r="8" data-original="#3D98F7" class="active-path" style="fill:#80B3EA" data-old_color="#3d98f7"/></g><g><path d="m25 20h-2c-1.657 0-3-1.343-3-3 0-1.657 1.343-3 3-3h2" fill="#db9b7c" data-original="#DB9B7C" class=""/></g><g><path d="m39 14h2c1.657 0 3 1.343 3 3 0 1.657-1.343 3-3 3h-2" fill="#db9b7c" data-original="#DB9B7C" class=""/></g><g><path d="m47 40v-4c0-5.523-4.477-10-10-10h-10c-5.523 0-10 4.477-10 10v4z" fill="#2b74ca" data-original="#2B74CA" class="" style="fill:#2978CC" data-old_color="#2b74ca"/></g><g><path d="m39 26-2 10-5-5-5 5-2-10" fill="#3d98f7" data-original="#3D98F7" class="active-path" style="fill:#80B3EA" data-old_color="#3d98f7"/></g><g><path d="m40 7v11c0 4.418-3.582 8-8 8-4.418 0-8-3.582-8-8v-11" fill="#efbe9a" data-original="#EFBE9A" class=""/></g><g><path d="m34 7v1c0 3.314-2.686 6-6 6h-6v-5c0-3.866 3.134-7 7-7h6c3.866 0 7 3.134 7 7v5h-5c-1.657 0-3-1.343-3-3z" fill="#976947" data-original="#976947" class=""/></g><g><path d="m28 26 4 5 4-5" fill="#efbe9a" data-original="#EFBE9A" class=""/></g><g><path d="m10 42h-2c-1.657 0-3-1.343-3-3 0-1.657 1.343-3 3-3h2" fill="#db9b7c" data-original="#DB9B7C" class=""/></g><g><path d="m24 36h2c1.657 0 3 1.343 3 3 0 1.657-1.343 3-3 3h-2" fill="#db9b7c" data-original="#DB9B7C" class=""/></g><g><path d="m32 62v-4c0-5.523-4.477-10-10-10h-10c-5.523 0-10 4.477-10 10v4z" fill="#2b74ca" data-original="#2B74CA" class="" style="fill:#2978CC" data-old_color="#2b74ca"/></g><g><path d="m24 48-2 10-5-5-5 5-2-10" fill="#3d98f7" data-original="#3D98F7" class="active-path" style="fill:#80B3EA" data-old_color="#3d98f7"/></g><g><path d="m25 29v11c0 4.418-3.582 8-8 8-4.418 0-8-3.582-8-8v-11" fill="#efbe9a" data-original="#EFBE9A" class=""/></g><g><path d="m19 29v1c0 3.314-2.686 6-6 6h-6v-5c0-3.866 3.134-7 7-7h6c3.866 0 7 3.134 7 7v5h-5c-1.657 0-3-1.343-3-3z" fill="#976947" data-original="#976947" class=""/></g><g><path d="m13 48 4 5 4-5" fill="#efbe9a" data-original="#EFBE9A" class=""/></g><g><path d="m40 42h-2c-1.657 0-3-1.343-3-3 0-1.657 1.343-3 3-3h2" fill="#db9b7c" data-original="#DB9B7C" class=""/></g><g><path d="m54 36h2c1.657 0 3 1.343 3 3 0 1.657-1.343 3-3 3h-2" fill="#db9b7c" data-original="#DB9B7C" class=""/></g><g><path d="m62 62v-4c0-5.523-4.477-10-10-10h-10c-5.523 0-10 4.477-10 10v4z" fill="#2b74ca" data-original="#2B74CA" class="" style="fill:#2978CC" data-old_color="#2b74ca"/></g><g><path d="m54 48-2 10-5-5-5 5-2-10" fill="#3d98f7" data-original="#3D98F7" class="active-path" style="fill:#80B3EA" data-old_color="#3d98f7"/></g><g><path d="m55 29v11c0 4.418-3.582 8-8 8-4.418 0-8-3.582-8-8v-11" fill="#efbe9a" data-original="#EFBE9A" class=""/></g><g><path d="m49 29v1c0 3.314-2.686 6-6 6h-6v-5c0-3.866 3.134-7 7-7h6c3.866 0 7 3.134 7 7v5h-5c-1.657 0-3-1.343-3-3z" fill="#976947" data-original="#976947" class=""/></g><g><path d="m43 48 4 5 4-5" fill="#efbe9a" data-original="#EFBE9A" class=""/></g><g><path d="m28 15h-6v-2h6c2.757 0 5-2.243 5-5v-1h2v1c0 3.86-3.14 7-7 7z" data-original="#000000" class="" style="fill:#000000"/></g><g><path d="m32 27c-4.962 0-9-4.038-9-9v-4h2v4c0 3.86 3.14 7 7 7s7-3.14 7-7v-4h2v4c0 4.962-4.038 9-9 9z" data-original="#000000" class="" style="fill:#000000"/></g><g><path d="m42 15h-5c-2.206 0-4-1.794-4-4v-4h2v4c0 1.103.897 2 2 2h5z" data-original="#000000" class="" style="fill:#000000"/></g><g><path d="m24 21h-1c-2.206 0-4-1.794-4-4s1.794-4 4-4h1v2h-1c-1.103 0-2 .897-2 2s.897 2 2 2h1z" data-original="#000000" class="" style="fill:#000000"/></g><g><path d="m41 21h-1v-2h1c1.103 0 2-.897 2-2s-.897-2-2-2h-1v-2h1c2.206 0 4 1.794 4 4s-1.794 4-4 4z" data-original="#000000" class="" style="fill:#000000"/></g><g><path d="m43 14h-2v-5c0-3.309-2.691-6-6-6h-6c-3.309 0-6 2.691-6 6v5h-2v-5c0-4.411 3.589-8 8-8h6c4.411 0 8 3.589 8 8z" data-original="#000000" class="" style="fill:#000000"/></g><g><path d="m38.801 27.18c-.588-.119-1.194-.18-1.801-.18h-10c-.607 0-1.213.061-1.801.18l-.398-1.96c.719-.146 1.458-.22 2.199-.22h10c.741 0 1.48.074 2.199.22z" data-original="#000000" class="" style="fill:#000000"/></g><g><path d="m29 39h6v2h-6z" data-original="#000000" class="" style="fill:#000000"/></g><g><path d="m32 32c-.304 0-.591-.138-.781-.375l-4-5 1.562-1.249 3.219 4.023 3.219-4.024 1.562 1.249-4 5c-.19.238-.477.376-.781.376z" data-original="#000000" class="" style="fill:#000000"/></g><g><path d="m13 37h-6v-2h6c2.757 0 5-2.243 5-5v-1h2v1c0 3.86-3.14 7-7 7z" data-original="#000000" class="" style="fill:#000000"/></g><g><path d="m17 49c-4.962 0-9-4.038-9-9v-4h2v4c0 3.86 3.14 7 7 7s7-3.14 7-7v-4h2v4c0 4.962-4.038 9-9 9z" data-original="#000000" class="" style="fill:#000000"/></g><g><path d="m27 37h-5c-2.206 0-4-1.794-4-4v-4h2v4c0 1.103.897 2 2 2h5z" data-original="#000000" class="" style="fill:#000000"/></g><g><path d="m9 43h-1c-2.206 0-4-1.794-4-4s1.794-4 4-4h1v2h-1c-1.103 0-2 .897-2 2s.897 2 2 2h1z" data-original="#000000" class="" style="fill:#000000"/></g><g><path d="m26 43h-1v-2h1c1.103 0 2-.897 2-2s-.897-2-2-2h-1v-2h1c2.206 0 4 1.794 4 4s-1.794 4-4 4z" data-original="#000000" class="" style="fill:#000000"/></g><g><path d="m28 36h-2v-5c0-3.309-2.691-6-6-6h-6c-3.309 0-6 2.691-6 6v5h-2v-5c0-4.411 3.589-8 8-8h6c4.411 0 8 3.589 8 8z" data-original="#000000" class="" style="fill:#000000"/></g><g><path d="m32 63h-30c-.552 0-1-.448-1-1v-4c0-6.065 4.935-11 11-11h10c6.065 0 11 4.935 11 11v4c0 .552-.448 1-1 1zm-29-2h28v-3c0-4.962-4.038-9-9-9h-10c-4.962 0-9 4.038-9 9z" data-original="#000000" class="" style="fill:#000000"/></g><g><path d="m17 54c-.304 0-.591-.138-.781-.375l-4-5 1.562-1.249 3.219 4.023 3.219-4.024 1.562 1.249-4 5c-.19.238-.477.376-.781.376z" data-original="#000000" class="" style="fill:#000000"/></g><g><path d="m12 59c-.097 0-.194-.014-.29-.043-.353-.107-.619-.399-.691-.761l-2-10 1.961-.393 1.634 8.168 3.679-3.679 1.414 1.414-5 5c-.19.191-.446.294-.707.294z" data-original="#000000" class="" style="fill:#000000"/></g><g><path d="m22 59c-.261 0-.517-.103-.707-.293l-5-5 1.414-1.414 3.679 3.679 1.634-8.168 1.961.393-2 10c-.072.361-.338.654-.691.761-.096.028-.193.042-.29.042z" data-original="#000000" class="" style="fill:#000000"/></g><g><path d="m43 37h-6v-2h6c2.757 0 5-2.243 5-5v-1h2v1c0 3.86-3.14 7-7 7z" data-original="#000000" class="" style="fill:#000000"/></g><g><path d="m47 49c-4.962 0-9-4.038-9-9v-4h2v4c0 3.86 3.14 7 7 7s7-3.14 7-7v-4h2v4c0 4.962-4.038 9-9 9z" data-original="#000000" class="" style="fill:#000000"/></g><g><path d="m57 37h-5c-2.206 0-4-1.794-4-4v-4h2v4c0 1.103.897 2 2 2h5z" data-original="#000000" class="" style="fill:#000000"/></g><g><path d="m39 43h-1c-2.206 0-4-1.794-4-4s1.794-4 4-4h1v2h-1c-1.103 0-2 .897-2 2s.897 2 2 2h1z" data-original="#000000" class="" style="fill:#000000"/></g><g><path d="m56 43h-1v-2h1c1.103 0 2-.897 2-2s-.897-2-2-2h-1v-2h1c2.206 0 4 1.794 4 4s-1.794 4-4 4z" data-original="#000000" class="" style="fill:#000000"/></g><g><path d="m58 36h-2v-5c0-3.309-2.691-6-6-6h-6c-3.309 0-6 2.691-6 6v5h-2v-5c0-4.411 3.589-8 8-8h6c4.411 0 8 3.589 8 8z" data-original="#000000" class="" style="fill:#000000"/></g><g><path d="m62 63h-30c-.552 0-1-.448-1-1v-4c0-6.065 4.935-11 11-11h10c6.065 0 11 4.935 11 11v4c0 .552-.448 1-1 1zm-29-2h28v-3c0-4.962-4.038-9-9-9h-10c-4.962 0-9 4.038-9 9z" data-original="#000000" class="" style="fill:#000000"/></g><g><path d="m47 54c-.304 0-.591-.138-.781-.375l-4-5 1.562-1.249 3.219 4.023 3.219-4.024 1.562 1.249-4 5c-.19.238-.477.376-.781.376z" data-original="#000000" class="" style="fill:#000000"/></g><g><path d="m42 59c-.097 0-.194-.014-.29-.043-.353-.107-.619-.399-.691-.761l-2-10 1.961-.393 1.634 8.168 3.679-3.679 1.414 1.414-5 5c-.19.191-.446.294-.707.294z" data-original="#000000" class="" style="fill:#000000"/></g><g><path d="m52 59c-.261 0-.517-.103-.707-.293l-5-5 1.414-1.414 3.679 3.679 1.634-8.168 1.961.393-2 10c-.072.361-.338.654-.691.761-.096.028-.193.042-.29.042z" data-original="#000000" class="" style="fill:#000000"/></g><g><path d="m54 19c-4.962 0-9-4.038-9-9s4.038-9 9-9 9 4.038 9 9-4.038 9-9 9zm0-16c-3.86 0-7 3.14-7 7s3.14 7 7 7 7-3.14 7-7-3.14-7-7-7z" data-original="#000000" class="" style="fill:#000000"/></g><g><path d="m53 5h2v10h-2z" data-original="#000000" class="" style="fill:#000000"/></g><g><path d="m49 9h10v2h-10z" data-original="#000000" class="" style="fill:#000000"/></g></g></g> </svg>
