<?xml version="1.0"?>
<svg xmlns="http://www.w3.org/2000/svg" xmlns:xlink="http://www.w3.org/1999/xlink" version="1.1" id="Capa_1" x="0px" y="0px" width="512px" height="512px" viewBox="0 0 459 459" style="enable-background:new 0 0 459 459;" xml:space="preserve"><g><g>
	<g id="time-to-leave">
		<path d="M405.45,51c-5.101-15.3-20.4-25.5-35.7-25.5H89.25c-17.85,0-30.6,10.2-35.7,25.5L0,204v204c0,15.3,10.2,25.5,25.5,25.5H51    c15.3,0,25.5-10.2,25.5-25.5v-25.5h306V408c0,15.3,10.2,25.5,25.5,25.5h25.5c15.3,0,25.5-10.2,25.5-25.5V204L405.45,51z     M89.25,306C68.85,306,51,288.15,51,267.75s17.85-38.25,38.25-38.25s38.25,17.85,38.25,38.25S109.65,306,89.25,306z M369.75,306    c-20.4,0-38.25-17.85-38.25-38.25s17.85-38.25,38.25-38.25S408,247.35,408,267.75S390.15,306,369.75,306z M51,178.5L89.25,63.75    h280.5L408,178.5H51z" data-original="#000000" class="active-path" data-old_color="#000000" fill="#2978CC"/>
	</g>
</g></g> </svg>
