<svg height="488pt" viewBox="-4 0 488 488" width="488pt" xmlns="http://www.w3.org/2000/svg"><path d="m312 56h-32c0-13.253906-10.746094-24-24-24h-24v-8c0-13.253906-10.746094-24-24-24h-64c-13.253906 0-24 10.746094-24 24v8h-24c-13.253906 0-24 10.746094-24 24h-32c-22.082031.027344-39.9726562 17.917969-40 40v120c0 4.417969 3.582031 8 8 8s8-3.582031 8-8v-120c0-13.253906 10.746094-24 24-24h32v16h-32c-4.417969 0-8 3.582031-8 8v352c0 4.417969 3.582031 8 8 8h272c4.417969 0 8-3.582031 8-8v-352c0-4.417969-3.582031-8-8-8h-32v-16h32c13.253906 0 24 10.746094 24 24v352c0 13.253906-10.746094 24-24 24h-272c-13.253906 0-24-10.746094-24-24v-96c0-4.417969-3.582031-8-8-8s-8 3.582031-8 8v96c.0273438 22.082031 17.917969 39.972656 40 40h272c22.082031-.027344 39.972656-17.917969 40-40v-352c-.027344-22.082031-17.917969-39.972656-40-40zm-176-32c0-4.417969 3.582031-8 8-8h64c4.417969 0 8 3.582031 8 8v8h-80zm168 80v336h-256v-336h24c0 13.253906 10.746094 24 24 24h96c4.417969 0 8-3.582031 8-8s-3.582031-8-8-8h-96c-4.417969 0-8-3.582031-8-8v-48c0-4.417969 3.582031-8 8-8h160c4.417969 0 8 3.582031 8 8v48c0 4.417969-3.582031 8-8 8s-8 3.582031-8 8 3.582031 8 8 8c13.253906 0 24-10.746094 24-24zm0 0"/><path d="m248 80c0-4.417969-3.582031-8-8-8h-128c-4.417969 0-8 3.582031-8 8s3.582031 8 8 8h128c4.417969 0 8-3.582031 8-8zm0 0"/><path d="m249.535156 317.089844c-3.125-3.125-8.1875-3.125-11.3125 0l-39.589844 39.597656-16.976562-16.96875c-2.007812-2.078125-4.984375-2.914062-7.78125-2.179688-2.796875.730469-4.980469 2.914063-5.710938 5.710938-.734374 2.800781.101563 5.773438 2.179688 7.78125l22.632812 22.625c3.125 3.121094 8.1875 3.121094 11.3125 0l45.246094-45.257812c3.125-3.121094 3.125-8.1875 0-11.308594zm0 0"/><path d="m208 264c-44.183594 0-80 35.816406-80 80s35.816406 80 80 80c4.417969 0 8-3.582031 8-8s-3.582031-8-8-8c-30.53125 0-56.8125-21.570312-62.769531-51.515625-5.953125-29.945313 10.074219-59.929687 38.28125-71.613281 28.210937-11.683594 60.742187-1.8125 77.707031 23.574218 16.960938 25.386719 13.628906 59.222657-7.960938 80.8125-3.035156 3.136719-2.988281 8.125.09375 11.210938 3.085938 3.085938 8.078126 3.132812 11.214844.097656 22.882813-22.878906 29.726563-57.289062 17.34375-87.179687-12.382812-29.894531-41.554687-49.386719-73.910156-49.386719zm0 0"/><path d="m144 176h80c4.417969 0 8-3.582031 8-8s-3.582031-8-8-8h-80c-4.417969 0-8 3.582031-8 8s3.582031 8 8 8zm0 0"/><path d="m80 216h144c4.417969 0 8-3.582031 8-8s-3.582031-8-8-8h-144c-4.417969 0-8 3.582031-8 8s3.582031 8 8 8zm0 0"/><path d="m80 256h72c4.417969 0 8-3.582031 8-8s-3.582031-8-8-8h-72c-4.417969 0-8 3.582031-8 8s3.582031 8 8 8zm0 0"/><path d="m112 280h-32c-4.417969 0-8 3.582031-8 8s3.582031 8 8 8h32c4.417969 0 8-3.582031 8-8s-3.582031-8-8-8zm0 0"/><path d="m96 320h-16c-4.417969 0-8 3.582031-8 8s3.582031 8 8 8h16c4.417969 0 8-3.582031 8-8s-3.582031-8-8-8zm0 0"/><path d="m256 216h16c4.417969 0 8-3.582031 8-8s-3.582031-8-8-8h-16c-4.417969 0-8 3.582031-8 8s3.582031 8 8 8zm0 0"/><path d="m280 168c0 4.417969-3.582031 8-8 8s-8-3.582031-8-8 3.582031-8 8-8 8 3.582031 8 8zm0 0"/><path d="m472 128h-24v-24c0-4.417969-3.582031-8-8-8h-32v-24c0-4.417969 3.582031-8 8-8s8 3.582031 8 8 3.582031 8 8 8 8-3.582031 8-8c0-13.253906-10.746094-24-24-24s-24 10.746094-24 24v24c-4.417969 0-8 3.582031-8 8v232c0 .207031.105469.390625.121094.601562.015625.207032-.066406.351563-.042969.535157l7.921875 55.421875v23.441406c0 13.253906 10.746094 24 24 24s24-10.746094 24-24v-23.441406l7.921875-55.421875c0-.183594-.058594-.359375-.042969-.535157.015625-.175781.121094-.394531.121094-.601562v-160h16v72c0 4.417969 3.582031 8 8 8s8-3.582031 8-8v-112c0-4.417969-3.582031-8-8-8zm-40-16v16h-32v-16zm-6.9375 272h-18.125l-5.714844-40h29.554688zm-25.0625-240h32v16h-32zm24 272c0 4.417969-3.582031 8-8 8s-8-3.582031-8-8v-16h16zm8-88h-32v-152h32zm16-184h16v16h-16zm0 0"/></svg>