<?xml version="1.0"?>
<svg xmlns="http://www.w3.org/2000/svg" id="Capa_1" enable-background="new 0 0 511.999 511.999" height="512px" viewBox="0 0 511.999 511.999" width="512px"><g><g><path d="m434.711 248.507c4.143 0 7.5-3.357 7.5-7.5v-172.345c0-11.243-9.146-20.39-20.39-20.39h-69.494c-.233-7.812-6.645-14.099-14.512-14.099h-39.505c-.022-.009-.124-.087-.166-.278-4.294-19.64-22.018-33.895-42.144-33.895-20.125 0-37.85 14.255-42.145 33.895-.042.192-.144.271-.178.279h-39.494c-7.868 0-14.279 6.287-14.512 14.099h-69.493c-11.243 0-20.39 9.146-20.39 20.39v422.947c0 11.243 9.146 20.39 20.39 20.39h331.644c11.243 0 20.39-9.146 20.39-20.39v-220.617c0-4.143-3.357-7.5-7.5-7.5s-7.5 3.357-7.5 7.5v220.616c0 2.972-2.418 5.39-5.39 5.39h-331.644c-2.972 0-5.39-2.418-5.39-5.39v-422.947c0-2.972 2.418-5.39 5.39-5.39h69.472v15h-52.361c-4.143 0-7.5 3.357-7.5 7.5v326.619c0 4.143 3.357 7.5 7.5 7.5s7.5-3.357 7.5-7.5v-319.119h44.911c.512 7.554 6.803 13.546 14.484 13.546h111.333c4.143 0 7.5-3.357 7.5-7.5s-3.357-7.5-7.5-7.5h-110.868v-42.644h39.028c7.178 0 13.277-4.965 14.832-12.074 2.801-12.806 14.362-22.1 27.491-22.1s24.69 9.294 27.489 22.1c1.555 7.109 7.654 12.074 14.832 12.074h39.028v42.645h-21.847c-4.143 0-7.5 3.357-7.5 7.5s3.357 7.5 7.5 7.5h22.313c7.68 0 13.972-5.992 14.484-13.546h44.911v373.727h-282.422v-24.62c0-4.143-3.357-7.5-7.5-7.5s-7.5 3.357-7.5 7.5v32.12c0 4.143 3.357 7.5 7.5 7.5h297.423c4.143 0 7.5-3.357 7.5-7.5v-388.728c0-4.143-3.357-7.5-7.5-7.5h-52.361v-15h69.472c2.972 0 5.39 2.418 5.39 5.39v172.345c-.001 4.142 3.356 7.5 7.499 7.5z" data-original="#000000" class="active-path" data-old_color="#000000" fill="#2978CC"/><path d="m158.768 188.805c1.465 1.464 3.384 2.196 5.304 2.196 1.919 0 3.839-.732 5.303-2.196l34.344-34.343c2.93-2.93 2.93-7.678.001-10.607-2.929-2.927-7.677-2.929-10.607 0l-29.04 29.04-14.388-14.389c-2.93-2.928-7.678-2.928-10.607 0-2.929 2.93-2.929 7.678 0 10.607z" data-original="#000000" class="active-path" data-old_color="#000000" fill="#2978CC"/><path d="m233.4 160.917h54.219c4.143 0 7.5-3.357 7.5-7.5s-3.357-7.5-7.5-7.5h-54.219c-4.143 0-7.5 3.357-7.5 7.5s3.358 7.5 7.5 7.5z" data-original="#000000" class="active-path" data-old_color="#000000" fill="#2978CC"/><path d="m233.4 191.001h134.219c4.143 0 7.5-3.357 7.5-7.5s-3.357-7.5-7.5-7.5h-134.219c-4.143 0-7.5 3.357-7.5 7.5s3.358 7.5 7.5 7.5z" data-original="#000000" class="active-path" data-old_color="#000000" fill="#2978CC"/><path d="m139.076 247.281 19.691 19.691c1.465 1.464 3.384 2.196 5.304 2.196 1.919 0 3.839-.732 5.303-2.196l34.344-34.343c2.93-2.93 2.93-7.678.001-10.607-2.929-2.928-7.677-2.928-10.607 0l-29.04 29.04-14.388-14.389c-2.93-2.928-7.678-2.928-10.607 0-2.93 2.931-2.93 7.679-.001 10.608z" data-original="#000000" class="active-path" data-old_color="#000000" fill="#2978CC"/><path d="m233.4 239.086h54.219c4.143 0 7.5-3.357 7.5-7.5s-3.357-7.5-7.5-7.5h-54.219c-4.143 0-7.5 3.357-7.5 7.5s3.358 7.5 7.5 7.5z" data-original="#000000" class="active-path" data-old_color="#000000" fill="#2978CC"/><path d="m233.4 269.169h134.219c4.143 0 7.5-3.357 7.5-7.5s-3.357-7.5-7.5-7.5h-134.219c-4.143 0-7.5 3.357-7.5 7.5s3.358 7.5 7.5 7.5z" data-original="#000000" class="active-path" data-old_color="#000000" fill="#2978CC"/><path d="m203.719 300.19c-2.93-2.928-7.678-2.928-10.607 0l-29.04 29.041-14.388-14.389c-2.929-2.929-7.678-2.93-10.606-.001-2.93 2.929-2.93 7.678-.001 10.606l19.691 19.692c1.407 1.407 3.314 2.197 5.304 2.197s3.896-.79 5.304-2.196l34.344-34.344c2.927-2.928 2.927-7.676-.001-10.606z" data-original="#000000" class="active-path" data-old_color="#000000" fill="#2978CC"/><path d="m233.4 317.254h54.219c4.143 0 7.5-3.357 7.5-7.5s-3.357-7.5-7.5-7.5h-54.219c-4.143 0-7.5 3.357-7.5 7.5s3.358 7.5 7.5 7.5z" data-original="#000000" class="active-path" data-old_color="#000000" fill="#2978CC"/><path d="m233.4 347.338h134.219c4.143 0 7.5-3.357 7.5-7.5s-3.357-7.5-7.5-7.5h-134.219c-4.143 0-7.5 3.357-7.5 7.5s3.358 7.5 7.5 7.5z" data-original="#000000" class="active-path" data-old_color="#000000" fill="#2978CC"/><path d="m193.111 378.358-29.04 29.041-14.388-14.389c-2.929-2.929-7.678-2.93-10.606-.001-2.93 2.929-2.93 7.678-.001 10.606l19.691 19.692c1.407 1.407 3.314 2.197 5.304 2.197s3.896-.79 5.304-2.196l34.344-34.344c2.929-2.93 2.929-7.678 0-10.607-2.93-2.926-7.678-2.926-10.608.001z" data-original="#000000" class="active-path" data-old_color="#000000" fill="#2978CC"/><path d="m233.4 395.422h54.219c4.143 0 7.5-3.357 7.5-7.5s-3.357-7.5-7.5-7.5h-54.219c-4.143 0-7.5 3.357-7.5 7.5s3.358 7.5 7.5 7.5z" data-original="#000000" class="active-path" data-old_color="#000000" fill="#2978CC"/><path d="m233.4 425.506h134.219c4.143 0 7.5-3.357 7.5-7.5s-3.357-7.5-7.5-7.5h-134.219c-4.143 0-7.5 3.357-7.5 7.5s3.358 7.5 7.5 7.5z" data-original="#000000" class="active-path" data-old_color="#000000" fill="#2978CC"/><path d="m247.897 62.996c-4.143 0-7.5 3.357-7.5 7.5s3.357 7.5 7.5 7.5h16.204c4.143 0 7.5-3.357 7.5-7.5s-3.357-7.5-7.5-7.5z" data-original="#000000" class="active-path" data-old_color="#000000" fill="#2978CC"/></g></g> </svg>
