<?xml version="1.0"?>
<svg xmlns="http://www.w3.org/2000/svg" id="Outline" height="512px" viewBox="0 0 64 64" width="512px"><g><path d="m12 56h-1a3 3 0 0 0 0 6h42a3 3 0 0 0 0-6h-1v-48h1a3 3 0 0 0 0-6h-42a3 3 0 0 0 0 6h1zm2-14h17v6h-17zm0 8h17v6h-17zm39 8a1 1 0 0 1 0 2h-42a1 1 0 0 1 0-2zm-3-2h-17v-48h17zm-39-50a1 1 0 0 1 0-2h42a1 1 0 0 1 0 2zm3 2h17v32h-17z" data-original="#000000" class="active-path" data-old_color="#000000" fill="#2978CC"/><path d="m21 44h3v2h-3z" data-original="#000000" class="active-path" data-old_color="#000000" fill="#2978CC"/><path d="m21 52h3v2h-3z" data-original="#000000" class="active-path" data-old_color="#000000" fill="#2978CC"/><path d="m27 23h2v4h-2z" data-original="#000000" class="active-path" data-old_color="#000000" fill="#2978CC"/><path d="m35 23h2v4h-2z" data-original="#000000" class="active-path" data-old_color="#000000" fill="#2978CC"/></g> </svg>
