<svg id="Capa_1" enable-background="new 0 0 96 96" height="512" viewBox="0 0 96 96" width="512" xmlns="http://www.w3.org/2000/svg"><g><path d="m67.35 7.36c-.61-.5-1.45-.74-2.35-.74h-34c-.9 0-1.74.24-2.35.74-.58.49-1.03 1.29-1.03 2.64v72c0 1.35.44 2.16 1.03 2.65.61.5 1.45.73 2.35.73h34c.89 0 1.74-.23 2.35-.73.59-.49 1.03-1.3 1.03-2.65v-72c0-1.35-.44-2.15-1.03-2.64zm-1.72 72.64c0 .5 0 .88-.04 1.23-.03.34-.12.69-.4.96-.28.28-.62.37-.96.4-.35.04-.73.04-1.23.04h-30c-.51 0-.88 0-1.23-.04-.34-.03-.69-.12-.97-.4-.27-.27-.35-.62-.39-.96-.04-.35-.03-.73-.03-1.23v-68c0-.5-.01-.88.03-1.23.04-.34.12-.69.39-.96.28-.28.63-.37.97-.4.35-.04.72-.04 1.23-.04h30c.5 0 .88 0 1.23.04.34.03.68.12.96.4s.37.62.4.96c.04.35.04.73.04 1.23z"/><path d="m32.622 86.629v.375 2.374h1.755v-2.749z"/><path d="m61.626 86.629v.375 2.374h1.746v-2.749z"/><path d="m33 10.62c-.48 0-.8.02-1.01.03l-.31.03-.03.32c-.02.22-.03.53-.03 1v68c0 .47.01.78.03 1l.03.32.31.03c.21.01.53.03 1.01.03h14.38v-70.76zm11.62 38.42c0 .22-.12.41-.3.52-.1.06-.21.09-.32.09s-.22-.03-.32-.09c-.19-.11-.31-.32-.31-.55v-6.02c0-.34.27-.62.62-.63.17 0 .33.06.45.18s.19.29.18.45z"/><path d="m64.35 11-.03-.32-.32-.02c-.21-.02-.53-.04-1-.04h-14.37v70.76h14.37c.47 0 .79-.02 1-.03l.32-.03.03-.32c.01-.21.03-.53.03-1v-68c0-.47-.02-.79-.03-1zm-11.72 38.01c0 .23-.12.44-.31.55-.2.12-.44.12-.63 0-.2-.11-.32-.32-.31-.55v-6.02c-.01-.34.26-.62.61-.63.17 0 .33.07.45.18.12.12.19.29.19.45z"/></g></svg>