<svg height="512pt" viewBox="-51 0 512 512" width="512pt" xmlns="http://www.w3.org/2000/svg"><path d="m30 512h260c16.542969 0 30-13.457031 30-30v-156h50c22.054688 0 40-17.945312 40-40s-17.945312-40-40-40h-50v-86c0-88.222656-71.777344-160-160-160-92.253906 0-160 78.570312-160 166.449219v315.550781c0 16.542969 13.457031 30 30 30zm260-20h-260c-5.515625 0-10-4.484375-10-10v-10h95c5.523438 0 10-4.476562 10-10s-4.476562-10-10-10h-95v-246h100v41.265625c-17.234375 4.453125-30 20.128906-30 38.734375v30c0 5.523438 4.476562 10 10 10h50v20c0 5.523438 4.476562 10 10 10s10-4.476562 10-10v-20h50c5.523438 0 10-4.476562 10-10v-20h41.265625c3.625 14.035156 14.699219 25.109375 28.734375 28.734375v127.265625h-95c-5.523438 0-10 4.476562-10 10s4.476562 10 10 10h95v10c0 5.515625-4.484375 10-10 10zm-110-286v40h-40v-40zm120 0v41.265625c-14.035156 3.625-25.109375 14.699219-28.734375 28.734375h-42.53125c-3.625-14.035156-14.699219-25.109375-28.734375-28.734375v-41.265625zm-190 100v-20c0-11.027344 8.972656-20 20-20h60c11.027344 0 20 8.972656 20 20v20zm280-20c0 11.027344-8.972656 20-20 20h-60c-11.027344 0-20-8.972656-20-20s8.972656-20 20-20h60c11.027344 0 20 8.972656 20 20zm-230-266c77.195312 0 140 62.804688 140 140v26h-280v-19.550781c0-77.378907 59.726562-146.449219 140-146.449219zm0 0"/><path d="m160 140c22.054688 0 40-17.945312 40-40s-17.945312-40-40-40-40 17.945312-40 40 17.945312 40 40 40zm0-60c11.027344 0 20 8.972656 20 20s-8.972656 20-20 20-20-8.972656-20-20 8.972656-20 20-20zm0 0"/><path d="m170 462c0 5.523438-4.476562 10-10 10s-10-4.476562-10-10 4.476562-10 10-10 10 4.476562 10 10zm0 0"/></svg>