<?xml version="1.0"?>
<svg xmlns="http://www.w3.org/2000/svg" xmlns:xlink="http://www.w3.org/1999/xlink" version="1.1" id="Layer_1" x="0px" y="0px" viewBox="0 0 496.2 496.2" style="enable-background:new 0 0 496.2 496.2;" xml:space="preserve" width="512px" height="512px" class="hovered-paths"><g><path style="fill:#2978CC" d="M496.2,248.1C496.2,111.1,385.1,0,248.1,0S0,111.1,0,248.1s111.1,248.1,248.1,248.1  S496.2,385.1,496.2,248.1z" data-original="#32BEA6" class="hovered-path active-path" data-old_color="#32BEA6"/><path style="fill:#FFFFFF;" d="M78.3,278c0-40.3,77-63.4,169.8-63.4s169.8,23.1,169.8,63.4s-77,82.6-169.8,82.6S78.3,318.3,78.3,278  z" data-original="#FFFFFF"/><ellipse style="fill:#D2D6D8;" cx="248.1" cy="275" rx="170.2" ry="73.9" data-original="#D2D6D8"/><path style="fill:#B5BABC;" d="M342.4,275.5c0,22.4-42.8,35.2-94.3,35.2s-94.3-12.8-94.3-35.2c0-22.4,42.8-45.9,94.3-45.9  S342.4,253.1,342.4,275.5z" data-original="#B5BABC"/><path style="fill:#D2D6D8;" d="M335.8,277.7c0,21-39.3,38.1-87.7,38.1s-87.7-17.1-87.7-38.1s39.3-38.1,87.7-38.1  S335.8,256.7,335.8,277.7z" data-original="#D2D6D8"/><path style="fill:#EDEDED;" d="M196.3,277.1c0-8.2,32.9-10.7,52.3-10.7c15.6,0,51.5,3.3,51.5,10.7H196.3z" data-original="#EDEDED"/><g>
	<path style="fill:#EFEFEF;" d="M368.8,193.4c0-15.4-18.7-27.2-33-29.5c0-1.6,0-3.1,0-4.6H160.5c0,36.7-3.1,116.7,87.6,116.7   c41.1,0,62.9-16.4,74.5-37.8C343.7,235.5,368.8,213.4,368.8,193.4z M327.9,226.7c6.1-16.7,7.5-35.1,7.8-50.5   c8.2,2.4,21.8,8,21.8,17.2C357.5,206,339.1,222.4,327.9,226.7z" data-original="#EFEFEF" class=""/>
	<path style="fill:#EFEFEF;" d="M342.4,158.5c0,12.7-42.2,22.9-94.3,22.9s-94.3-10.3-94.3-22.9c0-12.7,42.2-22.9,94.3-22.9   S342.4,145.9,342.4,158.5z" data-original="#EFEFEF" class=""/>
	<path style="fill:#EFEFEF;" d="M300.6,276c0,7-23.5,12.8-52.5,12.8s-52.5-5.7-52.5-12.8c0-7,23.5-12.8,52.5-12.8   C277.1,263.3,300.6,269,300.6,276z" data-original="#EFEFEF" class=""/>
</g><ellipse style="fill:#B5BABC;" cx="248.1" cy="158.5" rx="76.7" ry="15.5" data-original="#B5BABC"/></g> </svg>
