<?xml version="1.0"?>
<svg xmlns="http://www.w3.org/2000/svg" xmlns:xlink="http://www.w3.org/1999/xlink" version="1.1" id="Capa_1" x="0px" y="0px" viewBox="0 0 512 512" style="enable-background:new 0 0 512 512;" xml:space="preserve" width="512px" height="512px" class=""><g><g>
	<g>
		<path d="M502,404H108V10c0-5.523-4.477-10-10-10H10C4.477,0,0,4.477,0,10v492c0,5.523,4.477,10,10,10h301c5.523,0,10-4.477,10-10    s-4.477-10-10-10H108v-68h42.667v31c0,5.523,4.477,10,10,10s10-4.477,10-10v-31h27.667v14.212c0,5.523,4.477,10,10,10    s10-4.477,10-10V424H246v31c0,5.523,4.477,10,10,10s10-4.477,10-10v-31h27.667v14.212c0,5.523,4.477,10,10,10s10-4.477,10-10V424    h27.667v31c0,5.523,4.477,10,10,10s10-4.477,10-10v-31H389v14.212c0,5.523,4.477,10,10,10s10-4.477,10-10V424h27.667v31    c0,5.523,4.477,10,10,10s10-4.477,10-10v-31H492v68H392c-5.523,0-10,4.477-10,10s4.477,10,10,10h110c5.523,0,10-4.477,10-10v-88    C512,408.477,507.523,404,502,404z M88,55.333H57c-5.523,0-10,4.477-10,10s4.477,10,10,10h31V103H73.788c-5.523,0-10,4.477-10,10    s4.477,10,10,10H88v27.667H57c-5.523,0-10,4.477-10,10s4.477,10,10,10h31v27.667H73.788c-5.523,0-10,4.477-10,10s4.477,10,10,10    H88V246H57c-5.523,0-10,4.477-10,10s4.477,10,10,10h31v27.667H73.788c-5.523,0-10,4.477-10,10s4.477,10,10,10H88v27.667H57    c-5.523,0-10,4.477-10,10s4.477,10,10,10h31V389H73.788c-5.523,0-10,4.477-10,10s4.477,10,10,10H88v27.667H57    c-5.523,0-10,4.477-10,10s4.477,10,10,10h31V492H20V20h68V55.333z" data-original="#000000" class="active-path" data-old_color="#000000" fill="#2978CC"/>
	</g>
</g><g>
	<g>
		<path d="M358.4,494.93c-1.86-1.86-4.44-2.93-7.07-2.93s-5.21,1.07-7.07,2.93s-2.93,4.44-2.93,7.07s1.07,5.21,2.93,7.07    c1.86,1.86,4.44,2.93,7.07,2.93s5.21-1.07,7.07-2.93c1.86-1.86,2.93-4.44,2.93-7.07S360.26,496.79,358.4,494.93z" data-original="#000000" class="active-path" data-old_color="#000000" fill="#2978CC"/>
	</g>
</g><g>
	<g>
		<path d="M328,102.387c-5.523,0-10,4.477-10,10v15.677c0,5.523,4.477,10,10,10s10-4.477,10-10v-15.677    C338,106.864,333.523,102.387,328,102.387z" data-original="#000000" class="active-path" data-old_color="#000000" fill="#2978CC"/>
	</g>
</g><g>
	<g>
		<path d="M453,114.472L333,45.19c-3.094-1.786-6.906-1.786-10,0l-120,69.282c-3.094,1.786-5,5.087-5,8.66v138.564    c0,3.573,1.906,6.874,5,8.66l120,69.282c1.547,0.893,3.273,1.34,5,1.34s3.453-0.447,5-1.34l120-69.282c3.094-1.786,5-5.087,5-8.66    V123.132C458,119.559,456.094,116.258,453,114.472z M318,71.17v3.289c0,5.523,4.477,10,10,10s10-4.477,10-10V71.17l90.006,51.965    L338,175.159v-9.166c0-5.523-4.477-10-10-10s-10,4.477-10,10v9.166l-90.006-52.023L318,71.17z M438,244.376l-2.565-1.481    c-4.782-2.76-10.898-1.123-13.66,3.66c-2.762,4.783-1.123,10.899,3.66,13.66l2.565,1.481l-100,57.736l-100-57.735l2.565-1.481    c4.783-2.761,6.422-8.877,3.66-13.66c-2.761-4.783-8.878-6.422-13.66-3.66l-2.565,1.48V140.46l89.944,51.987l-8.108,4.681    c-4.783,2.761-6.422,8.877-3.66,13.66c1.852,3.208,5.213,5.001,8.669,5.001c1.696,0,3.416-0.432,4.991-1.341l8.164-4.714V244    c0,5.523,4.477,10,10,10s10-4.477,10-10v-34.265l8.164,4.714c1.575,0.909,3.294,1.341,4.991,1.341    c3.456,0,6.817-1.793,8.669-5.001c2.762-4.783,1.123-10.899-3.66-13.66l-8.108-4.681L438,140.46V244.376z" data-original="#000000" class="active-path" data-old_color="#000000" fill="#2978CC"/>
	</g>
</g><g>
	<g>
		<path d="M335.07,274.77c-1.86-1.86-4.44-2.93-7.07-2.93s-5.21,1.07-7.07,2.93c-1.86,1.86-2.93,4.44-2.93,7.07s1.07,5.21,2.93,7.07    s4.44,2.93,7.07,2.93s5.21-1.07,7.07-2.93s2.93-4.44,2.93-7.07S336.93,276.63,335.07,274.77z" data-original="#000000" class="active-path" data-old_color="#000000" fill="#2978CC"/>
	</g>
</g><g>
	<g>
		<path d="M402.588,223.931l-13.577-7.838c-4.783-2.761-10.898-1.123-13.66,3.66c-2.762,4.783-1.123,10.899,3.66,13.66l13.577,7.838    c1.575,0.909,3.294,1.341,4.991,1.341c3.456,0,6.817-1.793,8.669-5.001C409.01,232.808,407.371,226.692,402.588,223.931z" data-original="#000000" class="active-path" data-old_color="#000000" fill="#2978CC"/>
	</g>
</g><g>
	<g>
		<path d="M280.649,219.752c-2.762-4.783-8.878-6.422-13.66-3.66l-13.577,7.838c-4.783,2.761-6.422,8.877-3.66,13.66    c1.852,3.208,5.213,5.001,8.669,5.001c1.696,0,3.416-0.432,4.991-1.341l13.577-7.838    C281.772,230.651,283.411,224.535,280.649,219.752z" data-original="#000000" class="active-path" data-old_color="#000000" fill="#2978CC"/>
	</g>
</g></g> </svg>
