<?xml version="1.0"?>
<svg xmlns="http://www.w3.org/2000/svg" viewBox="0 0 64 64" width="512" height="512"><title>Prototyping-Mockup-3d-model-dimension</title><g id="Expand"><rect x="26.719" y="30.326" width="2.589" height="1.999" transform="translate(-11.969 18.384) rotate(-30.26)"/><rect x="22.693" y="32.674" width="2.589" height="1.999" transform="translate(-13.704 16.684) rotate(-30.273)"/><rect x="34.988" y="30.032" width="1.999" height="2.589" transform="translate(-9.205 46.624) rotate(-59.74)"/><rect x="39.014" y="32.38" width="1.999" height="2.589" transform="translate(-9.237 51.267) rotate(-59.74)"/><path d="M27.5,11.864l4,2.333a1,1,0,0,0,1.008,0l4-2.333a1,1,0,0,0,0-1.728L32.5,7.8a1,1,0,0,0-1.008,0l-4,2.333a1,1,0,0,0,0,1.728ZM32,9.824,34.015,11,32,12.176,29.985,11Z"/><path d="M54,22H51a1,1,0,0,0-1,1v4H45V11a1,1,0,0,0-.5-.864l-12-7a1,1,0,0,0-1.008,0l-12,7A1,1,0,0,0,19,11V27H14V23a1,1,0,0,0-1-1H10a4,4,0,0,0-4,4V54a4,4,0,0,0,4,4H54a4,4,0,0,0,4-4V26A4,4,0,0,0,54,22ZM21,12.742l10,5.833V41.259L21,35.426Zm12,5.833,10-5.833V35.426L33,41.259ZM32,5.157,42.015,11,32,16.843,21.985,11ZM8,26a2,2,0,0,1,2-2h2V50H10a3.97,3.97,0,0,0-2,.537ZM54,56H10a2,2,0,0,1,0-4h3a1,1,0,0,0,1-1V29h5v7a1,1,0,0,0,.5.864l12,7a1,1,0,0,0,1.008,0l12-7A1,1,0,0,0,45,36V29h5V51a1,1,0,0,0,1,1h3a2,2,0,0,1,0,4Zm2-5.463A3.97,3.97,0,0,0,54,50H52V24h2a2,2,0,0,1,2,2Z"/><rect x="19" y="46" width="2" height="2"/><rect x="23" y="46" width="24" height="2"/><rect x="15" y="60" width="2" height="2"/><rect x="19" y="60" width="24" height="2"/><rect x="17" y="50" width="27" height="2"/><rect x="60" y="31" width="2" height="20"/><rect x="15" y="19" width="2" height="2"/><path d="M17,9.574l9.5-5.543L25.5,2.3l-10,5.833A1,1,0,0,0,15,9v8h2Z"/></g></svg>
