<svg id="Capa_1" enable-background="new 0 0 96 96" height="512" viewBox="0 0 96 96" width="512" xmlns="http://www.w3.org/2000/svg"><g><path d="m63.35 7.36c-.61-.51-1.45-.74-2.35-.74h-26c-.9 0-1.75.23-2.35.74-.59.49-1.03 1.29-1.03 2.64v72c0 1.35.44 2.16 1.03 2.65.6.51 1.45.73 2.35.73h26c.9 0 1.74-.22 2.35-.73.59-.49 1.03-1.3 1.03-2.65v-72c0-1.35-.44-2.15-1.03-2.64zm-1.72 72.64c0 .5 0 .88-.04 1.23-.04.34-.12.69-.4.96-.28.28-.63.37-.97.4-.34.04-.72.04-1.23.04h-21.99c-.51 0-.88 0-1.22-.04-.35-.03-.7-.12-.97-.4-.28-.27-.36-.62-.4-.96-.04-.35-.03-.73-.03-1.23v-68c0-.5-.01-.88.03-1.23.04-.34.12-.69.4-.96.27-.28.62-.37.97-.4.34-.04.71-.04 1.22-.04h21.99c.51 0 .89 0 1.23.04.34.03.69.12.97.4s.36.62.4.96c.04.35.04.73.04 1.23z"/><path d="m60.37 12v15.38h-24.74v-15.38c0-.46 0-.78.02-1l.03-.31.31-.03c.21-.02.53-.04 1.01-.04h21.99c.48 0 .8.02 1.01.04l.32.02.02.32c.02.21.03.53.03 1z"/><path d="m35.63 28.63h24.74v15.75h-24.74z"/><path d="m35.63 45.63h24.74v15.75h-24.74z"/><path d="m35.63 62.63v8.74h24.74v-8.74zm15.91 4.69c-.11.19-.31.31-.54.31h-6.02c-.35.02-.64-.24-.66-.59-.02-.36.24-.65.6-.66h6.08c.22 0 .43.12.54.31.12.19.12.43 0 .63z"/><path d="m35.63 72.62v7.38c0 .46 0 .78.02 1l.03.32.31.03c.21.01.53.03 1.01.03h21.99c.48 0 .8-.02 1.01-.03l.32-.03.02-.32c.02-.21.03-.53.03-1v-7.38zm15.36 5.01h-6c-.01 0-.01 0-.02 0-.34 0-.61-.26-.62-.59v-.04c0-.33.24-.59.57-.62h6.07c.35.01.61.28.61.62 0 .35-.26.62-.61.63z"/><path d="m36.621 86.629v.375 2.374h1.756v-2.749z"/><path d="m57.623 86.629v.375 2.374h1.746v-2.749z"/></g></svg>