<?xml version="1.0"?>
<svg xmlns="http://www.w3.org/2000/svg" id="Outline" viewBox="0 0 64 64" width="512px" height="512px"><g><path d="M2,7A1,1,0,0,0,3,8H4V55a1,1,0,0,0,1,1H6v5a1,1,0,0,0,1,1H57a1,1,0,0,0,1-1V56h1a1,1,0,0,0,1-1V8h1a1,1,0,0,0,1-1V3a1,1,0,0,0-1-1H3A1,1,0,0,0,2,3ZM58,38H6V24H58ZM56,60H8V56H56Zm2-6H6V40H58Zm0-32H6V8H58ZM4,4H60V6H4Z" data-original="#000000" class="active-path" data-old_color="#000000" fill="#2978CC"/><path d="M9,20H55a1,1,0,0,0,1-1V11a1,1,0,0,0-1-1H9a1,1,0,0,0-1,1v8A1,1,0,0,0,9,20Zm29.382-8-1,2H26.618l-1-2ZM10,12H23.382l1.723,3.447A1,1,0,0,0,26,16H38a1,1,0,0,0,.9-.553L40.618,12H54v6H10Z" data-original="#000000" class="active-path" data-old_color="#000000" fill="#2978CC"/><path d="M9,36H55a1,1,0,0,0,1-1V27a1,1,0,0,0-1-1H9a1,1,0,0,0-1,1v8A1,1,0,0,0,9,36Zm29.382-8-1,2H26.618l-1-2ZM10,28H23.382l1.723,3.447A1,1,0,0,0,26,32H38a1,1,0,0,0,.9-.553L40.618,28H54v6H10Z" data-original="#000000" class="active-path" data-old_color="#000000" fill="#2978CC"/><path d="M9,52H55a1,1,0,0,0,1-1V43a1,1,0,0,0-1-1H9a1,1,0,0,0-1,1v8A1,1,0,0,0,9,52Zm29.382-8-1,2H26.618l-1-2ZM10,44H23.382l1.723,3.447A1,1,0,0,0,26,48H38a1,1,0,0,0,.9-.553L40.618,44H54v6H10Z" data-original="#000000" class="active-path" data-old_color="#000000" fill="#2978CC"/></g> </svg>
