<?xml version="1.0"?>
<svg xmlns="http://www.w3.org/2000/svg" height="512px" viewBox="0 0 60 60" width="512px" class=""><g><g id="025---Secure-File-Sharing" fill="none"><path id="Path" d="m39 18h12.17c.5329123.0002413 1.0438267.2125227 1.42.59l5.82 5.82c.3774773.3761733.5897587.8870877.59 1.42v31.17c-.0032948 1.1032019-.8967981 1.9967052-2 2h-28c-1.1032019-.0032948-1.9967052-.8967981-2-2v-12.3z" fill="#dbdfe5" data-original="#DBDFE5" class=""/><path id="Path" d="m21 42h-18c-1.10320187-.0032948-1.9967052-.8967981-2-2v-37c.0032948-1.10320187.89679813-1.9967052 2-2h22.17c.5329123.00024132 1.0438267.21252266 1.42.59l5.82 5.82c.3774773.37617334.5897587.88708775.59 1.42v6.47z" fill="#dbdfe5" data-original="#DBDFE5" class=""/><circle id="Oval" cx="30" cy="30" fill="#9fd164" r="15" data-original="#9FD164" class="active-path" style="fill:#2978CC" data-old_color="#9fd164"/><rect id="Rectangle" fill="#dbdfe5" height="14" rx="2" width="14" x="23" y="25" data-original="#DBDFE5" class=""/><circle id="Oval" cx="30" cy="31" fill="#7e8591" r="2" data-original="#7E8591"/><path id="Path" d="m32.82 8h-5.82c-.5522847 0-1-.44771525-1-1v-5.82c.2196188.10025599.4194552.23912533.59.41l5.82 5.82c.1708747.17054481.309744.37038118.41.59z" fill="#bfc4ce" data-original="#BFC4CE"/><path id="Path" d="m58.82 25h-5.82c-.5522847 0-1-.4477153-1-1v-5.82c.2196188.100256.4194552.2391253.59.41l5.82 5.82c.1708747.1705448.309744.3703812.41.59z" fill="#bfc4ce" data-original="#BFC4CE"/><g fill="#373737"><path id="Shape" d="m35 24h-1v-2c0-2.209139-1.790861-4-4-4s-4 1.790861-4 4v2h-1c-1.6568542 0-3 1.3431458-3 3v10c0 1.6568542 1.3431458 3 3 3h10c1.6568542 0 3-1.3431458 3-3v-10c0-1.6568542-1.3431458-3-3-3zm-7-2c0-1.1045695.8954305-2 2-2s2 .8954305 2 2v2h-4zm8 15c0 .5522847-.4477153 1-1 1h-10c-.5522847 0-1-.4477153-1-1v-10c0-.5522847.4477153-1 1-1h10c.5522847 0 1 .4477153 1 1z" data-original="#373737" class="" style="fill:#373737"/><path id="Shape" d="m30 28c-1.4594373-.0027654-2.7080809 1.0474881-2.9553873 2.485822s.5788398 2.8453257 1.9553873 3.330178v1.184c0 .5522847.4477153 1 1 1s1-.4477153 1-1v-1.184c1.3765475-.4848523 2.2026937-1.8918441 1.9553873-3.330178s-1.49595-2.4885874-2.9553873-2.485822zm0 4c-.5522847 0-1-.4477153-1-1s.4477153-1 1-1 1 .4477153 1 1-.4477153 1-1 1z" data-original="#373737" class="" style="fill:#373737"/><path id="Shape" d="m59.71 24.564c-.1459485-.3193829-.3466396-.6107742-.593-.861l-5.82-5.82c-.2502258-.2463604-.5416171-.4470515-.861-.593-.022-.011-.042-.026-.066-.036-.3782379-.1664083-.7867757-.2528821-1.2-.254h-11.878c-1.5962249-1.1439281-3.3904709-1.9823957-5.292-2.473v-5.697c-.0011179-.41322434-.0875917-.82176212-.254-1.2-.01-.024-.025-.044-.036-.066-.1459485-.31938287-.3466396-.61077422-.593-.861l-5.817-5.82c-.2511245-.24664901-.5435523-.4473547-.864-.593-.022-.011-.042-.026-.066-.036-.3782379-.16640825-.7867757-.25288209-1.2-.254h-22.17c-1.65685425 0-3 1.34314575-3 3v4c0 .55228475.44771525 1 1 1s1-.44771525 1-1v-4c0-.55228475.44771525-1 1-1h22v5c0 1.1045695.8954305 2 2 2h5v5.139c-6.7066266-.8587371-13.2272885 2.5987674-16.279517 8.6320228-3.0522284 6.0332555-1.9745581 13.3347619 2.690517 18.2289772h-15.411c-.55228475 0-1-.4477153-1-1v-27c0-.5522847-.44771525-1-1-1s-1 .4477153-1 1v27c0 1.6568542 1.34314575 3 3 3h17.708c1.5962249 1.1439281 3.3904709 1.9823957 5.292 2.473v11.527c0 1.6568542 1.3431458 3 3 3h28c1.6568542 0 3-1.3431458 3-3v-31.17c-.0011179-.4132243-.0875917-.8217621-.254-1.2-.01-.024-.025-.044-.036-.066zm-32.71-21.15 3.586 3.586h-3.586zm29.586 20.586h-3.586v-3.586zm.414 34h-28c-.5522847 0-1-.4477153-1-1v-11.139c2.8564364.3836382 5.7633352-.0292106 8.4-1.193.3384517-.135572.5762964-.4446005.6207098-.80648.0444133-.3618795-.1116443-.7192515-.4072679-.9326433-.2956235-.2133919-.683956-.2489805-1.0134419-.0928767-6.5605826 2.8659769-14.2265434.3265737-17.7786939-5.8893168s-1.8484025-14.1097341 3.9512873-18.3071936c5.7996897-4.1974596 13.830604-3.348967 18.6250843 1.9678014s4.8110044 13.3923644.0383223 18.728709c-.2422537.2655855-.3233175.6407618-.2123246.9826727.1109929.341911.3969616.5979393.7490175.6705969.352056.0726577.7160207-.0492369.9533071-.3192696 5.5606009-6.2042111 5.4138343-15.6416982-.337-21.67h9.411v5c0 1.1045695.8954305 2 2 2h5v31c0 .5522847-.4477153 1-1 1z" data-original="#373737" class="" style="fill:#373737"/><path id="Path" d="m39.707 4.293c-.3904999-.39038194-1.0235001-.39038194-1.414 0l-2 2c-.093319.09313328-.1670955.20396807-.217.326-.1011169.2446294-.1011169.5193706 0 .764.0499045.12203193.123681.23286672.217.326l2 2c.3923789.3789722 1.0160848.3735524 1.4018186-.01218142.3857338-.3857338.3911536-1.00943969.0121814-1.40181858l-.293-.295h2.586c1.6568542 0 3 1.34314575 3 3v3c0 .5522847.4477153 1 1 1s1-.4477153 1-1v-3c-.0033061-2.76005315-2.2399468-4.99669388-5-5h-2.586l.293-.293c.3903819-.39049985.3903819-1.02350015 0-1.414z" data-original="#373737" class="" style="fill:#373737"/><path id="Path" d="m17.293 48.707c.3923789.3789722 1.0160848.3735524 1.4018186-.0121814s.3911536-1.0094397.0121814-1.4018186l-2-2c-.0931333-.093319-.2039681-.1670955-.326-.217-.2446294-.1011169-.5193706-.1011169-.764 0-.1220319.0499045-.2328667.123681-.326.217l-2 2c-.3789722.3923789-.3735524 1.0160848.0121814 1.4018186s1.0094397.3911536 1.4018186.0121814l.295-.293v2.586c.0033061 2.7600532 2.2399468 4.9966939 5 5h3c.5522847 0 1-.4477153 1-1s-.4477153-1-1-1h-3c-1.6568542 0-3-1.3431458-3-3v-2.586z" data-original="#373737" class="" style="fill:#373737"/></g></g></g> </svg>
