<?xml version="1.0"?>
<svg xmlns="http://www.w3.org/2000/svg" id="Capa_1" enable-background="new 0 0 512 512" height="512px" viewBox="0 0 512 512" width="512px" class=""><g><path d="m452 0c-33.138 0-60 26.859-60 60v325.08c15.93-14.3 36.97-23 60-23s44.07 8.7 60 23v-325.08c0-33.14-26.86-60-60-60z" data-original="#000000" class="active-path" data-old_color="#000000" fill="#999999"/><path d="m212 422h90v-30h-30v-30h30v-30h-90z" data-original="#000000" class="active-path" data-old_color="#000000" fill="#999999"/><path d="m452 392.083c-27.919 0-51.38 19.083-58.055 44.917h-31.945v-377h-362v452h452c33.114 0 59.958-26.844 59.958-59.958s-26.844-59.959-59.958-59.959zm-120 59.917h-240v-120h-32v-30h92v30h-30v90h60v-120h120v-152h-90v92h30v30h-60v-122h-60v62h30v30h-92v-30h32v-92h240z" data-original="#000000" class="active-path" data-old_color="#000000" fill="#999999"/></g> </svg>
