<?xml version="1.0"?>
<svg xmlns="http://www.w3.org/2000/svg" xmlns:xlink="http://www.w3.org/1999/xlink" version="1.1" id="Layer_1" x="0px" y="0px" viewBox="0 0 512 512" style="enable-background:new 0 0 512 512;" xml:space="preserve" width="512px" height="512px" class="hovered-paths"><g><polygon style="fill:#999999" points="512,48.762 512,414.476 341.333,463.238 170.667,414.476 0,463.238 0,97.524 170.667,48.762   341.333,97.524 " data-original="#7AB9E8" class="" data-old_color="#7AB9E8"/><polygon style="fill:#999999" points="170.667,48.762 170.667,414.476 341.333,463.238 341.333,97.524 " data-original="#61AAE4" class="hovered-path active-path" data-old_color="#61AAE4"/><g>
	<path style="fill:#F8F8F9" d="M456.554,132.02c-2.291-1.729-5.26-2.286-8.018-1.492l-107.203,30.63l-168.154-48.044   c-1.642-0.469-3.382-0.469-5.024,0L58.441,144.461c-3.925,1.123-6.63,4.709-6.63,8.792v158.259v0.005v61.164   c0,2.87,1.346,5.571,3.636,7.298c2.291,1.727,5.258,2.283,8.018,1.492l107.202-30.63l168.154,48.044   c0.82,0.234,1.666,0.352,2.512,0.352c0.845,0,1.691-0.118,2.511-0.352l109.714-31.347c3.925-1.123,6.632-4.709,6.632-8.792V139.319   C460.19,136.45,458.843,133.748,456.554,132.02z M341.333,380.587l-168.154-48.044c-0.82-0.234-1.666-0.352-2.512-0.352   c-0.845,0-1.691,0.118-2.512,0.352L70.095,360.56v-41.935l10.951-3.128c4.855-1.386,7.667-6.448,6.279-11.302   c-1.387-4.855-6.451-7.669-11.303-6.278l-5.927,1.693v-71.955c20.841-4.246,36.571-22.718,36.571-44.794   c0-5.051-4.094-9.143-9.143-9.143s-9.143,4.092-9.143,9.143c0,11.919-7.645,22.081-18.286,25.856v-48.564l100.571-28.739   l76.19,21.769v11.393c0,5.051,4.094,9.143,9.143,9.143c5.049,0,9.143-4.092,9.143-9.143v-6.168l73.678,21.052   c1.642,0.469,3.382,0.469,5.024,0l98.06-28.016v49.301c-3.319,2.119-5.007,6.233-3.869,10.214c0.636,2.227,2.06,4.001,3.869,5.16   v68.233c-20.841,4.246-36.571,22.718-36.571,44.794c0,5.051,4.094,9.143,9.143,9.143c5.049,0,9.143-4.092,9.143-9.143   c0-11.919,7.643-22.081,18.286-25.856v48.564L341.333,380.587z" data-original="#F8F8F9" class="" data-old_color="#F8F8F9"/>
	<path style="fill:#F8F8F9" d="M356.403,224.772l-17.582,5.024c-4.855,1.387-7.667,6.448-6.279,11.302   c1.147,4.016,4.808,6.633,8.786,6.633c0.831,0,1.677-0.115,2.516-0.355l17.582-5.024c4.855-1.386,7.667-6.448,6.279-11.302   C366.319,226.196,361.256,223.376,356.403,224.772z" data-original="#F8F8F9" class="" data-old_color="#F8F8F9"/>
	<path style="fill:#F8F8F9" d="M420.453,215.98c-1.387-4.854-6.45-7.67-11.303-6.278l-17.582,5.024   c-4.855,1.387-7.667,6.448-6.279,11.302c1.147,4.016,4.808,6.633,8.786,6.633c0.831,0,1.677-0.115,2.517-0.355l17.582-5.024   C419.029,225.896,421.84,220.834,420.453,215.98z" data-original="#F8F8F9" class="" data-old_color="#F8F8F9"/>
	<path style="fill:#F8F8F9" d="M168.155,271.589l-4.222,1.206c-4.855,1.388-7.667,6.448-6.279,11.304   c1.147,4.016,4.807,6.633,8.786,6.633c0.831,0,1.677-0.115,2.516-0.354l4.222-1.206c4.855-1.389,7.667-6.448,6.279-11.303   C178.071,273.014,173.007,270.202,168.155,271.589z" data-original="#F8F8F9" class="" data-old_color="#F8F8F9"/>
	<path style="fill:#F8F8F9" d="M128.769,282.843l-17.582,5.024c-4.855,1.387-7.667,6.448-6.279,11.302   c1.147,4.016,4.808,6.633,8.786,6.633c0.831,0,1.677-0.115,2.516-0.355l17.582-5.024c4.855-1.387,7.667-6.448,6.279-11.302   C138.685,284.268,133.625,281.45,128.769,282.843z" data-original="#F8F8F9" class="" data-old_color="#F8F8F9"/>
	<path style="fill:#F8F8F9" d="M282.892,308.162l-48.762-13.934c-4.849-1.391-9.915,1.423-11.303,6.278   c-1.387,4.854,1.424,9.916,6.279,11.302l48.762,13.934c0.839,0.24,1.685,0.355,2.516,0.355c3.978,0,7.639-2.619,8.787-6.634   C290.56,314.609,287.748,309.549,282.892,308.162z" data-original="#F8F8F9" class="" data-old_color="#F8F8F9"/>
	<path style="fill:#F8F8F9" d="M256,228.574c5.049,0,9.143-4.092,9.143-9.143v-18.286c0-5.051-4.094-9.143-9.143-9.143   c-5.049,0-9.143,4.092-9.143,9.143v18.286C246.857,224.482,250.951,228.574,256,228.574z" data-original="#F8F8F9" class="" data-old_color="#F8F8F9"/>
	<path style="fill:#F8F8F9" d="M256,283.431c5.049,0,9.143-4.092,9.143-9.143v-18.286c0-5.051-4.094-9.143-9.143-9.143   c-5.049,0-9.143,4.092-9.143,9.143v18.286C246.857,279.339,250.951,283.431,256,283.431z" data-original="#F8F8F9" class="" data-old_color="#F8F8F9"/>
</g><g>
	<path style="fill:#EDEDED;" d="M173.179,332.543c-0.82-0.234-1.666-0.352-2.512-0.352v18.651l168.154,48.044   c0.82,0.234,1.666,0.352,2.512,0.352v-18.651L173.179,332.543z" data-original="#EDEDED" class=""/>
	<path style="fill:#EDEDED;" d="M246.857,153.181v11.393c0,5.051,4.094,9.143,9.143,9.143c5.049,0,9.143-4.092,9.143-9.143v-6.168   l73.678,21.052c0.82,0.234,1.666,0.352,2.512,0.352v-18.651l-168.154-48.044c-0.82-0.234-1.666-0.352-2.512-0.352v18.651   L246.857,153.181z" data-original="#EDEDED" class=""/>
	<path style="fill:#EDEDED;" d="M338.821,229.795c-4.855,1.387-7.667,6.448-6.279,11.302c1.147,4.016,4.808,6.633,8.786,6.633   c0.001,0,0.002,0,0.005,0v-18.653L338.821,229.795z" data-original="#EDEDED" class=""/>
	<path style="fill:#EDEDED;" d="M173.178,289.173c4.855-1.388,7.667-6.448,6.279-11.303c-1.147-4.017-4.812-6.627-8.791-6.627   v18.648L173.178,289.173z" data-original="#EDEDED" class=""/>
	<path style="fill:#EDEDED;" d="M282.892,308.162l-48.762-13.934c-4.849-1.391-9.915,1.423-11.303,6.278   c-1.387,4.854,1.424,9.916,6.279,11.302l48.762,13.934c0.839,0.24,1.685,0.355,2.516,0.355c3.978,0,7.639-2.619,8.787-6.634   C290.56,314.609,287.748,309.549,282.892,308.162z" data-original="#EDEDED" class=""/>
	<path style="fill:#EDEDED;" d="M256,228.574c5.049,0,9.143-4.092,9.143-9.143v-18.286c0-5.051-4.094-9.143-9.143-9.143   c-5.049,0-9.143,4.092-9.143,9.143v18.286C246.857,224.482,250.951,228.574,256,228.574z" data-original="#EDEDED" class=""/>
	<path style="fill:#EDEDED;" d="M256,283.431c5.049,0,9.143-4.092,9.143-9.143v-18.286c0-5.051-4.094-9.143-9.143-9.143   c-5.049,0-9.143,4.092-9.143,9.143v18.286C246.857,279.339,250.951,283.431,256,283.431z" data-original="#EDEDED" class=""/>
</g></g> </svg>
