<?xml version="1.0"?>
<svg xmlns="http://www.w3.org/2000/svg" id="Capa_1" enable-background="new 0 0 512 512" height="512px" viewBox="0 0 512 512" width="512px"><g><path d="m437 0c-36.22 0-66.522 25.808-73.491 60h-363.509v452h437c41.355 0 75-33.645 75-75v-362c0-41.355-33.645-75-75-75zm0 30c24.813 0 45 20.187 45 45v302.041c-12.544-9.438-28.129-15.041-45-15.041s-32.456 5.603-45 15.041v-302.041c0-24.813 20.187-45 45-45zm0 452h-407v-392h332v347.001h30c0-24.813 20.187-45.001 45-45.001s45 20.187 45 45-20.187 45-45 45z" data-original="#000000" class="active-path" data-old_color="#000000" fill="#999999"/><path d="m92 212h-32v30h92v-30h-30v-62h60v122h60v-30h-30v-92h90v152h-120v120h-60v-90h30v-30h-92v30h32v120h240v-332h-240zm120 210v-90h90v30h-30v30h30v30z" data-original="#000000" class="active-path" data-old_color="#000000" fill="#999999"/></g> </svg>
