<?xml version="1.0"?>
<svg xmlns="http://www.w3.org/2000/svg" xmlns:xlink="http://www.w3.org/1999/xlink" version="1.1" id="Layer_1" x="0px" y="0px" viewBox="0 0 496.2 496.2" style="enable-background:new 0 0 496.2 496.2;" xml:space="preserve" width="512px" height="512px" class="hovered-paths"><g><path style="fill:#2978CC" d="M496.2,248.1C496.2,111.1,385.1,0,248.1,0S0,111.1,0,248.1s111.1,248.1,248.1,248.1  S496.2,385.1,496.2,248.1z" data-original="#32BEA6" class="" data-old_color="#32BEA6"/><path style="fill:#FFFFFF;" d="M326.1,411.2c0,7.7-6.2,13.9-13.9,13.9H184c-7.7,0-13.9-6.2-13.9-13.9V85c0-7.7,6.2-13.9,13.9-13.9  h128.3c7.7,0,13.9,6.2,13.9,13.9v326.2H326.1z" data-original="#FFFFFF" class=""/><rect x="170.1" y="186.5" style="fill:#CCCACA;" width="156.1" height="4.5" data-original="#CCCACA" class=""/><path style="fill:#C1C1C1;" d="M194,149.4c0,16.7-2.4,23.2-5.3,23.2c-2.9,0-5.3-6.5-5.3-23.2s2.4-23.2,5.3-23.2  C191.7,126.2,194,132.7,194,149.4z" data-original="#C1C1C1" class=""/><path style="fill:#E0DEDE" d="M188.8,172.6c-2.9,0-5.3-6.5-5.3-23.2s2.4-23.2,5.3-23.2S191.7,172.6,188.8,172.6z" data-original="#E0DEDE" class="hovered-path active-path" data-old_color="#E0DEDE"/><path style="fill:#C1C1C1;" d="M194,228.2c0,16.7-2.4,23.2-5.3,23.2c-2.9,0-5.3-6.5-5.3-23.2s2.4-23.2,5.3-23.2  C191.7,205.1,194,211.5,194,228.2z" data-original="#C1C1C1" class=""/><path style="fill:#E0DEDE" d="M188.8,251.4c-2.9,0-5.3-6.5-5.3-23.2s2.4-23.2,5.3-23.2C191.7,205.1,191.7,251.4,188.8,251.4z" data-original="#E0DEDE" class="hovered-path active-path" data-old_color="#E0DEDE"/></g> </svg>
