<svg id="Layer_1" data-name="Layer 1" xmlns="http://www.w3.org/2000/svg" viewBox="0 0 151.5 196.96"><defs><style>.cls-1{fill:#f36c22;}.cls-2,.cls-4{fill:none;stroke-linecap:round;stroke-linejoin:round;stroke-width:17px;}.cls-2{stroke:#f36c22;}.cls-3{fill:#009ca6;}.cls-4{stroke:#009ca6;}</style></defs><title>gender</title><path class="cls-1" d="M80.42,65.61A34.42,34.42,0,1,1,46,100,34.45,34.45,0,0,1,80.42,65.61m0-17A51.42,51.42,0,1,0,131.83,100,51.42,51.42,0,0,0,80.42,48.61Z" transform="translate(-29 -1.54)"/><line class="cls-2" x1="51.42" y1="149.89" x2="51.42" y2="188.46"/><line class="cls-2" x1="34.8" y1="171.57" x2="68.96" y2="171.57"/><path class="cls-3" d="M107.73,39.9A34.42,34.42,0,1,1,73.31,74.31,34.46,34.46,0,0,1,107.73,39.9m0-17a51.42,51.42,0,1,0,51.42,51.41A51.42,51.42,0,0,0,107.73,22.9Z" transform="translate(-29 -1.54)"/><line class="cls-4" x1="114.88" y1="36.62" x2="142.6" y2="8.9"/><line class="cls-4" x1="143" y1="9.3" x2="143" y2="35.44"/><line class="cls-4" x1="143" y1="8.5" x2="115.3" y2="8.5"/></svg>