<?xml version="1.0"?>
<svg xmlns="http://www.w3.org/2000/svg" xmlns:xlink="http://www.w3.org/1999/xlink" version="1.1" id="Capa_1" x="0px" y="0px" viewBox="0 0 512 512" style="enable-background:new 0 0 512 512;" xml:space="preserve" width="512px" height="512px"><g><g>
	<g>
		<g>
			<path d="M203,202.667c0-19.233,7.611-28.058,18.145-40.271c7.214-8.365,6.281-20.994-2.083-28.208     c-8.366-7.214-20.994-6.281-28.208,2.083C178.445,150.659,163,168.566,163,202.667s15.445,52.008,27.855,66.397     C201.389,281.277,209,290.102,209,309.335c0,19.232-7.61,28.056-18.144,40.268c-7.214,8.365-6.282,20.994,2.082,28.208     c8.377,7.225,21.004,6.269,28.208-2.082C233.556,361.34,249,343.434,249,309.335c0-34.1-15.444-52.007-27.854-66.396     C210.611,230.726,203,221.901,203,202.667z" data-original="#000000" class="active-path" data-old_color="#000000" fill="#2978CC"/>
			<path d="M303,202.667c0-19.233,7.611-28.058,18.146-40.271c7.214-8.364,6.281-20.993-2.083-28.208     c-8.366-7.215-20.994-6.281-28.208,2.083C278.445,150.659,263,168.566,263,202.667s15.445,52.008,27.855,66.397     C301.389,281.277,309,290.102,309,309.335c0,19.232-7.61,28.056-18.145,40.268c-7.214,8.364-6.282,20.993,2.082,28.208     c8.384,7.23,21.01,6.264,28.209-2.082C333.556,361.341,349,343.435,349,309.335c0-34.101-15.444-52.008-27.854-66.396     C310.611,230.726,303,221.901,303,202.667z" data-original="#000000" class="active-path" data-old_color="#000000" fill="#2978CC"/>
			<path d="M256,0C114.517,0,0,114.497,0,256c0,141.484,114.497,256,256,256c141.483,0,256-114.497,256-256     C512,114.516,397.503,0,256,0z M256,472c-119.377,0-216-96.607-216-216c0-119.377,96.607-216,216-216     c119.377,0,216,96.607,216,216C472,375.377,375.393,472,256,472z" data-original="#000000" class="active-path" data-old_color="#000000" fill="#2978CC"/>
		</g>
	</g>
</g></g> </svg>
