<svg id="Layer_1" data-name="Layer 1" xmlns="http://www.w3.org/2000/svg" viewBox="0 0 168.04 191.41"><defs><style>.cls-1,.cls-2{fill:none;stroke-linecap:round;stroke-linejoin:round;stroke-width:17px;}.cls-1{stroke:#f36c22;}.cls-2{stroke:#009ca6;}</style></defs><title>heating</title><polygon class="cls-1" points="159.54 139.31 159.54 52.1 84.02 8.5 8.5 52.1 8.5 139.31 84.02 182.91 159.54 139.31"/><path class="cls-2" d="M80.37,59.11l2.46,6.27a39.19,39.19,0,0,1,.39,27.55l-5.62,15.6a39.11,39.11,0,0,0,.51,27.84L80.37,142" transform="translate(-15.99 -4.5)"/><path class="cls-2" d="M120.37,59.33l2.46,6.27a39.19,39.19,0,0,1,.39,27.55l-5.62,15.61a39.12,39.12,0,0,0,.51,27.84l2.26,5.62" transform="translate(-15.99 -4.5)"/></svg>