<?xml version="1.0"?>
<svg xmlns="http://www.w3.org/2000/svg" height="512px" viewBox="0 0 426.66667 426.66667" width="512px" class=""><g><path d="m213.332031 21.332031c-106.039062 0-192 85.960938-192 192 0 106.039063 85.960938 192 192 192 106.039063 0 192-85.960937 192-192-.121093-105.988281-86.011719-191.878906-192-192zm60.90625 237.761719c4.160157 4.191406 4.160157 10.953125 0 15.144531-4.203125 4.125-10.9375 4.125-15.144531 0l-45.761719-45.863281-45.757812 45.863281c-4.207031 4.125-10.941407 4.125-15.148438 0-4.160156-4.191406-4.160156-10.953125 0-15.144531l45.867188-45.761719-45.867188-45.757812c-4.152343-4.1875-4.140625-10.945313.03125-15.117188s10.929688-4.183593 15.117188-.03125l45.757812 45.867188 45.761719-45.867188c4.1875-4.152343 10.945312-4.140625 15.117188.03125 4.167968 4.171875 4.183593 10.929688.027343 15.117188l-45.863281 45.757812zm0 0" fill="#42a5f5" data-original="#42A5F5" class="active-path" data-old_color="#42a5f5" style="fill:#00000000"/><g fill="#1976d2"><path d="m213.332031 0c-117.820312 0-213.332031 95.511719-213.332031 213.332031 0 117.820313 95.511719 213.335938 213.332031 213.335938 117.820313 0 213.335938-95.515625 213.335938-213.335938-.117188-117.769531-95.5625-213.214843-213.335938-213.332031zm0 405.332031c-106.039062 0-192-85.960937-192-192 0-106.039062 85.960938-192 192-192 106.039063 0 192 85.960938 192 192-.121093 105.988281-86.011719 191.878907-192 192zm0 0" data-original="#000000" class="" style="fill:#2978CC" data-old_color="#000000"/><path d="m274.238281 152.425781c-4.191406-4.160156-10.953125-4.160156-15.144531 0l-45.761719 45.867188-45.757812-45.867188c-4.1875-4.152343-10.945313-4.140625-15.117188.03125s-4.183593 10.929688-.03125 15.117188l45.867188 45.757812-45.867188 45.761719c-4.160156 4.191406-4.160156 10.953125 0 15.144531 4.207031 4.125 10.941407 4.125 15.148438 0l45.757812-45.863281 45.761719 45.863281c4.207031 4.125 10.941406 4.125 15.144531 0 4.160157-4.191406 4.160157-10.953125 0-15.144531l-45.863281-45.761719 45.863281-45.757812c4.160157-4.191407 4.160157-10.957031 0-15.148438zm0 0" data-original="#000000" class="" style="fill:#2978CC" data-old_color="#000000"/></g></g> </svg>
