<svg height="512" viewBox="0 0 300 300" width="512" xmlns="http://www.w3.org/2000/svg" xmlns:xlink="http://www.w3.org/1999/xlink"><linearGradient id="linear-gradient" gradientUnits="userSpaceOnUse" x1="150" x2="150" y1="277.58" y2="-22.42"><stop offset="0" stop-color="#ffdc7f"/><stop offset=".07" stop-color="#fdbc68"/><stop offset=".26" stop-color="#f76d30"/><stop offset=".31" stop-color="#ea6145"/><stop offset=".42" stop-color="#d14970"/><stop offset=".51" stop-color="#c23a8a"/><stop offset=".56" stop-color="#bc3494"/><stop offset=".61" stop-color="#a33fa2"/><stop offset=".67" stop-color="#884bb2"/><stop offset=".73" stop-color="#7752bc"/><stop offset=".77" stop-color="#7155bf"/><stop offset=".83" stop-color="#655ac6"/><stop offset=".91" stop-color="#595fcd"/><stop offset="1" stop-color="#5561cf"/></linearGradient><g id="Layer_2" data-name="Layer 2"><g id="Icons"><g id="Instagram_Icon" data-name="Instagram Icon"><circle id="Background" cx="150" cy="150" fill="url(#linear-gradient)" r="150"/><g id="Instagram" fill="#fff"><path d="m54 149.87c0-15.85 0-31.71 0-47.56a48 48 0 0 1 40.6-47.72 55.8 55.8 0 0 1 9-.55q47.4-.04 94.69-.04a48.06 48.06 0 0 1 47.71 47.83q0 48.09 0 96.18a48 48 0 0 1 -48 48q-48.2 0-96.4 0c-23.93 0-44.77-18.59-47.14-42.37-.74-7.43-.4-15-.44-22.47-.07-10.42 0-20.85 0-31.27zm178.25.32c0-16.07 0-32.13 0-48.19a34.06 34.06 0 0 0 -34.25-34.26q-48 0-95.95 0a34 34 0 0 0 -34.26 34.31q0 48 0 96a34 34 0 0 0 34.31 34.26q47.87.06 95.74 0a34.08 34.08 0 0 0 34.48-34.53q-.01-23.78-.04-47.59z"/><path d="m150.14 102a48 48 0 1 1 -.37 96c-26.13 0-47.8-21.76-47.76-48a48.11 48.11 0 0 1 48.13-48zm34.15 48a34.28 34.28 0 1 0 -34.29 34.28 34.27 34.27 0 0 0 34.29-34.28z"/><path d="m218.57 95.18a13.72 13.72 0 1 1 -13.57-13.74 13.81 13.81 0 0 1 13.57 13.74z"/></g></g></g></g></svg>