<?xml version="1.0"?>
<svg xmlns="http://www.w3.org/2000/svg" height="512px" viewBox="0 -23 512.00063 512" width="512px"><g><path d="m473.902344 64.222656-48.882813-48.882812c-9.894531-9.890625-23.0625-15.339844-37.085937-15.339844-14.023438 0-27.191406 5.449219-37.085938 15.339844l-113.496094 113.496094c-20.445312 20.449218-20.445312 53.722656 0 74.171874l6.511719 6.507813-11.589843 11.585937-6.507813-6.507812c-20.449219-20.449219-53.71875-20.449219-74.167969 0l-21.769531 21.765625c-2.929687 2.929687-2.929687 7.679687 0 10.609375 1.464844 1.460938 3.386719 2.195312 5.304687 2.195312 1.917969 0 3.839844-.734374 5.304688-2.195312l21.765625-21.769531c14.601563-14.601563 38.355469-14.597657 52.957031 0l6.507813 6.507812-14.648438 14.652344-6.511719-6.511719c-3.15625-3.15625-7.355468-4.894531-11.824218-4.894531-4.472656 0-8.671875 1.738281-11.828125 4.894531l-113.5 113.5c-6.519531 6.519532-6.519531 17.132813 0 23.65625l48.882812 48.878906c3.261719 3.261719 7.546875 4.890626 11.828125 4.890626 4.285156 0 8.566406-1.628907 11.828125-4.890626l19.828125-19.824218c2.929688-2.929688 2.929688-7.679688 0-10.609375-2.929687-2.925781-7.679687-2.925781-10.609375 0l-19.824219 19.828125c-.414062.414062-.894531.503906-1.222656.503906s-.808594-.089844-1.21875-.503906l-48.882812-48.882813c-.417969-.414062-.503906-.890625-.503906-1.21875s.085937-.808593.503906-1.222656l113.496094-113.496094c.414062-.414062.890624-.503906 1.21875-.503906.328124 0 .808593.089844 1.222656.503906l7.402344 7.402344c-4.8125 9.515625-3.257813 21.453125 4.683593 29.394531 4.945313 4.941406 11.4375 7.414063 17.929688 7.414063 3.9375 0 7.875-.914063 11.464843-2.730469l7.402344 7.402344c.414063.414062.5.890625.5 1.21875s-.085937.808594-.5 1.222656l-70.574218 70.574219c-2.929688 2.929687-2.929688 7.679687 0 10.605469 1.464843 1.464843 3.382812 2.199218 5.304687 2.199218 1.917969 0 3.835937-.734375 5.300781-2.199218l70.574219-70.574219c3.15625-3.15625 4.898437-7.355469 4.898437-11.828125 0-4.46875-1.738281-8.667969-4.894531-11.828125l-6.511719-6.507813 14.648438-14.648437 6.511719 6.507812c14.601562 14.601563 14.601562 38.355469 0 52.957031l-113.5 113.496094c-14.601563 14.601563-38.355469 14.597656-52.953125 0l-48.882813-48.886718c-7.058593-7.058594-10.949219-16.460938-10.949219-26.476563s3.890626-19.417969 10.949219-26.476563l68.632813-68.636718c2.929687-2.929688 2.929687-7.675782 0-10.605469-2.929688-2.929687-7.675782-2.929687-10.605469 0l-68.632813 68.636719c-9.894531 9.890625-15.34375 23.0625-15.34375 37.085937 0 14.019531 5.449219 27.191407 15.34375 37.082031l48.878907 48.882813c10.226562 10.226563 23.65625 15.335937 37.085937 15.335937 13.429688 0 26.859375-5.109374 37.085938-15.335937l113.496094-113.496094c9.890624-9.894531 15.339843-23.0625 15.339843-37.085937 0-14.019532-5.449219-27.191406-15.339843-37.082032l-6.507813-6.511718 11.585937-11.585938 6.507813 6.507813c9.894531 9.894531 23.0625 15.339843 37.085937 15.339843 14.019532 0 27.191407-5.445312 37.082032-15.335937l22.078125-22.078125c2.925781-2.929688 2.925781-7.675781 0-10.605469-2.933594-2.925781-7.679688-2.925781-10.609375 0l-22.074219 22.074219c-14.601563 14.601562-38.355469 14.601562-52.957031 0l-6.507813-6.507812 14.652344-14.648438 6.507813 6.507812c3.15625 3.15625 7.355468 4.894532 11.828124 4.894532 4.46875 0 8.671876-1.738282 11.828126-4.894532l113.496093-113.5c6.519531-6.519531 6.519531-17.132812 0-23.652343l-48.882812-48.882813c-6.523438-6.519531-17.132813-6.519531-23.65625 0l-113.496094 113.496094c-3.15625 3.15625-4.894531 7.355469-4.894531 11.828125 0 4.46875 1.738281 8.671875 4.894531 11.828125l6.507813 6.507812-14.648438 14.652344-6.511719-6.511718c-14.597656-14.601563-14.597656-38.355469 0-52.953126l113.5-113.496093c7.058594-7.0625 16.460938-10.949219 26.476563-10.949219s19.417968 3.886719 26.476562 10.949219l48.882813 48.878906c14.601562 14.601563 14.601562 38.355469 0 52.957031l-68.328125 68.324219c-2.925782 2.933594-2.925782 7.679687 0 10.609375 2.933594 2.925781 7.679687 2.925781 10.609375 0l68.328125-68.328125c20.445312-20.449219 20.445312-53.71875 0-74.167969zm-261.308594 212.421875c-4.039062-4.039062-4.039062-10.609375 0-14.648437l72.160156-72.160156c2.023438-2.019532 4.675782-3.03125 7.328125-3.03125 2.652344 0 5.304688 1.011718 7.324219 3.03125 4.039062 4.039062 4.039062 10.609374 0 14.648437l-72.164062 72.160156c-4.035157 4.039063-10.609376 4.039063-14.648438 0zm60.621094-111.941406 113.496094-113.5c.414062-.414063.894531-.5 1.222656-.5s.808594.085937 1.222656.5l48.878906 48.882813c.675782.671874.675782 1.769531.003906 2.441406l-113.5 113.496094c-.414062.414062-.890624.503906-1.21875.503906-.328124 0-.808593-.089844-1.222656-.503906l-7.402344-7.402344c4.8125-9.515625 3.257813-21.453125-4.683593-29.394532-7.941407-7.9375-19.878907-9.496093-29.394531-4.683593l-7.402344-7.402344c-.414063-.414063-.503906-.890625-.503906-1.21875s.089843-.804687.503906-1.21875zm0 0" data-original="#000000" class="active-path" data-old_color="#000000" fill="#2978CC"/><path d="m492.789062 155.109375c-2.929687-2.929687-7.675781-2.929687-10.605468 0l-43.160156 43.160156c-2.929688 2.929688-2.929688 7.675781 0 10.605469 1.464843 1.464844 3.382812 2.195312 5.304687 2.195312 1.917969 0 3.835937-.730468 5.300781-2.195312l43.160156-43.160156c2.929688-2.929688 2.929688-7.675782 0-10.605469zm0 0" data-original="#000000" class="active-path" data-old_color="#000000" fill="#2978CC"/><path d="m509.804688 172.121094c-2.929688-2.925782-7.679688-2.925782-10.609376 0l-11.304687 11.308594c-2.929687 2.929687-2.929687 7.679687 0 10.609374 1.464844 1.460938 3.382813 2.195313 5.300781 2.195313 1.921875 0 3.839844-.734375 5.304688-2.195313l11.308594-11.308593c2.929687-2.929688 2.929687-7.679688 0-10.609375zm0 0" data-original="#000000" class="active-path" data-old_color="#000000" fill="#2978CC"/><path d="m29.816406 311.371094 43.160156-43.160156c2.929688-2.929688 2.929688-7.675782 0-10.605469-2.929687-2.929688-7.675781-2.929688-10.605468 0l-43.160156 43.160156c-2.929688 2.929687-2.929688 7.675781 0 10.605469 1.464843 1.464844 3.386718 2.195312 5.304687 2.195312s3.835937-.730468 5.300781-2.195312zm0 0" data-original="#000000" class="active-path" data-old_color="#000000" fill="#2978CC"/><path d="m24.113281 272.441406c-2.929687-2.925781-7.679687-2.925781-10.609375 0l-11.308594 11.308594c-2.925781 2.929688-2.925781 7.679688 0 10.609375 1.464844 1.464844 3.386719 2.195313 5.304688 2.195313s3.839844-.730469 5.304688-2.195313l11.308593-11.308594c2.925781-2.929687 2.925781-7.675781 0-10.609375zm0 0" data-original="#000000" class="active-path" data-old_color="#000000" fill="#2978CC"/></g> </svg>
