<?xml version="1.0"?>
<svg xmlns="http://www.w3.org/2000/svg" xmlns:xlink="http://www.w3.org/1999/xlink" version="1.1" id="Capa_1" x="0px" y="0px" viewBox="0 0 53 53" style="enable-background:new 0 0 53 53;" xml:space="preserve" width="512px" height="512px" class="hovered-paths"><g><polygon style="fill:#B6B6B6" points="18,23.243 2.256,7.499 0,8 0,51 2.099,50.534 18,34.632 " data-original="#43B05C" class="" data-old_color="#43B05C"/><polygon style="fill:#B6B6B6" points="9.372,48.917 18,47 18,40.289 " data-original="#48A0DC" class="hovered-path active-path" data-old_color="#48A0DC"/><polygon style="fill:#B6B6B6" points="18,4 6.884,6.47 18,17.586 " data-original="#43B05C" class="" data-old_color="#43B05C"/><polygon style="fill:#B6B6B6" points="49.449,3.184 35,8 35,17.632 " data-original="#43B05C" class="" data-old_color="#43B05C"/><polygon style="fill:#B6B6B6" points="35,23.289 35,50 53,43 53,5.289 " data-original="#48A0DC" class="hovered-path active-path" data-old_color="#48A0DC"/><polygon style="fill:#999999" points="26.523,26.109 35,17.632 35,8 18,4 18,17.586 " data-original="#3D994F" class="" data-old_color="#3D994F"/><polygon style="fill:#999999" points="18,23.243 18,34.632 23.695,28.938 " data-original="#3D994F" class="" data-old_color="#3D994F"/><polygon style="fill:#999999" points="18,40.289 18,47 35,50 35,23.289 " data-original="#4393BF" class="" data-old_color="#4393BF"/><polygon style="fill:#B6B6B6" points="18,17.586 6.884,6.47 2.256,7.499 18,23.243 " data-original="#EFCE4A" class="" data-old_color="#EFCE4A"/><polygon style="fill:#B6B6B6" points="18,34.632 2.099,50.534 9.372,48.917 18,40.289 " data-original="#EFCE4A" class="" data-old_color="#EFCE4A"/><polygon style="fill:#B6B6B6" points="35,23.289 53,5.289 53,2 49.449,3.184 35,17.632 " data-original="#EFCE4A" class="" data-old_color="#EFCE4A"/><polygon style="fill:#999999" points="26.523,26.109 18,17.586 18,23.243 23.695,28.938 18,34.632 18,40.289 35,23.289 35,17.632   " data-original="#D6B445" class="" data-old_color="#D6B445"/></g> </svg>
