<?xml version="1.0"?>
<svg xmlns="http://www.w3.org/2000/svg" height="512px" viewBox="-131 0 512 512" width="512px" class=""><g><path d="m196.277344 34.765625h-142.375c-10.015625 0-18.167969 8.148437-18.167969 18.167969v365.394531c0 10.015625 8.152344 18.167969 18.167969 18.167969h25.789062c4.15625 0 7.527344-3.371094 7.527344-7.527344s-3.371094-7.523438-7.527344-7.523438h-25.789062c-1.71875 0-3.117188-1.398437-3.117188-3.117187v-140.136719l148.609375 78.816406v61.320313c0 1.71875-1.398437 3.117187-3.117187 3.117187h-81.722656c-4.15625 0-7.523438 3.371094-7.523438 7.527344s3.367188 7.523438 7.523438 7.523438h81.722656c10.015625 0 18.167968-8.152344 18.167968-18.167969v-365.394531c0-10.019532-8.152343-18.167969-18.167968-18.167969zm3.117187 305.210937-148.609375-78.820312v-22.171875l148.609375 78.820313zm0-39.207031-148.609375-78.816406v-28.148437l148.609375 78.816406zm0-109.390625-27.847656-14.769531c-3.667969-1.945313-8.222656-.546875-10.171875 3.125-1.945312 3.667969-.546875 8.222656 3.121094 10.171875l34.898437 18.507812v47.175782l-148.609375-78.820313v-47.175781l82.75 43.890625c3.667969 1.945313 8.226563.550781 10.171875-3.121094 1.945313-3.671875.550781-8.226562-3.121093-10.175781l-89.804688-47.625v-59.628906c0-1.71875 1.402344-3.117188 3.121094-3.117188h142.371094c1.722656 0 3.121093 1.398438 3.121093 3.117188zm0 0" data-original="#000000" class="active-path" data-old_color="#000000" fill="#2978CC"/><path d="m222.398438 0h-194.617188c-15.320312 0-27.78125 12.460938-27.78125 27.78125v469.910156c0 7.890625 6.417969 14.308594 14.3125 14.308594h30.753906c7.890625 0 14.308594-6.417969 14.308594-14.308594v-26.429687h131.429688v26.429687c0 7.890625 6.417968 14.308594 14.308593 14.308594h30.753907c7.890624 0 14.3125-6.417969 14.3125-14.308594v-469.910156c0-15.320312-12.460938-27.78125-27.78125-27.78125zm-178.070313 496.949219h-29.277344v-25.6875h29.277344zm190.800781 0h-29.277344v-25.6875h29.277344zm0-40.738281h-220.078125v-428.429688c0-7.019531 5.710938-12.730469 12.730469-12.730469h194.617188c7.019531 0 12.730468 5.710938 12.730468 12.730469zm0 0" data-original="#000000" class="active-path" data-old_color="#000000" fill="#2978CC"/></g> </svg>
