<svg id="Capa_1" enable-background="new 0 0 96 96" height="512" viewBox="0 0 96 96" width="512" xmlns="http://www.w3.org/2000/svg"><g><path d="m36.001 6.622c-.89 0-1.46.218-1.809.567-.347.349-.565.918-.565 1.809v44.379h1.746v-42.378c0-.503-.003-.874.035-1.222.038-.341.124-.686.402-.964.277-.277.622-.363.963-.401.347-.039.725-.035 1.228-.035h19.998c.503 0 .883-.004 1.229.035.341.038.69.125.965.401.276.276.356.618.394.964.04.347.036.719.036 1.222v42.378h1.753v-44.379c0-.892-.221-1.461-.568-1.809-.349-.349-.916-.567-1.808-.567z"/><g><path d="m59.35 9.99-.03-.31-.31-.03c-.23-.02-.54-.02-1.01-.02h-20c-.47 0-.78 0-1.01.02l-.31.03-.03.31c-.02.21-.03.53-.03 1.01v42.38h22.75v-42.38c0-.47 0-.78-.02-1.01zm-16.72 31.49c-.11.2-.32.33-.55.34-.23 0-.44-.12-.55-.33h-.01c-.05-.09-.08-.19-.08-.3 0-.12.04-.24.11-.34l.01-.01 9.9-17.15v-.01c.11-.19.32-.32.55-.32.23.01.43.13.54.32.11.2.1.43-.01.63l-9.91 17.16zm12.18-12.6h-.01l-4.24 7.36c-.11.19-.32.31-.54.31-.23 0-.44-.12-.55-.32-.11-.19-.11-.43 0-.62l4.25-7.35v-.01c.11-.2.32-.32.55-.32s.43.12.54.32c.05.09.08.2.08.31s-.03.22-.08.32z"/></g><path d="m27.624 54.628v.375 2.376h40.752v-2.751z"/><path d="m29.625 58.628v.375 30.375h1.746v-17.374-2.001-1.004-1.999-8.372z"/><path d="m32.62 58.63v8.75h30.75v-8.75zm18.37 5h-5.98c-.34-.01-.61-.28-.61-.63 0-.34.27-.62.61-.62h5.98c.35 0 .61.28.61.62 0 .35-.26.62-.61.63z"/><path d="m64.623 58.628v.375 11 2.001 17.374h1.753v-30.75z"/><path d="m32.622 68.624v.375 1.379h30.75v-1.754z"/></g></svg>