<?xml version="1.0"?>
<svg xmlns="http://www.w3.org/2000/svg" xmlns:xlink="http://www.w3.org/1999/xlink" version="1.1" id="Layer_1" x="0px" y="0px" viewBox="0 0 512 512" style="enable-background:new 0 0 512 512;" xml:space="preserve" width="512px" height="512px"><g><g>
	<g>
		<g>
			<path d="M256,0C114.848,0,0,114.848,0,256s114.848,256,256,256s256-114.848,256-256S397.152,0,256,0z M256,480     C132.48,480,32,379.52,32,256S132.48,32,256,32s224,100.48,224,224S379.52,480,256,480z" data-original="#000000" class="active-path" data-old_color="#000000" fill="#999999"/>
			<path d="M368.96,250.24c-0.4-0.976-1.04-1.808-1.632-2.704c-0.464-0.704-0.704-1.504-1.296-2.144     c-0.16-0.176-0.384-0.24-0.56-0.4c-0.176-0.176-0.224-0.4-0.416-0.56L207.968,100.224c-6.512-5.984-16.64-5.536-22.608,0.976     c-5.984,6.512-5.536,16.64,0.976,22.608l144.24,132.416l-143.792,132c-6.512,5.984-6.944,16.096-0.976,22.608     C188.96,414.256,193.28,416,197.6,416c3.856,0,7.744-1.392,10.816-4.208L365.056,268c0.176-0.176,0.256-0.4,0.416-0.576     c0.16-0.16,0.384-0.224,0.544-0.384c0.592-0.64,0.832-1.44,1.296-2.144c0.592-0.896,1.248-1.728,1.632-2.704     c0.4-0.976,0.512-1.968,0.704-2.976c0.192-1.008,0.448-1.968,0.448-2.992c0.016-1.04-0.24-2-0.432-3.008     C369.472,252.208,369.344,251.216,368.96,250.24z" data-original="#000000" class="active-path" data-old_color="#000000" fill="#999999"/>
		</g>
	</g>
</g></g> </svg>
