<?xml version="1.0"?>
<svg xmlns="http://www.w3.org/2000/svg" xmlns:xlink="http://www.w3.org/1999/xlink" version="1.1" id="Capa_1" x="0px" y="0px" viewBox="0 0 503.568 503.568" style="enable-background:new 0 0 503.568 503.568;" xml:space="preserve" width="512px" height="512px" class=""><g><polygon style="fill:#4DE1FF" points="231.743,306.534 155.924,350.31 193.875,372.169 233.913,306.467 " data-original="#11CEAA" class="" data-old_color="#11CEAA"/><g>
	<polygon style="fill:#2978CC" points="194.005,65.914 233.732,87.773 233.732,481.776 194.005,459.918  " data-original="#0CA88E" class="" data-old_color="#0CA88E"/>
	<polygon style="fill:#2978CC" points="156.085,43.811 156.085,131.371 274.582,198.829 274.582,111.273  " data-original="#0CA88E" class="" data-old_color="#0CA88E"/>
</g><polygon style="fill:#4DE1FF" points="231.904,0 156.085,43.78 233.732,87.773 309.862,43.993 " data-original="#11CEAA" class="" data-old_color="#11CEAA"/><polygon style="fill:#4DC3FF" points="233.732,87.773 233.732,481.776 309.862,438 309.862,43.993 " data-original="#26F9D0" class="active-path" data-old_color="#26F9D0"/><g>
	<polyline style="fill:#339AFF" points="309.862,43.993 233.732,87.773 233.732,481.776  " data-original="#1FEAC3" class="" data-old_color="#1FEAC3"/>
	<polygon style="fill:#339AFF" points="271.514,415.898 271.514,503.477 347.644,459.693 347.644,372.114  " data-original="#1FEAC3" class="" data-old_color="#1FEAC3"/>
</g><polygon style="fill:#2978CC" points="155.924,350.259 155.924,437.815 271.797,503.568 271.797,416.012 " data-original="#0CA88E" class="" data-old_color="#0CA88E"/><polygon style="fill:#4DE1FF" points="309.201,350.251 233.381,394.027 271.332,415.862 347.467,372.086 " data-original="#11CEAA" class="" data-old_color="#11CEAA"/></g> </svg>
