<?xml version="1.0"?>
<svg xmlns="http://www.w3.org/2000/svg" height="512px" viewBox="-30 0 512 512" width="512px"><g><path d="m409.066406 1.375h-162.992187c-23.183594 0-42.046875 18.859375-42.046875 42.046875v123.519531c0 5.523438 4.476562 10 10 10 5.523437 0 10-4.476562 10-10v-123.519531c0-12.15625 9.890625-22.046875 22.046875-22.046875h162.992187c12.15625 0 22.046875 9.890625 22.046875 22.046875v337.5625c0 12.15625-9.890625 22.046875-22.046875 22.046875h-162.992187c-12.15625 0-22.046875-9.890625-22.046875-22.046875v-123.824219c0-5.523437-4.476563-10-10-10-5.523438 0-10 4.476563-10 10v123.820313c0 23.1875 18.863281 42.046875 42.046875 42.046875h71.734375c-.910156 38.1875-32.230469 68.972656-70.628906 68.972656-38.96875 0-70.671876-31.703125-70.671876-70.671875v-360.191406c0-33.710938-27.425781-61.136719-61.136718-61.136719-33.710938 0-61.136719 27.425781-61.136719 61.136719v162.195312c-11.964844 3.707031-20.683594 14.871094-20.683594 28.039063v14.488281c-19.238281 4.734375-33.550781 22.125-33.550781 42.804687v84.605469c0 5.523438 4.476562 10 10 10h19.09375v35.820313c0 5.519531 4.476562 10 10 10s10-4.480469 10-10v-35.820313h31.664062v35.820313c0 5.519531 4.476563 10 10 10 5.523438 0 10-4.480469 10-10v-35.820313h17.894532c5.523437 0 10-4.476562 10-10v-84.605469c0-20.847656-14.550782-38.347656-34.023438-42.914062v-14.378906c0-13.058594-8.578125-24.148438-20.394531-27.945313v-162.289062c0-22.683594 18.453125-41.136719 41.136719-41.136719s41.136718 18.453125 41.136718 41.136719v360.191406c0 49.996094 40.675782 90.671875 90.671876 90.671875 49.429687 0 89.738281-39.757812 90.648437-88.972656h71.234375c23.1875 0 42.046875-18.859375 42.046875-42.046875v-337.558594c.003906-23.1875-18.859375-42.046875-42.042969-42.046875zm-300.414062 307.289062v74.605469h-88.652344v-74.605469c0-13.28125 10.804688-24.089843 24.089844-24.089843h40.472656c13.285156 0 24.089844 10.808593 24.089844 24.089843zm-34.023438-44.089843h-21.078125v-13.203125c0-5.152344 4.195313-9.34375 9.347657-9.34375h2.382812c5.15625 0 9.347656 4.191406 9.347656 9.34375zm0 0" data-original="#000000" class="active-path" data-old_color="#000000" fill="#2978CC"/><path d="m48.933594 309.65625c-5.523438 0-10 4.476562-10 10 0 5.519531 4.476562 10 10 10h30.785156c5.523438 0 10-4.480469 10-10 0-5.523438-4.476562-10-10-10zm0 0" data-original="#000000" class="active-path" data-old_color="#000000" fill="#2978CC"/><path d="m79.71875 340.441406h-30.785156c-5.523438 0-10 4.476563-10 10 0 5.519532 4.476562 10 10 10h30.785156c5.523438 0 10-4.480468 10-10 0-5.523437-4.476562-10-10-10zm0 0" data-original="#000000" class="active-path" data-old_color="#000000" fill="#2978CC"/><path d="m291.445312 307.300781c2.066407 5.039063 8.039063 7.5 13.0625 5.410157 5.03125-2.097657 7.480469-8.023438 5.398438-13.0625-2.082031-5.035157-8.015625-7.488282-13.050781-5.410157-5.027344 2.078125-7.503907 8.039063-5.410157 13.0625zm0 0" data-original="#000000" class="active-path" data-old_color="#000000" fill="#2978CC"/><path d="m345.226562 307.300781c2.0625 5.035157 8.042969 7.503907 13.058594 5.410157 5.03125-2.101563 7.5-8.015626 5.410156-13.0625-2.082031-5.03125-8.03125-7.496094-13.058593-5.410157-5.019531 2.085938-7.507813 8.03125-5.410157 13.0625zm0 0" data-original="#000000" class="active-path" data-old_color="#000000" fill="#2978CC"/><path d="m327.570312 384.933594c44.914063 0 81.453126-36.539063 81.453126-81.453125 0-44.914063-36.539063-81.453125-81.453126-81.453125-44.914062 0-81.453124 36.539062-81.453124 81.453125 0 44.914062 36.539062 81.453125 81.453124 81.453125zm0-142.90625c33.886719 0 61.453126 27.566406 61.453126 61.453125 0 33.882812-27.566407 61.453125-61.453126 61.453125-33.886718 0-61.453124-27.570313-61.453124-61.453125 0-33.886719 27.566406-61.453125 61.453124-61.453125zm0 0" data-original="#000000" class="active-path" data-old_color="#000000" fill="#2978CC"/><path d="m327.570312 204.140625c44.914063 0 81.453126-36.539063 81.453126-81.453125s-36.539063-81.453125-81.453126-81.453125c-44.914062 0-81.453124 36.539063-81.453124 81.453125s36.539062 81.453125 81.453124 81.453125zm0-142.90625c33.886719 0 61.453126 27.566406 61.453126 61.453125s-27.566407 61.453125-61.453126 61.453125c-33.886718 0-61.453124-27.566406-61.453124-61.453125s27.566406-61.453125 61.453124-61.453125zm0 0" data-original="#000000" class="active-path" data-old_color="#000000" fill="#2978CC"/><path d="m291.445312 126.511719c1.609376 3.929687 5.726563 6.472656 9.964844 6.144531 4.25-.328125 7.921875-3.394531 8.960938-7.539062 2.128906-8.472657-7.363282-15.476563-14.832032-11.007813-4.191406 2.507813-5.972656 7.894531-4.09375 12.402344zm0 0" data-original="#000000" class="active-path" data-old_color="#000000" fill="#2978CC"/><path d="m345.226562 126.511719c2.0625 5.039062 8.039063 7.492187 13.058594 5.410156 5.03125-2.089844 7.496094-8.023437 5.410156-13.0625-2.082031-5.03125-8.03125-7.496094-13.058593-5.410156-5.023438 2.085937-7.507813 8.03125-5.410157 13.0625zm0 0" data-original="#000000" class="active-path" data-old_color="#000000" fill="#2978CC"/><path d="m204.796875 216.03125c2.097656 5.03125 8.015625 7.484375 13.058594 5.40625 5.039062-2.070312 7.484375-8.039062 5.410156-13.058594-2.078125-5.039062-8.03125-7.488281-13.058594-5.410156-5.054687 2.089844-7.476562 8.019531-5.410156 13.0625zm0 0" data-original="#000000" class="active-path" data-old_color="#000000" fill="#2978CC"/></g> </svg>
