<?xml version="1.0" encoding="iso-8859-1"?>
<!-- Generator: Adobe Illustrator 16.0.0, SVG Export Plug-In . SVG Version: 6.00 Build 0)  -->
<!DOCTYPE svg PUBLIC "-//W3C//DTD SVG 1.1//EN" "http://www.w3.org/Graphics/SVG/1.1/DTD/svg11.dtd">
<svg version="1.1" id="Capa_1" xmlns="http://www.w3.org/2000/svg" xmlns:xlink="http://www.w3.org/1999/xlink" x="0px" y="0px"
	 width="435.747px" height="435.746px" viewBox="0 0 435.747 435.746" style="enable-background:new 0 0 435.747 435.746;"
	 xml:space="preserve">
<g>
	<path d="M336.387,131.431v172.872c0,14.188-11.504,25.698-25.698,25.698c-14.189,0-25.696-11.51-25.696-25.698v-7.584
		c-2.287,0.346-4.616,0.579-7.002,0.579h-79.91c-25.802,0-46.72-20.913-46.72-46.72v-10.747h-20.049
		c-9.086,0-12.742-4.881-14.192-12.142H0v-27.883h117.699c1.758-5.957,5.54-9.812,13.613-9.812h20.049v-4.829
		c0-25.798,20.917-46.72,46.72-46.72h79.91c2.386,0,4.715,0.241,7.002,0.583v-7.587c0-14.188,11.507-25.697,25.696-25.697
		C324.883,105.745,336.387,117.242,336.387,131.431z M435.747,169.896c0-10.063-8.165-18.222-18.223-18.222h-73.193v36.443h73.193
		C427.582,188.118,435.747,179.965,435.747,169.896z M417.524,246.371h-73.193v36.443h73.193c10.058,0,18.223-8.16,18.223-18.223
		S427.582,246.371,417.524,246.371z"/>
</g>
<g>
</g>
<g>
</g>
<g>
</g>
<g>
</g>
<g>
</g>
<g>
</g>
<g>
</g>
<g>
</g>
<g>
</g>
<g>
</g>
<g>
</g>
<g>
</g>
<g>
</g>
<g>
</g>
<g>
</g>
</svg>
