<?xml version="1.0"?>
<svg xmlns="http://www.w3.org/2000/svg" height="512px" viewBox="0 0 426.66667 426.66667" width="512px" class=""><g><path d="m213.332031 21.332031c-106.039062 0-192 85.960938-192 192 0 106.039063 85.960938 192 192 192 106.039063 0 192-85.960937 192-192-.15625-105.972656-86.027343-191.839843-192-192zm39.042969 258.667969c2.125 1.863281 3.421875 4.5 3.601562 7.320312.179688 2.824219-.769531 5.601563-2.644531 7.71875-2.03125 2.289063-4.9375 3.605469-8 3.628907-2.59375.003906-5.097656-.945313-7.039062-2.667969l-85.332031-74.667969c-2.304688-2.019531-3.628907-4.933593-3.628907-8 0-3.0625 1.324219-5.980469 3.628907-8l85.332031-74.664062c4.417969-3.890625 11.152343-3.460938 15.039062.957031 3.890625 4.421875 3.460938 11.152344-.957031 15.042969l-76.160156 66.664062zm0 0" fill="#42a5f5" data-original="#42A5F5" class="active-path" data-old_color="#42a5f5" style="fill:#00000000"/><g fill="#1976d2"><path d="m213.332031 0c-117.820312 0-213.332031 95.511719-213.332031 213.332031 0 117.820313 95.511719 213.335938 213.332031 213.335938 117.820313 0 213.335938-95.515625 213.335938-213.335938-.117188-117.769531-95.5625-213.214843-213.335938-213.332031zm0 405.332031c-106.039062 0-192-85.960937-192-192 0-106.039062 85.960938-192 192-192 106.039063 0 192 85.960938 192 192-.15625 105.972657-86.027343 191.84375-192 192zm0 0" data-original="#000000" class="" data-old_color="#000000" style="fill:#2978CC"/><path d="m253.332031 131.625c-1.847656-2.148438-4.488281-3.460938-7.316406-3.640625-2.832031-.179687-5.613281.785156-7.722656 2.683594l-85.332031 74.664062c-2.304688 2.019531-3.628907 4.9375-3.628907 8 0 3.066407 1.324219 5.980469 3.628907 8l85.332031 74.667969c1.941406 1.722656 4.445312 2.671875 7.039062 2.667969 3.0625-.023438 5.96875-1.339844 8-3.628907 1.875-2.117187 2.824219-4.894531 2.644531-7.71875-.179687-2.820312-1.476562-5.457031-3.601562-7.320312l-76.160156-66.667969 76.160156-66.664062c2.125-1.867188 3.421875-4.5 3.601562-7.320313.179688-2.824218-.769531-5.601562-2.644531-7.722656zm0 0" data-original="#000000" class="" data-old_color="#000000" style="fill:#2978CC"/></g></g> </svg>
