<?xml version="1.0"?>
<svg xmlns="http://www.w3.org/2000/svg" xmlns:xlink="http://www.w3.org/1999/xlink" version="1.1" id="Layer_1" x="0px" y="0px" viewBox="0 0 512 512" style="enable-background:new 0 0 512 512;" xml:space="preserve" width="512px" height="512px"><g><g>
	<g>
		<g>
			<path d="M256,0C114.848,0,0,114.848,0,256s114.848,256,256,256s256-114.848,256-256S397.152,0,256,0z M256,480     C132.48,480,32,379.52,32,256S132.48,32,256,32s224,100.48,224,224S379.52,480,256,480z" data-original="#000000" class="active-path" data-old_color="#000000" fill="#999999"/>
			<path d="M326.64,101.184c-5.968-6.512-16.096-6.96-22.608-0.976L146.944,244.416c-0.176,0.16-0.24,0.384-0.416,0.56     c-0.176,0.16-0.4,0.224-0.56,0.416c-0.592,0.64-0.832,1.44-1.296,2.144c-0.592,0.896-1.248,1.728-1.632,2.704     c-0.4,0.976-0.512,1.968-0.704,2.976c-0.192,1.008-0.448,1.968-0.448,2.992s0.256,1.984,0.448,2.992     c0.192,1.008,0.32,2,0.704,2.976c0.4,0.976,1.04,1.808,1.632,2.704c0.464,0.704,0.704,1.504,1.296,2.144     c0.16,0.176,0.384,0.224,0.544,0.384c0.176,0.176,0.24,0.416,0.416,0.576l156.64,143.792c3.088,2.832,6.976,4.224,10.832,4.224     c4.336,0,8.64-1.744,11.792-5.184c5.984-6.512,5.536-16.64-0.976-22.608l-143.792-132l144.24-132.416     C332.176,117.808,332.624,107.68,326.64,101.184z" data-original="#000000" class="active-path" data-old_color="#000000" fill="#999999"/>
		</g>
	</g>
</g></g> </svg>
