<?xml version="1.0"?>
<svg xmlns="http://www.w3.org/2000/svg" id="Layer_1" enable-background="new 0 0 512 512" height="512px" viewBox="0 0 512 512" width="512px"><g><path id="XMLID_732_" d="m434.967 76.303c4.143 0 7.5-3.358 7.5-7.5v-56.303c0-6.893-5.607-12.5-12.5-12.5h-20.673c-6.893 0-12.5 5.607-12.5 12.5v32.909h-14.153c-.251-2.82-.535-5.614-.861-8.372-.744-6.29-6.083-11.033-12.419-11.033h-27.361c-1.732-4.898-6.389-8.337-11.78-8.337h-51.723c-5.39 0-10.048 3.438-11.779 8.337h-21.437c-1.732-4.898-6.389-8.337-11.78-8.337h-51.723c-5.39 0-10.048 3.438-11.779 8.337h-27.361c-6.336 0-11.675 4.743-12.419 11.034-.326 2.757-.61 5.551-.861 8.37h-14.153v-32.908c0-6.893-5.607-12.5-12.5-12.5h-20.672c-6.893 0-12.5 5.607-12.5 12.5v487c0 6.893 5.607 12.5 12.5 12.5h20.673c6.893 0 12.5-5.607 12.5-12.5v-20.987h281.588v20.987c0 6.893 5.607 12.5 12.5 12.5h20.673c6.893 0 12.5-5.607 12.5-12.5v-395.303c0-4.142-3.357-7.5-7.5-7.5s-7.5 3.358-7.5 7.5v392.803h-15.673v-482h15.673v53.803c0 4.142 3.357 7.5 7.5 7.5zm-38.173 34.958v31.176h-211.597c-4.143 0-7.5 3.358-7.5 7.5s3.357 7.5 7.5 7.5h211.597v99.361h-13.621c.478-7.207.728-14.565.728-21.959 0-12.812-.713-25.348-2.12-37.263-.744-6.291-6.083-11.034-12.419-11.034h-27.362c-1.732-4.898-6.389-8.337-11.779-8.337h-51.723c-5.39 0-10.047 3.438-11.779 8.337h-21.437c-1.732-4.898-6.389-8.337-11.779-8.337h-51.723c-5.39 0-10.047 3.438-11.779 8.337h-27.361c-6.336 0-11.675 4.743-12.419 11.035-1.407 11.914-2.12 24.451-2.12 37.262 0 7.395.249 14.753.728 21.959h-13.621v-99.361h34.597c4.143 0 7.5-3.358 7.5-7.5s-3.357-7.5-7.5-7.5h-34.597v-31.176zm-149.69-70.256h17.793c-.619 8.134-.937 16.484-.937 24.959 0 10.296.472 20.461 1.396 30.297h-18.709c.924-9.835 1.396-20.001 1.396-30.297-.002-8.475-.321-16.825-.939-24.959zm-103.235 215.793c-.502-7.193-.769-14.552-.769-21.959 0-11.436.594-22.625 1.766-33.297h23.313c-.618 8.132-.937 16.482-.937 24.96 0 10.328.474 20.487 1.395 30.296zm39.831 0c-.967-9.773-1.458-19.941-1.458-30.296 0-11.44.594-22.63 1.765-33.297h47.27c1.172 10.672 1.766 21.862 1.766 33.297 0 10.349-.491 20.517-1.459 30.296zm63.404-55.256h17.793c-.619 8.134-.937 16.484-.937 24.96 0 10.323.474 20.481 1.395 30.296h-18.708c.921-9.816 1.395-19.974 1.395-30.296-.001-8.475-.32-16.826-.938-24.96zm33.314 55.256c-.967-9.78-1.459-19.948-1.459-30.296 0-11.436.594-22.625 1.766-33.297h47.27c1.172 10.667 1.765 21.857 1.765 33.297 0 10.355-.491 20.523-1.458 30.296zm63.404-55.256h23.313c1.172 10.672 1.766 21.862 1.766 33.297 0 7.407-.267 14.766-.769 21.959h-24.767c.921-9.81 1.395-19.968 1.395-30.296-.001-8.478-.32-16.828-.938-24.96zm-228.616 70.256h281.588v31.177h-281.588zm281.588-211.389v35.852h-13.632c.482-7.236.739-14.596.739-21.96 0-4.673-.097-9.309-.286-13.892zm-27.894 13.892c0 7.372-.271 14.736-.775 21.96h-24.761c.924-9.831 1.395-19.997 1.395-30.297 0-8.477-.319-16.827-.937-24.959h23.313c1.172 10.673 1.765 21.862 1.765 33.296zm-40.906-41.633c1.172 10.668 1.765 21.857 1.765 33.296 0 10.326-.494 20.498-1.464 30.297h-47.87c-.97-9.803-1.465-19.976-1.465-30.297 0-11.435.594-22.624 1.766-33.296zm-96.719 0c1.172 10.672 1.766 21.862 1.766 33.296 0 10.321-.495 20.494-1.465 30.297h-47.87c-.97-9.799-1.464-19.971-1.464-30.297 0-11.439.594-22.629 1.765-33.296zm-63.097 8.337c-.618 8.132-.937 16.482-.937 24.959 0 10.3.471 20.466 1.395 30.297h-24.761c-.505-7.224-.775-14.588-.775-21.96 0-11.435.594-22.624 1.766-33.296zm-39.792 19.404c-.189 4.583-.286 9.219-.286 13.892 0 7.364.257 14.724.739 21.96h-13.632v-35.852zm-28.18 300.788v135.803h-15.673v-482h15.673v310.803c0 4.142 3.357 7.5 7.5 7.5s7.5-3.358 7.5-7.5v-7.828h281.588v99.361h-13.631c.481-7.225.737-14.584.737-21.959 0-12.811-.713-25.348-2.12-37.263-.744-6.29-6.083-11.033-12.419-11.033h-27.361c-1.731-4.898-6.389-8.337-11.78-8.337h-51.723c-5.39 0-10.048 3.439-11.78 8.337h-21.437c-1.731-4.898-6.389-8.337-11.78-8.337h-51.723c-5.39 0-10.048 3.439-11.78 8.337h-27.361c-6.336 0-11.675 4.743-12.419 11.034-1.407 11.915-2.12 24.451-2.12 37.262 0 7.375.256 14.734.737 21.959h-13.631v-56.139c0-4.142-3.357-7.5-7.5-7.5s-7.497 3.358-7.497 7.5zm43.669 56.139c-.505-7.212-.775-14.575-.775-21.959 0-11.435.594-22.624 1.766-33.296h23.313c-.618 8.132-.937 16.482-.937 24.959 0 10.303.472 20.467 1.396 30.296zm39.829 0c-.969-9.796-1.463-19.968-1.463-30.296 0-11.44.594-22.63 1.765-33.297h47.27c1.172 10.673 1.766 21.862 1.766 33.297 0 10.329-.494 20.501-1.463 30.296zm63.4-55.256h17.793c-.619 8.134-.937 16.484-.937 24.959 0 10.303.472 20.467 1.396 30.296h-18.71c.924-9.829 1.396-19.993 1.396-30.296-.001-8.474-.32-16.824-.938-24.959zm33.318 55.256c-.969-9.796-1.463-19.968-1.463-30.296 0-11.436.594-22.625 1.766-33.297h47.27c1.172 10.668 1.765 21.857 1.765 33.297 0 10.329-.494 20.501-1.463 30.296zm63.4-55.256h23.313c1.172 10.672 1.766 21.862 1.766 33.296 0 7.385-.271 14.747-.775 21.959h-24.762c.924-9.829 1.396-19.993 1.396-30.296-.001-8.477-.32-16.827-.938-24.959zm-228.616 101.433v-31.177h281.588v31.177z" data-original="#000000" class="active-path" data-old_color="#000000" fill="#2978CC"/></g> </svg>
