<?xml version="1.0"?>
<svg xmlns="http://www.w3.org/2000/svg" id="Layer_1" data-name="Layer 1" viewBox="0 0 512 512" width="512" height="512"><title>Bookcase</title><path d="M438,50a6,6,0,0,0-6-6H80a6,6,0,0,0-6,6V461a6,6,0,0,0,6,6H432a6,6,0,0,0,6-6ZM115,454V390h16v64Zm33,0V390h17v64Zm33,0V390h17v64Zm33,0V390h17v64Zm29-37.21L253.55,456H243Zm21.83,34.489L248.1,390.4l16.13-4.434,16.734,60.878ZM292.321,456c1.649-2,2.425-4.035,1.8-6.309l-19.914-72.569a6.121,6.121,0,0,0-2.819-3.685,6.013,6.013,0,0,0-4.557-.6l-25.905,6.921A6.161,6.161,0,0,0,236.9,378H208.176a5.972,5.972,0,0,0-2.21.426,5.964,5.964,0,0,0-2.21-.426H175.028a5.968,5.968,0,0,0-2.21.426,5.968,5.968,0,0,0-2.21-.426H141.88a5.964,5.964,0,0,0-2.21.426,5.972,5.972,0,0,0-2.21-.426H108.731c-3.313,0-5.731,3.057-5.731,6.371V456H86V372H426v84ZM202.959,132.845l16.734-60.878,16.13,4.434-16.734,60.878ZM241,102.79V140H230.922ZM402,140H386V76h16Zm-33,0H352V76h17Zm-33,0H319V76h17Zm-33,0H286V76h17Zm-33,0H253V76h17Zm-22.986,12H426v98H248V180.371A6.3,6.3,0,0,0,242.039,174H213.311a5.968,5.968,0,0,0-2.21.426,5.972,5.972,0,0,0-2.21-.426H180.163a5.964,5.964,0,0,0-2.21.426,5.972,5.972,0,0,0-2.21-.426H147.014a6.145,6.145,0,0,0-4.021,1.742l-25.9-7.028a6.066,6.066,0,0,0-7.376,4.264L89.8,245.439A6.011,6.011,0,0,0,90.365,250H86V152ZM102.959,242.845l16.734-60.878,16.13,4.434-16.734,60.878ZM141,212.79V250H130.786ZM153,250V186h17v64Zm33,0V186h17v64Zm33,0V186h17v64Zm207,12v98H414V290.371c0-3.314-2.351-6.371-5.665-6.371H379.607a5.972,5.972,0,0,0-2.21.426,5.964,5.964,0,0,0-2.21-.426H346.459a5.964,5.964,0,0,0-2.21.426,5.972,5.972,0,0,0-2.21-.426H313.311a5.968,5.968,0,0,0-2.21.426,5.972,5.972,0,0,0-2.21-.426H280.163a5.964,5.964,0,0,0-2.21.426,5.972,5.972,0,0,0-2.21-.426H247.014a6.145,6.145,0,0,0-4.021,1.742l-25.9-7.028a6.066,6.066,0,0,0-7.376,4.264L189.8,355.192a5.226,5.226,0,0,0,.879,4.808H86V262ZM202.959,352.845l16.734-60.878,16.13,4.434-16.734,60.878ZM241,322.79V360H230.651ZM253,360V296h17v64Zm33,0V296h17v64Zm33,0V296h17v64Zm33,0V296h17v64Zm34,0V296h16v64ZM426,56v84H414V70.371c0-3.314-2.351-6.371-5.665-6.371H379.607a5.972,5.972,0,0,0-2.21.426,5.964,5.964,0,0,0-2.21-.426H346.459a5.964,5.964,0,0,0-2.21.426,5.972,5.972,0,0,0-2.21-.426H313.311a5.968,5.968,0,0,0-2.21.426,5.972,5.972,0,0,0-2.21-.426H280.163a5.964,5.964,0,0,0-2.21.426,5.972,5.972,0,0,0-2.21-.426H247.014a6.145,6.145,0,0,0-4.021,1.742l-25.9-7.028a6.066,6.066,0,0,0-7.376,4.264L189.8,135.685c-.385,1.4-.239,2.315.316,4.315H86V56Z"/><path d="M464,24a6,6,0,0,0-6-6H53a6,6,0,0,0-6,6V488a6,6,0,0,0,6,6H458a6,6,0,0,0,6-6ZM453,482H59V30H453Z"/></svg>
