<?xml version="1.0"?>
<svg xmlns="http://www.w3.org/2000/svg" xmlns:xlink="http://www.w3.org/1999/xlink" version="1.1" id="Capa_1" x="0px" y="0px" viewBox="0 0 512 512" style="enable-background:new 0 0 512 512;" xml:space="preserve" width="512px" height="512px" class=""><g><path style="fill:#87B5E6" d="M456,70v163.19c0,123.94-81.29,233.2-200,268.81C137.292,466.404,56,357.136,56,233.19V70  c33.14,0,60-26.86,60-60h280C396,43.14,422.86,70,456,70z" data-original="#E6EFFF" class="active-path" data-old_color="#E6EFFF"/><path style="fill:#2978CC" d="M364.35,50h-216.7C137.56,73.04,119.04,91.56,96,101.65v131.54c0,103.04,63.81,192.7,160,226.74  c96.19-34.04,160-123.7,160-226.74V101.65C392.96,91.56,374.44,73.04,364.35,50z" data-original="#7368A3" class="" data-old_color="#7368A3"/><path style="fill:#87B5E6" d="M256,156c44.11,0,80,35.89,80,80s-35.89,80-80,80s-80-35.89-80-80S211.89,156,256,156z" data-original="#E6EFFF" class="active-path" data-old_color="#E6EFFF"/><path d="M255,59.938c5.925,0.588,10.99-4.027,10.99-9.938c0-5.538-4.46-9.99-9.99-9.99c-5.538,0-9.99,4.46-9.99,9.99  C246.01,55.147,249.882,59.43,255,59.938z" data-original="#000000" class="" style="fill:#000000"/><path d="M456,60c-27.57,0-50-22.43-50-50c0-5.522-4.478-10-10-10H116c-5.522,0-10,4.478-10,10c0,27.57-22.43,50-50,50  c-5.522,0-10,4.478-10,10v163.19c0,127.177,82.895,241.135,207.128,278.389c0.937,0.28,1.904,0.421,2.872,0.421  s1.937-0.141,2.873-0.422C380.415,475.119,466,363.149,466,233.19V70C466,64.478,461.522,60,456,60z M446,233.19  c0,119.448-76.221,222.892-190,258.353C143.128,456.365,66,351.984,66,233.19V79.288C96.611,74.89,120.89,50.611,125.288,20h261.424  C391.11,50.611,415.389,74.89,446,79.288V233.19z" data-original="#000000" class="" style="fill:#000000"/><path d="M373.51,45.988C371.916,42.35,368.322,40,364.35,40h-68.37c-5.522,0-10,4.478-10,10s4.478,10,10,10h62.047  c10.565,20.681,27.292,37.407,47.973,47.973V233.19c0,97.863-58.749,182.303-150,216.104c-91.251-33.802-150-118.241-150-216.104  V107.973C126.681,97.407,143.407,80.681,153.973,60h62.047c5.522,0,10-4.478,10-10s-4.478-10-10-10h-68.37  c-3.972,0-7.566,2.351-9.16,5.988c-9.133,20.854-25.648,37.369-46.502,46.502C88.351,94.084,86,97.679,86,101.65v131.54  c0,107.213,66.311,200.653,166.664,236.166c1.079,0.382,2.207,0.573,3.336,0.573s2.257-0.191,3.336-0.573  C359.605,433.873,426,340.49,426,233.19V101.65c0-3.972-2.351-7.566-5.988-9.16C399.158,83.357,382.643,66.842,373.51,45.988z" data-original="#000000" class="" style="fill:#000000"/><path d="M166,236c0,49.626,40.374,90,90,90s90-40.374,90-90s-40.374-90-90-90S166,186.374,166,236z M326,236  c0,38.598-31.402,70-70,70s-70-31.402-70-70s31.402-70,70-70S326,197.402,326,236z" data-original="#000000" class="" style="fill:#000000"/><path d="M233.071,238.929c-3.906-3.904-10.236-3.904-14.143,0c-3.905,3.905-3.905,10.237,0,14.143l20,20  C240.882,275.023,243.44,276,246,276s5.118-0.977,7.071-2.929l50-50c3.905-3.905,3.905-10.237,0-14.143  c-3.906-3.904-10.236-3.904-14.143,0L246,251.857L233.071,238.929z" data-original="#000000" class="" style="fill:#000000"/></g> </svg>
