<?xml version="1.0"?>
<svg xmlns="http://www.w3.org/2000/svg" height="512px" viewBox="0 0 480 480" width="512px"><g><path d="m448 64v16c8.835938 0 16 7.164062 16 16v240h-448v-240c0-8.835938 7.164062-16 16-16v-16c-17.671875 0-32 14.328125-32 32v272c0 17.671875 14.328125 32 32 32h157.246094l-19.199219 64h-18.046875v16h176v-16h-18.046875l-19.199219-64h157.246094c17.671875 0 32-14.328125 32-32v-272c0-17.671875-14.328125-32-32-32zm-154.753906 400h-106.492188l19.199219-64h68.09375zm170.753906-96c0 8.835938-7.164062 16-16 16h-416c-8.835938 0-16-7.164062-16-16v-16h448zm0 0" data-original="#000000" class="active-path" data-old_color="#000000" fill="#2978CC"/><path d="m64 32c0-8.835938 7.164062-16 16-16h320c8.835938 0 16 7.164062 16 16v288h16v-288c0-17.671875-14.328125-32-32-32h-320c-17.671875 0-32 14.328125-32 32v288h16zm0 0" data-original="#000000" class="active-path" data-old_color="#000000" fill="#2978CC"/><path d="m80 32h16v16h-16zm0 0" data-original="#000000" class="active-path" data-old_color="#000000" fill="#2978CC"/><path d="m112 32h16v16h-16zm0 0" data-original="#000000" class="active-path" data-old_color="#000000" fill="#2978CC"/><path d="m144 32h16v16h-16zm0 0" data-original="#000000" class="active-path" data-old_color="#000000" fill="#2978CC"/><path d="m125.191406 263.496094 128 48c.089844 0 .191406 0 .28125.046875.8125.285156 1.664063.441406 2.527344.457031 1.105469-.023438 2.195312-.277344 3.199219-.742188.128906-.058593.28125 0 .410156-.097656l96-48c2.699219-1.363281 4.398437-4.136718 4.390625-7.160156v-96c-.011719-.539062-.082031-1.074219-.207031-1.601562 0-.085938 0-.183594 0-.269532-.269531-1.027344-.738281-1.988281-1.378907-2.832031-.0625-.082031-.070312-.191406-.132812-.28125l-64-80c-2.355469-2.945313-6.449219-3.847656-9.824219-2.160156l-160 80c-2.722656 1.34375-4.445312 4.109375-4.457031 7.144531v96c-.003906 3.335938 2.066406 6.324219 5.191406 7.496094zm51.144532 1.601562v-46.890625l16 6v46.921875zm167.664062-14.042968-80 40v-78.109376l80-40zm-58.207031-161.007813 53.773437 67.199219-81.359375 40.683594-53.773437-67.203126zm-149.792969 74.898437 53.792969-26.898437 58.207031 72.761719v81.648437l-39.664062-14.855469v-58.9375c0-3.335937-2.070313-6.316406-5.191407-7.488281l-32-12c-2.457031-.921875-5.207031-.578125-7.363281.914063-2.15625 1.496094-3.445312 3.949218-3.445312 6.574218v52.921876l-24.335938-9.128907zm0 0" data-original="#000000" class="active-path" data-old_color="#000000" fill="#2978CC"/><path d="m80 288v24c0 4.417969 3.582031 8 8 8h24v-16h-16v-16zm0 0" data-original="#000000" class="active-path" data-old_color="#000000" fill="#2978CC"/><path d="m112 64h-24c-4.417969 0-8 3.582031-8 8v24h16v-16h16zm0 0" data-original="#000000" class="active-path" data-old_color="#000000" fill="#2978CC"/><path d="m384 304h-16v16h24c4.417969 0 8-3.582031 8-8v-24h-16zm0 0" data-original="#000000" class="active-path" data-old_color="#000000" fill="#2978CC"/><path d="m400 72c0-4.417969-3.582031-8-8-8h-24v16h16v16h16zm0 0" data-original="#000000" class="active-path" data-old_color="#000000" fill="#2978CC"/></g> </svg>
