<?xml version="1.0"?>
<svg xmlns="http://www.w3.org/2000/svg" xmlns:xlink="http://www.w3.org/1999/xlink" version="1.1" id="Capa_1" x="0px" y="0px" viewBox="0 0 60 60" style="enable-background:new 0 0 60 60;" xml:space="preserve" width="512px" height="512px" class=""><g><g>
	<path style="fill:#1B5FA8" d="M4.001,47c-0.378,0-0.74-0.215-0.909-0.581c-0.231-0.501-0.012-1.096,0.489-1.327l1.816-0.838   c0.502-0.231,1.096-0.012,1.327,0.489c0.231,0.501,0.012,1.096-0.489,1.327l-1.816,0.838C4.283,46.971,4.141,47,4.001,47z    M54.845,46.467c-0.141,0-0.283-0.029-0.418-0.092l-1.816-0.838c-0.501-0.231-0.721-0.826-0.489-1.327   c0.231-0.502,0.826-0.72,1.327-0.489l1.816,0.838c0.501,0.231,0.721,0.826,0.489,1.327C55.585,46.252,55.223,46.467,54.845,46.467z    M9.448,44.486c-0.378,0-0.74-0.216-0.908-0.582c-0.232-0.501-0.013-1.095,0.489-1.327l1.816-0.838   c0.499-0.231,1.096-0.013,1.327,0.489c0.232,0.501,0.013,1.095-0.489,1.327l-1.816,0.838C9.731,44.457,9.589,44.486,9.448,44.486z    M49.398,43.953c-0.141,0-0.283-0.029-0.418-0.092l-1.816-0.838c-0.501-0.231-0.721-0.826-0.489-1.327   c0.231-0.502,0.827-0.721,1.327-0.489l1.816,0.838c0.501,0.231,0.721,0.826,0.489,1.327C50.137,43.738,49.775,43.953,49.398,43.953   z M14.896,41.971c-0.378,0-0.74-0.215-0.909-0.581c-0.231-0.501-0.012-1.096,0.489-1.327l1.816-0.838   c0.502-0.231,1.096-0.012,1.327,0.489c0.231,0.501,0.012,1.096-0.489,1.327l-1.816,0.838   C15.179,41.942,15.036,41.971,14.896,41.971z M43.95,41.438c-0.14,0-0.283-0.029-0.418-0.092l-1.816-0.838   c-0.501-0.231-0.72-0.826-0.489-1.327c0.231-0.501,0.826-0.72,1.327-0.489l1.816,0.838c0.501,0.231,0.72,0.826,0.489,1.327   C44.69,41.223,44.328,41.438,43.95,41.438z M20.344,39.457c-0.378,0-0.74-0.215-0.908-0.581c-0.232-0.501-0.013-1.095,0.489-1.327   l1.816-0.838c0.5-0.231,1.096-0.013,1.327,0.489c0.232,0.501,0.013,1.095-0.489,1.327l-1.816,0.838   C20.627,39.428,20.484,39.457,20.344,39.457z M38.502,38.924c-0.141,0-0.283-0.029-0.418-0.092l-1.816-0.838   c-0.501-0.231-0.721-0.826-0.489-1.327c0.231-0.502,0.826-0.722,1.327-0.489l1.816,0.838c0.501,0.231,0.721,0.826,0.489,1.327   C39.242,38.709,38.88,38.924,38.502,38.924z M25.792,36.942c-0.378,0-0.74-0.215-0.909-0.581c-0.231-0.501-0.012-1.096,0.489-1.327   l1.816-0.838c0.502-0.231,1.095-0.012,1.327,0.489c0.231,0.501,0.012,1.096-0.489,1.327l-1.816,0.838   C26.074,36.913,25.932,36.942,25.792,36.942z M33.054,36.41c-0.14,0-0.283-0.03-0.418-0.092L30.82,35.48   c-0.501-0.231-0.72-0.826-0.489-1.327c0.231-0.501,0.826-0.721,1.327-0.489l1.816,0.838c0.501,0.231,0.72,0.826,0.489,1.327   C33.794,36.194,33.432,36.41,33.054,36.41z" data-original="#26B99A" class="" data-old_color="#26B99A"/>
	<path style="fill:#1B5FA8" d="M30,27c-0.552,0-1-0.448-1-1v-2c0-0.552,0.448-1,1-1s1,0.448,1,1v2C31,26.552,30.552,27,30,27z    M30,21c-0.552,0-1-0.448-1-1v-2c0-0.552,0.448-1,1-1s1,0.448,1,1v2C31,20.552,30.552,21,30,21z M30,15c-0.552,0-1-0.448-1-1v-2   c0-0.552,0.448-1,1-1s1,0.448,1,1v2C31,14.552,30.552,15,30,15z M30,9c-0.552,0-1-0.448-1-1V6c0-0.552,0.448-1,1-1s1,0.448,1,1v2   C31,8.552,30.552,9,30,9z M30,3c-0.552,0-1-0.448-1-1V1c0-0.552,0.448-1,1-1s1,0.448,1,1v1C31,2.552,30.552,3,30,3z" data-original="#26B99A" class="" data-old_color="#26B99A"/>
	<path style="fill:#2978CC" d="M30,60c-0.153,0-0.306-0.035-0.447-0.105l-26-13C3.214,46.725,3,46.379,3,46V14   c0-0.341,0.174-0.659,0.461-0.842c0.289-0.183,0.649-0.208,0.958-0.066l26,12C30.773,25.255,31,25.61,31,26v33   c0,0.347-0.18,0.668-0.474,0.851C30.365,59.95,30.183,60,30,60z M5,45.382l24,12V26.64L5,15.563V45.382z" data-original="#434C6D" class="active-path" data-old_color="#434C6D"/>
	<path style="fill:#2978CC" d="M30,60c-0.183,0-0.365-0.05-0.526-0.149C29.18,59.668,29,59.347,29,59V26   c0-0.39,0.227-0.745,0.581-0.908l26-12c0.309-0.142,0.671-0.117,0.958,0.066C56.826,13.341,57,13.659,57,14v32   c0,0.379-0.214,0.725-0.553,0.895l-26,13C30.306,59.965,30.153,60,30,60z M31,26.64v30.742l24-12V15.563L31,26.64z" data-original="#434C6D" class="active-path" data-old_color="#434C6D"/>
	<path style="fill:#2978CC" d="M30,27c-0.143,0-0.286-0.031-0.419-0.092l-26-12C3.232,14.747,3.006,14.4,3,14.016   c-0.006-0.384,0.209-0.738,0.553-0.91l26-13c0.281-0.141,0.613-0.141,0.895,0l26,13c0.344,0.172,0.559,0.526,0.553,0.91   c-0.006,0.384-0.232,0.731-0.581,0.893l-26,12C30.286,26.969,30.143,27,30,27z M6.308,13.964L30,24.898l23.692-10.935L30,2.118   L6.308,13.964z" data-original="#434C6D" class="active-path" data-old_color="#434C6D"/>
</g></g> </svg>
