<?xml version="1.0"?>
<svg xmlns="http://www.w3.org/2000/svg" id="Layer_1" enable-background="new 0 0 500 500" height="512px" viewBox="0 0 500 500" width="512px" class=""><g><path d="m103.334 194.506h62.956v293.494h-62.956z" fill="#fff" data-original="#FFF"/><path d="m166.269 500h-62.956c-6.536 0-12.001-5.465-12-12.002l.042-293.494c.001-6.627 5.373-11.998 12-11.998h62.956c6.536 0 12.001 5.465 12 12.002l-.042 293.494c-.001 6.627-5.373 11.998-12 11.998zm-50.954-24h38.956l.039-269.494h-38.956z" fill="#3e4d6c" data-original="#3E4D6C" class="active-path" data-old_color="#3e4d6c" style="fill:#2978CC"/><path d="m103.314 12v61.296l62.955-.213v-61.083z" fill="#fff" data-original="#FFF"/><path d="m103.313 85.296c-3.175 0-6.221-1.258-8.471-3.5-2.259-2.252-3.529-5.311-3.529-8.5v-61.296c0-6.627 5.373-12 12-12h62.956c6.627 0 12 5.373 12 12v61.083c0 6.611-5.348 11.978-11.959 12l-62.956.213c-.013 0-.027 0-.041 0zm12-61.296v37.255l38.956-.132v-37.123z" fill="#3e4d6c" data-original="#3E4D6C" class="active-path" data-old_color="#3e4d6c" style="fill:#2978CC"/><path d="m396.565 211.054h-357.42l-1.145-154.093h357.42l66.58 80.495z" fill="#0795fe" data-original="#0795FE" class="" style="fill:#2978CC" data-old_color="#0795fe"/></g> </svg>
