<?xml version="1.0"?>
<svg xmlns="http://www.w3.org/2000/svg" xmlns:xlink="http://www.w3.org/1999/xlink" version="1.1" id="Capa_1" x="0px" y="0px" viewBox="0 0 503.859 503.859" style="enable-background:new 0 0 503.859 503.859;" xml:space="preserve" width="512px" height="512px" class=""><g><g>
	<polygon style="fill:#339AFF" points="232.968,131.371 157.149,175.147 270.891,241.057 347.022,197.281  " data-original="#11CEAA" class="" data-old_color="#11CEAA"/>
	<polygon style="fill:#339AFF" points="232.968,306.479 157.149,350.259 270.891,416.177 347.022,372.393  " data-original="#11CEAA" class="" data-old_color="#11CEAA"/>
</g><polygon style="fill:#4DE1FF" points="270.923,109.694 270.923,503.859 347.053,460.075 347.053,65.914 " data-original="#26F9D0" class="active-path" data-old_color="#26F9D0"/><polyline style="fill:#4DC3FF" points="347.053,65.914 270.923,109.694 270.923,503.859 " data-original="#1FEAC3" class="" data-old_color="#1FEAC3"/><g>
	<polygon style="fill:#2978CC" points="156.806,43.811 156.806,131.371 233.007,174.931 233.007,218.711 156.806,175.147    157.149,262.747 233.055,306.783 233.055,394.039 156.806,350.503 156.806,438.063 270.919,503.749 270.919,328.157    270.923,109.265  " data-original="#0CA88E" class="" data-old_color="#0CA88E"/>
</g><polygon style="fill:#339AFF" points="232.968,0 157.149,43.78 270.891,109.694 347.022,65.914 " data-original="#11CEAA" class="" data-old_color="#11CEAA"/></g> </svg>
