<?xml version="1.0"?>
<svg xmlns="http://www.w3.org/2000/svg" xmlns:xlink="http://www.w3.org/1999/xlink" version="1.1" viewBox="0 0 453.743 453.743" enable-background="new 0 0 453.743 453.743" width="512px" height="512px"><g><g>
    <path d="m83.346,340.765c0,13.034 10.604,23.637 23.637,23.637 13.034,0 23.638-10.604 23.638-23.637s-10.604-23.637-23.638-23.637c-13.034,0-23.637,10.603-23.637,23.637zm37.274,0c0,7.52-6.118,13.637-13.638,13.637s-13.637-6.118-13.637-13.637 6.117-13.637 13.637-13.637 13.638,6.118 13.638,13.637z" data-original="#000000" class="active-path" data-old_color="#000000" fill="#2978CC"/>
    <path d="m453.507,372.181l-29.093-231.574c-1.93-15.354-15.055-26.933-30.529-26.933h-45.297v-10.475c5.431-2.055 9.921-6.347 12.458-12.188 3.894-8.964 2.195-19.242-4.33-26.19-29.868-31.743-69.288-49.292-110.997-49.415-0.147,0-0.288,0-0.436,0-41.539,0-80.871,17.322-110.78,48.798-6.56,6.897-8.315,17.161-4.475,26.149 2.512,5.877 6.994,10.206 12.432,12.288v11.033h-45.213c-15.476,0-28.601,11.579-30.529,26.934l-3.324,26.459h-41.399c-5.859,0-11.379,2.284-15.563,6.452-4.148,4.163-6.432,9.683-6.432,15.543 0,12.128 9.867,21.996 21.995,21.996h35.872l-20.242,161.123c-1.083,8.619 1.592,17.297 7.338,23.811 5.746,6.513 14.023,10.249 22.709,10.249h0.513v16.314c0,4.142 3.357,7.5 7.5,7.5h14.319v0.783c0,4.142 3.357,7.5 7.5,7.5s7.5-3.358 7.5-7.5v-0.783h281.124v0.783c0,4.142 3.357,7.5 7.5,7.5s7.5-3.358 7.5-7.5v-0.783h14.318c4.143,0 7.5-3.358 7.5-7.5v-16.315h0.513c8.686,0 16.963-3.736 22.71-10.249 5.746-6.514 8.421-15.192 7.338-23.81zm-303.527-283.155c-3.802-0.01-5.574-3.198-6.159-4.567-1.127-2.638-1.397-6.817 1.553-9.92 27.054-28.471 62.519-44.133 99.911-44.133 0.128,0 0.262,0 0.391,0 37.545,0.11 73.101,15.982 100.111,44.689 2.937,3.126 2.644,7.309 1.501,9.94-0.564,1.3-2.218,4.245-5.673,4.5-0.174-0.012-0.35-0.018-0.527-0.018-4.143,0-7.5,3.358-7.5,7.5v16.656h-176.128v-17.147c0-4.134-3.346-7.489-7.48-7.5zm-127.985,107.032c-3.857,0-6.995-3.138-6.995-6.996 0-1.864 0.731-3.625 2.038-4.937 1.333-1.328 3.093-2.059 4.957-2.059h39.514l-1.758,13.991h-37.756zm385.951,218.997h-324.761v-8.814h324.762v8.814zm26.973-28.987c-2.942,3.336-7.013,5.173-11.461,5.173h-355.787c-4.448,0-8.518-1.837-11.46-5.172-2.943-3.335-4.259-7.603-3.704-12.017l29.093-231.574c0.988-7.869 7.715-13.803 15.646-13.803h296.638c7.931,0 14.657,5.935 15.646,13.804l29.093,231.574c0.555,4.412-0.761,8.68-3.704,12.015z" data-original="#000000" class="active-path" data-old_color="#000000" fill="#2978CC"/>
    <path d="m401.386,143.485c-0.487-3.766-3.714-6.606-7.507-6.606h-115.178c-2.762,0-5,2.239-5,5s2.238,5 5,5h113.032l28.414,226.154h-349.158l28.405-226.154h113.041c2.762,0 5-2.239 5-5s-2.238-5-5-5h-115.187c-3.795,0-7.021,2.841-7.508,6.624l-29.082,231.54c-0.364,2.772 0.912,4.694 1.705,5.593 0.79,0.895 2.53,2.396 5.313,2.396h355.784c2.774,0 4.513-1.501 5.303-2.396 1.375-1.559 1.983-3.546 1.718-5.567l-29.095-231.584z" data-original="#000000" class="active-path" data-old_color="#000000" fill="#2978CC"/>
    <path d="m237.636,146.879h15.864c2.762,0 5-2.239 5-5s-2.238-5-5-5h-15.864c-2.762,0-5,2.239-5,5s2.238,5 5,5z" data-original="#000000" class="active-path" data-old_color="#000000" fill="#2978CC"/>
  </g></g> </svg>
