<?xml version="1.0"?>
<svg xmlns="http://www.w3.org/2000/svg" height="512px" viewBox="0 -35 512 512" width="512px"><g><path d="m447.863281 335h22.636719c6.339844 0 11.5-5.160156 11.5-11.5v-282c0-6.339844-5.160156-11.5-11.5-11.5h-429c-6.339844 0-11.5 5.160156-11.5 11.5v282c0 6.339844 5.160156 11.5 11.5 11.5h374.734375c4.144531 0 7.5-3.359375 7.5-7.5s-3.355469-7.5-7.5-7.5h-371.234375v-275h422v275h-19.136719c-4.140625 0-7.5 3.359375-7.5 7.5s3.359375 7.5 7.5 7.5zm0 0" data-original="#000000" class="active-path" data-old_color="#000000" fill="#2978CC"/><path d="m442.5 365h48c11.855469 0 21.5-9.644531 21.5-21.5v-322c0-11.855469-9.644531-21.5-21.5-21.5h-469c-11.855469 0-21.5 9.644531-21.5 21.5v38.5c0 4.140625 3.355469 7.5 7.5 7.5s7.5-3.359375 7.5-7.5v-38.5c0-3.585938 2.914062-6.5 6.5-6.5h469c3.585938 0 6.5 2.914062 6.5 6.5v322c0 3.585938-2.914062 6.5-6.5 6.5h-469c-3.585938 0-6.5-2.914062-6.5-6.5v-249.882812c0-4.144532-3.355469-7.5-7.5-7.5s-7.5 3.355468-7.5 7.5v249.882812c0 11.855469 9.644531 21.5 21.5 21.5h48v17.5c0 5.519531 1.996094 10.582031 5.308594 14.5h-52.308594c-12.40625 0-22.5 10.09375-22.5 22.5s10.09375 22.5 22.5 22.5h40.714844c4.140625 0 7.5-3.359375 7.5-7.5s-3.359375-7.5-7.5-7.5h-40.714844c-4.136719 0-7.5-3.363281-7.5-7.5s3.363281-7.5 7.5-7.5h467c4.136719 0 7.5 3.363281 7.5 7.5s-3.363281 7.5-7.5 7.5h-393.636719c-4.140625 0-7.5 3.359375-7.5 7.5s3.359375 7.5 7.5 7.5h393.636719c12.40625 0 22.5-10.09375 22.5-22.5s-10.09375-22.5-22.5-22.5h-52.308594c3.3125-3.917969 5.308594-8.980469 5.308594-14.5zm-15 0v17.5c0 4.136719-3.363281 7.5-7.5 7.5s-7.5-3.363281-7.5-7.5v-17.5zm-328 0v17.5c0 4.136719-3.363281 7.5-7.5 7.5s-7.5-3.363281-7.5-7.5v-17.5zm9.691406 32c3.3125-3.917969 5.308594-8.980469 5.308594-14.5v-17.5h283v17.5c0 5.519531 1.996094 10.582031 5.308594 14.5zm0 0" data-original="#000000" class="active-path" data-old_color="#000000" fill="#2978CC"/><path d="m416 61.5h-56c-14.0625 0-25.5 11.4375-25.5 25.5s11.4375 25.5 25.5 25.5h56c14.0625 0 25.5-11.4375 25.5-25.5s-11.4375-25.5-25.5-25.5zm0 36h-56c-5.789062 0-10.5-4.710938-10.5-10.5s4.710938-10.5 10.5-10.5h56c5.789062 0 10.5 4.710938 10.5 10.5s-4.710938 10.5-10.5 10.5zm0 0" data-original="#000000" class="active-path" data-old_color="#000000" fill="#2978CC"/><path d="m75 269.5c-4.144531 0-7.5 3.359375-7.5 7.5s3.355469 7.5 7.5 7.5h52c4.144531 0 7.5-3.359375 7.5-7.5s-3.355469-7.5-7.5-7.5zm0 0" data-original="#000000" class="active-path" data-old_color="#000000" fill="#2978CC"/></g> </svg>
