<?xml version="1.0"?>
<svg xmlns="http://www.w3.org/2000/svg" xmlns:xlink="http://www.w3.org/1999/xlink" version="1.1" id="Layer_1" x="0px" y="0px" viewBox="0 0 496.2 496.2" style="enable-background:new 0 0 496.2 496.2;" xml:space="preserve" width="512px" height="512px" class="hovered-paths"><g><path style="fill:#2978CC" d="M496.2,248.1C496.2,111.1,385.1,0,248.1,0S0,111.1,0,248.1s111.1,248.1,248.1,248.1  S496.2,385.1,496.2,248.1z" data-original="#48A1AF" class="hovered-path active-path" data-old_color="#48A1AF"/><g>
	<path style="fill:#070709;" d="M345.3,367.1c0,1.8-1.5,3.2-3.2,3.2h-188c-1.8,0-3.2-1.5-3.2-3.2l0,0c0-1.8,1.5-3.2,3.2-3.2h188   C343.9,363.8,345.3,365.3,345.3,367.1L345.3,367.1z" data-original="#070709"/>
	<rect x="220.3" y="343.8" style="fill:#070709;" width="55.5" height="23.5" data-original="#070709"/>
</g><rect x="73.6" y="129.9" style="fill:#C6C6C6;" width="349" height="216" data-original="#C6C6C6"/><rect x="73.6" y="125.9" style="fill:#070709;" width="349" height="216" data-original="#070709"/><rect x="83.8" y="137.2" style="fill:#1E1E1E;" width="328.7" height="190.6" data-original="#1E1E1E" class=""/></g> </svg>
