<?xml version="1.0"?>
<svg xmlns="http://www.w3.org/2000/svg" xmlns:xlink="http://www.w3.org/1999/xlink" version="1.1" id="Capa_1" x="0px" y="0px" viewBox="0 0 503.784 503.784" style="enable-background:new 0 0 503.784 503.784;" xml:space="preserve" width="512px" height="512px" class=""><g><g>
	<polygon style="fill:#339AFF" points="232.932,131.371 157.113,175.147 270.852,241.057 346.986,197.281  " data-original="#11CEAA" class="" data-old_color="#11CEAA"/>
	<polygon style="fill:#339AFF" points="232.932,306.479 157.113,350.259 270.852,416.177 346.986,372.393  " data-original="#11CEAA" class="" data-old_color="#11CEAA"/>
</g><polygon style="fill:#4DE1FF" points="270.883,109.694 270.883,328.405 347.014,284.625 347.014,65.914 " data-original="#26F9D0" class="active-path" data-old_color="#26F9D0"/><g>
	<polyline style="fill:#4DC3FF" points="347.014,65.914 270.883,109.694 270.883,328.405  " data-original="#1FEAC3" class="" data-old_color="#1FEAC3"/>
	<polygon style="fill:#4DC3FF" points="270.883,415.445 270.883,503.784 347.014,460.004 347.014,371.665  " data-original="#1FEAC3" class="" data-old_color="#1FEAC3"/>
	<polygon style="fill:#4DC3FF" points="194.753,285.68 194.753,371.665 270.883,327.889 270.883,241.904  " data-original="#1FEAC3" class="" data-old_color="#1FEAC3"/>
</g><polygon style="fill:#2978CC" points="195.052,284.377 270.88,328.157 270.883,109.265 156.77,43.811 156.77,131.371   232.968,174.931 232.968,218.711 156.77,175.147 156.77,437.87 270.883,503.749 270.883,415.712 195.052,371.936 " data-original="#0CA88E" class="" data-old_color="#0CA88E"/><polygon style="fill:#339AFF" points="232.932,0 157.113,43.78 270.852,109.694 346.986,65.914 " data-original="#11CEAA" class="" data-old_color="#11CEAA"/></g> </svg>
