<?xml version="1.0"?>
<svg xmlns="http://www.w3.org/2000/svg" id="Layer_1" enable-background="new 0 0 64 64" height="512px" viewBox="0 0 64 64" width="512px"><g><path d="m8.993 56.009h46c.553 0 1-.447 1-1v-22c0-.552-.447-1-1-1h-11.945v-5c0-.552-.447-1-1-1s-1 .448-1 1v5h-32.055c-.553 0-1 .448-1 1v22c0 .553.447 1 1 1zm1-22h44v20h-44z" data-original="#000000" class="active-path" data-old_color="#000000" fill="#2978CC"/><path d="m54.271 13.058c-3.267-3.267-7.609-5.066-12.228-5.066-4.617 0-8.959 1.799-12.219 5.059l-1.541 1.509c-.193.19-.304.45-.305.722-.002.271.106.532.298.725l2.879 2.876c.394.395 1.032.398 1.431.006l1.546-1.516c2.116-2.114 4.926-3.278 7.911-3.278 2.989 0 5.799 1.164 7.919 3.286l1.54 1.509c.191.186.446.29.712.29h.021c.273-.005.532-.121.72-.319l2.775-2.946c.377-.4.368-1.028-.021-1.417zm-2.086 3.652-.791-.775c-2.498-2.499-5.818-3.875-9.351-3.875-3.528 0-6.849 1.376-9.342 3.867l-.82.804-1.439-1.438.813-.797c2.884-2.883 6.715-4.471 10.788-4.471 4.075 0 7.906 1.587 10.789 4.471l.74.74z" data-original="#000000" class="active-path" data-old_color="#000000" fill="#2978CC"/><path d="m37.727 24.866h.012c.271 0 .529-.108.721-.299l1.435-1.441c1.152-1.153 3.156-1.151 4.301 0l1.437 1.441c.194.195.461.318.731.299.273-.003.535-.116.724-.314l2.812-2.938c.382-.399.376-1.029-.014-1.42l-1.366-1.375c-1.728-1.734-4.026-2.689-6.474-2.689-2.446 0-4.745.955-6.473 2.689l-1.359 1.366c-.389.391-.396 1.019-.016 1.418l2.806 2.946c.187.2.448.313.723.317zm-.714-4.612c1.343-1.348 3.13-2.09 5.031-2.09 1.902 0 3.69.742 5.032 2.09l.666.67-1.405 1.469-.701-.704c-.958-.962-2.234-1.492-3.592-1.492-1.356 0-2.631.53-3.591 1.492l-.698.702-1.403-1.473z" data-original="#000000" class="active-path" data-old_color="#000000" fill="#2978CC"/><path d="m50.993 36.009h-8c-.553 0-1 .447-1 1s.447 1 1 1h7v4h-23c-.553 0-1 .447-1 1s.447 1 1 1h24c.553 0 1-.447 1-1v-6c0-.553-.447-1-1-1z" data-original="#000000" class="active-path" data-old_color="#000000" fill="#2978CC"/><path d="m12.993 44.009h8c.553 0 1-.447 1-1s-.447-1-1-1h-7v-4h23c.553 0 1-.447 1-1s-.447-1-1-1h-24c-.553 0-1 .447-1 1v6c0 .553.447 1 1 1z" data-original="#000000" class="active-path" data-old_color="#000000" fill="#2978CC"/><path d="m47.993 47.009c0-.553-.447-1-1-1h-34c-.553 0-1 .447-1 1s.447 1 1 1h34c.553 0 1-.447 1-1z" data-original="#000000" class="active-path" data-old_color="#000000" fill="#2978CC"/><path d="m50.993 50.009h-34c-.553 0-1 .447-1 1s.447 1 1 1h34c.553 0 1-.447 1-1s-.447-1-1-1z" data-original="#000000" class="active-path" data-old_color="#000000" fill="#2978CC"/><circle cx="40" cy="37" r="1" data-original="#000000" class="active-path" data-old_color="#000000" fill="#2978CC"/><circle cx="24" cy="43" r="1" data-original="#000000" class="active-path" data-old_color="#000000" fill="#2978CC"/></g> </svg>
